<svg xmlns="http://www.w3.org/2000/svg" width="1920.157" height="1080" viewBox="0 0 1920.157 1080">
  <defs>
    <style>
      .cls-1 {
        fill: #fff;
        stroke: #707070;
      }

      .cls-2 {
        fill: #e6f1fc;
      }

      .cls-3 {
        fill: #cae3f8;
      }

      .cls-4 {
        stroke: none;
      }

      .cls-5 {
        fill: none;
      }
    </style>
  </defs>
  <g id="Group_516" data-name="Group 516" transform="translate(0.157)">
    <g id="Rectangle_526" data-name="Rectangle 526" class="cls-1">
      <rect class="cls-4" width="1920" height="1080"/>
      <rect class="cls-5" x="0.5" y="0.5" width="1919" height="1079"/>
    </g>
    <g id="Group_515" data-name="Group 515">
      <g id="Group_514" data-name="Group 514">
        <g id="BACKGROUND" transform="translate(-0.157 326.527)">
          <path id="Path_10" data-name="Path 10" class="cls-2" d="M1920.157,190.539c-95.7-43.105-222.413-73.965-358.836-80.294C1426.771,104,1291.689,121.454,1169.137,146.5s-236.167,57.672-356.7,84.523c-81.43,18.139-170.146,33.95-261.29,30.891-98.268-3.3-186.708-28.107-284.263-34.228C171.608,221.706,72.544,236.156,0,263.569V522l.594.035c441.959,25.337,889.86,17.877,1335.433,12.327,183.17-2.281,369.771-4.49,542.948-30.646,13.781-2.082,27.635-4.389,41.181-7Z" transform="translate(0 208)"/>
          <path id="Path_11" data-name="Path 11" class="cls-3" d="M339.786,415.4c-8.169-4.238-16.276-9.014-22.35-15.928s-9.9-16.343-8.156-25.38,10.1-16.946,19.276-16.3c7.738.541,15.012,6.608,22.5,4.577,6.687-1.815,10.15-9.6,9.82-16.523s-3.429-13.354-5.622-19.926a78.862,78.862,0,0,1-1.942-42.786c1.2-5.094,3.011-10.235,6.6-14.048s9.3-6,14.214-4.2c3.817,1.4,6.45,4.826,9.547,7.463s7.671,4.56,11.133,2.425c2.255-1.39,3.3-4.074,4.119-6.594,4.62-14.26,6.591-29.4,12.7-43.087a77.8,77.8,0,0,1,44.5-41.106c11.512-4.077,27.068-3.888,32.861,6.862,3.064,5.686,2.3,12.675.479,18.87-5.293,17.954-18.444,32.569-25.34,49.971-2.536,6.4-3.714,14.835,1.618,19.19,4.6,3.759,11.314,2.259,17.255,2.182,9.549-.124,19.211,4.379,24.664,12.218s6.2,18.9,1.244,27.056c-6.911,11.372-21.586,14.493-34.156,18.857S448.5,353.613,450.559,366.76c1.668,10.661,13.441,18.4,12.876,29.175-.353,6.75-5.57,12.181-10.888,16.352a97.54,97.54,0,0,1-53.7,20.318C377.313,433.966,358.6,425.163,339.786,415.4Z" transform="translate(661.152 231.599)"/>
          <path id="Path_12" data-name="Path 12" class="cls-3" d="M554.412,440.928c-4.756-10.349-7.669-23.637-1.948-33.315,4.431-7.5,12.608-10.426,20.041-13.394,7.534-3.01,15.089-6.687,20.894-12.99s9.6-15.732,7.995-24.737c-.991-5.547-3.875-10.381-6.969-14.777-9.665-13.733-22.154-25.121-29.086-40.9-3.941-8.968-5.483-20.988.565-28.23,5.073-6.075,13.418-6.361,19.669-10.74,11.9-8.335,12.482-27.439,14.023-43.4,1.666-17.261,6.289-34.63,15.968-47.937s25.033-21.889,39.894-19.061c4.458.848,8.953,2.817,11.941,6.726,6.728,8.8,3.178,22.324.446,33.627a166.028,166.028,0,0,0-3.636,56.478c.515,4.782,1.3,9.711,3.7,13.654,7,11.492,22.061,8.357,34.008,5.637,8.383-1.908,17.21-2.944,25.361.014s15.469,10.738,16.448,20.527c1.58,15.791-12.242,26.973-22.975,36.948a123.933,123.933,0,0,0-19.977,24.053c-4.194,6.565-7.923,13.805-9.093,21.846s.639,17.04,6.012,22.34c6.8,6.706,17.69,6.372,23.564,14.15,6.159,8.154,3.62,20.913-.876,30.4-14.87,31.385-45.875,48.6-76.492,54.313C608.911,498.7,571.019,477.069,554.412,440.928Z" transform="translate(1170.157 208)"/>
          <path id="Path_13" data-name="Path 13" class="cls-3" d="M178.781,381.769c-5.159-5.865-9.462-14.234-5.969-21.22,4.706-9.411,18.844-8.355,26.946-15.068a4.052,4.052,0,0,0,1.681-2.516,4.141,4.141,0,0,0-1.218-2.884c-5.76-7.018-16.134-10.147-19.47-18.591-1.48-3.746-1.258-7.957-.466-11.906a44.426,44.426,0,0,1,21.249-29.432c6.25-3.565,13.637-5.566,20.711-4.249s13.65,6.385,15.537,13.328c4.054,14.919-13.475,27.973-13.2,43.431.244,13.853,14.13,23,26.576,29.083s26.732,13.675,29.118,27.323c4.368,24.991-24.917,28.618-41.909,24.073C216.481,407.288,194.165,399.258,178.781,381.769Z" transform="translate(313.241 180.087)"/>
          <path id="Path_14" data-name="Path 14" class="cls-3" d="M70.054,389.592c-5.773-5.738-11.528-12.382-12.367-20.479a19.92,19.92,0,0,1,13.375-20.394c2.779-.88,5.912-1.211,8.041-3.2,5.119-4.789.082-12.968-3.933-18.714-15.226-21.784-11.96-54.5,7.27-72.849,3.292-3.14,7.709-6.045,12.1-4.849,2.367.645,4.262,2.39,5.941,4.178a59.921,59.921,0,0,1,16.059,39.237c.115,5.006-.4,10.1.838,14.957s4.784,9.577,9.745,10.26c2.5.344,5.036-.37,7.559-.247,6.214.3,11.308,5.919,12.385,12.047s-1.2,12.447-4.737,17.563c-4.145,5.992-10.343,11.718-9.748,18.979.62,7.565,8.2,12.21,13.336,17.8,16.756,18.25,2.611,43.513-21.1,42.97C105.3,426.4,82.878,402.338,70.054,389.592Z" transform="translate(0 237.858)"/>
          <rect id="Rectangle_93" data-name="Rectangle 93" class="cls-3" width="1920.157" height="101.315" transform="translate(0 652.158)"/>
        </g>
      </g>
    </g>
  </g>
</svg>
