<svg xmlns="http://www.w3.org/2000/svg" width="138.445" height="128.69" viewBox="0 0 138.445 128.69">
  <defs>
    <style>
      .cls-1 {
        fill: #f5f5f5;
      }

      .cls-12, .cls-2 {
        fill: #27debf;
      }

      .cls-15, .cls-3 {
        opacity: 0.2;
      }

      .cls-11, .cls-13, .cls-15, .cls-4 {
        fill: #fff;
      }

      .cls-5 {
        fill: #e0e0e0;
      }

      .cls-6 {
        fill: #ebebeb;
      }

      .cls-7 {
        fill: #f0f0f0;
      }

      .cls-8 {
        fill: #455a64;
      }

      .cls-9 {
        fill: #37474f;
      }

      .cls-10 {
        fill: #263238;
      }

      .cls-11, .cls-12 {
        stroke: #27debf;
        stroke-miterlimit: 10;
      }

      .cls-13 {
        opacity: 0.7;
      }

      .cls-14 {
        opacity: 0.1;
      }

      .cls-16 {
        fill: #ffa8a7;
      }

      .cls-17 {
        fill: #f28f8f;
      }

      .cls-18 {
        opacity: 0.3;
      }
    </style>
  </defs>
  <g id="Group_404" data-name="Group 404" transform="translate(-895.555 -244.293)">
    <g id="Floor" transform="translate(895.555 306.89)">
      <path id="Path_450" data-name="Path 450" class="cls-1" d="M93.83,302c27.033,12.885,70.862,12.885,97.9,0s27.033-33.775,0-46.659-70.863-12.885-97.9,0S66.8,289.118,93.83,302Z" transform="translate(-73.555 -245.68)"/>
    </g>
    <g id="Plants" transform="translate(905.236 297.305)">
      <g id="Group_351" data-name="Group 351" transform="translate(0 0)">
        <g id="Group_345" data-name="Group 345" transform="translate(0 36.667)">
          <g id="Group_343" data-name="Group 343" transform="translate(8.326 2.112)">
            <g id="Group_342" data-name="Group 342" transform="translate(0.196)">
              <path id="Path_451" data-name="Path 451" class="cls-2" d="M119.954,334.021l3.187-1.84a12.779,12.779,0,0,0,3.931-5.52c.985-2.715.849-4.78.143-5.815-.869-1.274-3.117-1.051-3.206,1.634C123.833,327.768,122.29,331.426,119.954,334.021Z" transform="translate(-119.954 -320.094)"/>
              <path id="Path_452" data-name="Path 452" class="cls-3" d="M119.954,334.021l3.187-1.84a12.779,12.779,0,0,0,3.931-5.52c.985-2.715.849-4.78.143-5.815-.869-1.274-3.117-1.051-3.206,1.634C123.833,327.768,122.29,331.426,119.954,334.021Z" transform="translate(-119.954 -320.094)"/>
            </g>
            <path id="Path_453" data-name="Path 453" class="cls-4" d="M119.651,336.145a.2.2,0,0,1-.112-.357c7.374-5.1,5.946-12.212,5.931-12.283a.2.2,0,0,1,.384-.083c.016.074,1.506,7.432-6.091,12.689A.193.193,0,0,1,119.651,336.145Z" transform="translate(-119.454 -322.022)"/>
          </g>
          <g id="Group_344" data-name="Group 344">
            <path id="Path_454" data-name="Path 454" class="cls-2" d="M100.379,334.429a2.367,2.367,0,0,1-.841-2.126c.269-1.224.984-2.1-.246-3.68s-1.548-3.68-.1-4.82c1.118-.882,2.864.368,3.494-1.968.46-1.7.3-5.472,2.475-6.727s3.521.634,3.187,3.191c-.3,2.288-.718,4.49-.395,5.09.634,1.172,1.723,1.015,1.673,3.164a5.909,5.909,0,0,1-1.938,3.657Z" transform="translate(-98.231 -314.71)"/>
            <path id="Path_455" data-name="Path 455" class="cls-4" d="M112.492,336.336a.2.2,0,0,1-.195-.173c-.561-4.649.776-12.675,1.883-15.06a.2.2,0,0,1,.356.165c-1.087,2.344-2.386,10.405-1.849,14.849a.2.2,0,0,1-.171.218Z" transform="translate(-106.698 -318.526)"/>
            <path id="Path_456" data-name="Path 456" class="cls-4" d="M109.075,345.6a.2.2,0,0,1-.086-.02c-1.361-.665-2.224-3.029-2.26-3.13a.2.2,0,1,1,.369-.132c.008.023.845,2.314,2.064,2.91a.2.2,0,0,1-.087.372Z" transform="translate(-103.388 -331.407)"/>
            <path id="Path_457" data-name="Path 457" class="cls-4" d="M112.367,348.434a.2.2,0,0,1-.073-.378,8.74,8.74,0,0,0,3.733-3.675.2.2,0,0,1,.349.18,8.987,8.987,0,0,1-3.936,3.859A.2.2,0,0,1,112.367,348.434Z" transform="translate(-106.702 -332.675)"/>
          </g>
        </g>
        <g id="Group_350" data-name="Group 350" transform="translate(19.79)">
          <g id="Group_346" data-name="Group 346" transform="translate(64.052 14.27)">
            <path id="Path_458" data-name="Path 458" class="cls-2" d="M313.849,274.673a14.083,14.083,0,0,1-1.881-5.8c-.166-3.02.5-4.274,1.407-4.634s.978.749,1.448,1.406,1.42.281,1.771-1.762,1.639-5.5,4.3-6.165c2.943-.729,1.364,2.723.625,4.07s-1.315,3.181-.827,3.68,1.242-.423,1.967.432c.874,1.033-1.844,4.745-3.4,5.646Z" transform="translate(-311.942 -257.622)"/>
            <path id="Path_459" data-name="Path 459" class="cls-4" d="M322.488,276.512h-.01a.2.2,0,0,1-.186-.206,28.269,28.269,0,0,1,4.392-13.652.2.2,0,0,1,.319.228,27.86,27.86,0,0,0-4.319,13.445A.2.2,0,0,1,322.488,276.512Z" transform="translate(-318.232 -260.63)"/>
            <path id="Path_460" data-name="Path 460" class="cls-4" d="M320.517,287.909a.2.2,0,0,1-.095-.024,5.073,5.073,0,0,1-1.732-2.489.2.2,0,0,1,.372-.124,4.79,4.79,0,0,0,1.55,2.269.2.2,0,0,1-.095.368Z" transform="translate(-316.036 -274.343)"/>
            <path id="Path_461" data-name="Path 461" class="cls-4" d="M323.549,285a.2.2,0,0,1-.048-.386,6.479,6.479,0,0,0,3.822-2.215.2.2,0,0,1,.331.21c-.042.066-1.061,1.627-4.056,2.384A.19.19,0,0,1,323.549,285Z" transform="translate(-318.877 -272.625)"/>
          </g>
          <g id="Group_349" data-name="Group 349">
            <g id="Group_347" data-name="Group 347" transform="translate(8.939)">
              <path id="Path_462" data-name="Path 462" class="cls-2" d="M185.8,246.469s-3.762-.917-3.958-7.961c-.211-7.6.922-16.473-3.515-17.195s-6.926,4.719-6.869,11.041c.05,5.551,2.285,17.6,14.342,19.956Z" transform="translate(-171.462 -221.249)"/>
              <path id="Path_463" data-name="Path 463" class="cls-3" d="M185.8,246.469s-3.762-.917-3.958-7.961c-.211-7.6.922-16.473-3.515-17.195s-6.926,4.719-6.869,11.041c.05,5.551,2.285,17.6,14.342,19.956Z" transform="translate(-171.462 -221.249)"/>
            </g>
            <path id="Path_464" data-name="Path 464" class="cls-4" d="M192.433,255.5a.215.215,0,0,1-.035,0,9.835,9.835,0,0,1-6.563-4.436c-4.874-7.271-3.339-20.844-2.834-23.215a.2.2,0,0,1,.384.082c-.5,2.344-2.022,15.757,2.776,22.915a9.455,9.455,0,0,0,6.307,4.268.2.2,0,0,1-.035.389Z" transform="translate(-169.151 -225.164)"/>
            <g id="Group_348" data-name="Group 348" transform="translate(0 13.248)">
              <path id="Path_465" data-name="Path 465" class="cls-2" d="M171.959,290.19c-3.889.527-10.208.518-13.847-2.352s-2.882-5.344-1.482-6.376,2.616-2.212.208-4.5-6.279-5.97-7.531-11.491-.636-8.97,1.828-10.121c2.39-1.116,3.02.657,4.483,4.314s4.756.522,7.571,1.664,2.7,3.4,2.882,5.344,1.107,2.479,2.7,2.479,3.187.92,3.187,2.76Z" transform="translate(-148.676 -255.018)"/>
              <path id="Path_466" data-name="Path 466" class="cls-4" d="M178.1,295.391a.2.2,0,0,1-.053-.007c-.169-.047-4.191-1.218-10.046-6.6-6.237-5.729-9.182-14.319-9.21-14.405a.2.2,0,1,1,.372-.126c.029.086,2.944,8.582,9.1,14.242,5.776,5.306,9.846,6.5,9.886,6.507a.2.2,0,0,1-.053.385Z" transform="translate(-154.814 -266.628)"/>
              <path id="Path_467" data-name="Path 467" class="cls-4" d="M183.741,298.305a.2.2,0,0,1-.183-.125c-1.259-3.235-1.544-10.152-1.556-10.444a.2.2,0,0,1,.188-.2.2.2,0,0,1,.2.189c0,.071.294,7.143,1.529,10.317a.2.2,0,0,1-.182.268Z" transform="translate(-168.928 -274.776)"/>
              <path id="Path_468" data-name="Path 468" class="cls-4" d="M184.405,324.071a9.861,9.861,0,0,1-1.082-.054.2.2,0,0,1-.172-.218.194.194,0,0,1,.218-.171c.036,0,3.687.416,5.363-1.293a.2.2,0,1,1,.28.274C187.785,323.86,185.683,324.071,184.405,324.071Z" transform="translate(-169.625 -295.889)"/>
            </g>
          </g>
        </g>
      </g>
    </g>
    <g id="Gear" transform="translate(905.235 244.293)">
      <g id="Group_354" data-name="Group 354" transform="translate(0 0)">
        <g id="Group_352" data-name="Group 352" transform="translate(16.347 14.876)">
          <path id="Path_469" data-name="Path 469" class="cls-5" d="M155.3,129.319l-.421-2.446-2.183,1.436a3.009,3.009,0,0,0-.83-1.007l1.044-2.825-1.944-.435-1.437,2.738a5.236,5.236,0,0,0-1.5.487l-.622-2.063-2.329,1.831.153,2.432a12.974,12.974,0,0,0-1.288,1.7l-1.924-.095-1.349,3.024,1.652.705a9.86,9.86,0,0,0-.326,1.916l-2.1,1.929.421,2.446,2.182-1.436a3,3,0,0,0,.83,1.007l-1.045,2.825,1.945.435,2.055-2c.476-.073.36-.967.878-1.221l.621,2.063,2.329-1.831-.06-.956a34.877,34.877,0,0,0,2.636-2.285l.483-.8,1.349-3.024-.628-1.139-.7-1.483Zm-7.114,8.062c-1.787,1.4-2.331,1.711-2.654-.166a7.275,7.275,0,0,1,2.509-6.143c1.787-1.4,2.472-1.51,2.8.367A7.04,7.04,0,0,1,148.184,137.382Z" transform="translate(-139.9 -124.042)"/>
          <path id="Path_470" data-name="Path 470" class="cls-1" d="M165.876,124.042l2.544,1.467-1.437,2.737-2.544-1.467Z" transform="translate(-154.812 -124.042)"/>
          <path id="Path_471" data-name="Path 471" class="cls-1" d="M177.238,132.726l-2.182,1.436-2.544-1.467,2.183-1.436Z" transform="translate(-159.717 -128.428)"/>
          <path id="Path_472" data-name="Path 472" class="cls-5" d="M177.166,149.468l-1.652-.7L172.97,147.3l1.652.7Z" transform="translate(-159.996 -138.173)"/>
          <path id="Path_473" data-name="Path 473" class="cls-5" d="M145.99,169.239l2.544,1.467,1.044-2.825-2.544-1.467Z" transform="translate(-143.601 -149.791)"/>
          <path id="Path_474" data-name="Path 474" class="cls-5" d="M161.59,170.034l-2.544-1.467-.622-2.063,2.544,1.467Z" transform="translate(-151.157 -149.845)"/>
          <path id="Path_475" data-name="Path 475" class="cls-6" d="M161.783,133.059l-.421-2.446-2.182,1.436a3.01,3.01,0,0,0-.83-1.007l1.044-2.825-1.945-.435-1.436,2.738a5.235,5.235,0,0,0-1.5.487l-.622-2.063-2.329,1.831.152,2.432a13.036,13.036,0,0,0-1.287,1.7l-1.924-.095-1.349,3.024,1.652.7a9.863,9.863,0,0,0-.326,1.917l-2.1,1.929.421,2.446,2.182-1.436a3.015,3.015,0,0,0,.83,1.007l-1.044,2.825,1.944.435,1.437-2.737a5.238,5.238,0,0,0,1.5-.487l.622,2.063,2.329-1.831-.153-2.432a13,13,0,0,0,1.288-1.7l1.924.095,1.349-3.024-1.652-.7a9.859,9.859,0,0,0,.326-1.916Zm-7.113,8.062c-1.787,1.4-3.5,1.022-3.82-.854a7.04,7.04,0,0,1,2.65-5.941c1.787-1.4,3.5-1.022,3.82.854A7.04,7.04,0,0,1,154.669,141.122Z" transform="translate(-143.841 -126.315)"/>
          <path id="Path_476" data-name="Path 476" class="cls-1" d="M157.977,128.47,155.433,127l-2.329,1.831,2.544,1.467Z" transform="translate(-147.924 -125.841)"/>
          <path id="Path_477" data-name="Path 477" class="cls-5" d="M153.1,131.67l.152,2.432,2.544,1.467-.152-2.432Z" transform="translate(-147.924 -128.677)"/>
          <path id="Path_478" data-name="Path 478" class="cls-1" d="M149.774,143.527l-2.544-1.467-1.924-.1,2.544,1.467Z" transform="translate(-143.185 -134.933)"/>
          <path id="Path_479" data-name="Path 479" class="cls-5" d="M143.216,141.965l-1.349,3.024,2.544,1.467,1.349-3.024Z" transform="translate(-141.095 -134.933)"/>
          <path id="Path_480" data-name="Path 480" class="cls-1" d="M144.542,157.822,142,156.355l-2.1,1.929,2.544,1.467Z" transform="translate(-139.9 -143.678)"/>
          <path id="Path_481" data-name="Path 481" class="cls-5" d="M142.866,165.185l-2.544-1.467-.421-2.446,2.544,1.467Z" transform="translate(-139.9 -146.666)"/>
          <path id="Path_482" data-name="Path 482" class="cls-1" d="M170.646,125.51l-2.544-1.467,1.945.435,2.544,1.467Z" transform="translate(-157.038 -124.042)"/>
        </g>
        <g id="Group_353" data-name="Group 353">
          <path id="Path_483" data-name="Path 483" class="cls-5" d="M118.577,95.184V91.53l-2.907,1.311a5.171,5.171,0,0,0-.785-1.73l1.832-3.694-2.237-1.292L112.2,89.559a5.161,5.161,0,0,0-1.891.185l-.319-3.173L106.822,88.4l-.319,3.541a15.61,15.61,0,0,0-1.891,2l-2.283-.8-2.237,3.875,1.832,1.578a15.606,15.606,0,0,0-.785,2.638l-2.908,2.047v3.653l2.908-1.311a5.169,5.169,0,0,0,.785,1.731l-1.832,3.694,2.237,1.292,2.283-3.433a5.169,5.169,0,0,0,1.891-.185l.319,3.173,3.164-1.827.319-3.541a5.93,5.93,0,0,0,2.536-1.778l1.638.577,2.237-3.875-1.373-1.183a8.183,8.183,0,0,0,.326-3.033ZM108.4,104.3c-2.427,1.4-3.936.407-3.936-2.4a9.8,9.8,0,0,1,4.434-7.638c2.427-1.4,3.9-.382,3.9,2.421A9.714,9.714,0,0,1,108.4,104.3Z" transform="translate(-98.231 -86.125)"/>
          <path id="Path_484" data-name="Path 484" class="cls-1" d="M138.655,87.592l-2.544-1.467-2.283,3.433,2.544,1.467Z" transform="translate(-119.862 -86.125)"/>
          <path id="Path_485" data-name="Path 485" class="cls-1" d="M148.133,101.369,145.589,99.9l-2.908,1.311,2.544,1.467Z" transform="translate(-125.243 -94.497)"/>
          <path id="Path_486" data-name="Path 486" class="cls-5" d="M122.18,148.352l-2.544-1.467-.319-3.173,2.544,1.467Z" transform="translate(-111.045 -121.119)"/>
          <path id="Path_487" data-name="Path 487" class="cls-5" d="M102.975,143.92l2.544,1.467,1.832-3.694-2.544-1.467Z" transform="translate(-101.114 -119.002)"/>
          <path id="Path_488" data-name="Path 488" class="cls-6" d="M125.063,98.924V95.27l-2.907,1.311a5.177,5.177,0,0,0-.785-1.731l1.832-3.694-2.237-1.292L118.682,93.3a5.169,5.169,0,0,0-1.891.185l-.319-3.173-3.164,1.827-.319,3.541a15.64,15.64,0,0,0-1.891,2l-2.283-.8-2.237,3.875,1.832,1.578a15.642,15.642,0,0,0-.785,2.638l-2.907,2.046v3.653l2.907-1.31a5.18,5.18,0,0,0,.785,1.731l-1.832,3.694,2.237,1.292,2.283-3.433a5.179,5.179,0,0,0,1.891-.185l.319,3.173,3.164-1.827.319-3.541a15.581,15.581,0,0,0,1.891-2l2.283.8,2.237-3.875-1.832-1.578a15.653,15.653,0,0,0,.785-2.638Zm-10.173,9.121c-2.427,1.4-4.4.265-4.4-2.538a9.716,9.716,0,0,1,4.4-7.613c2.427-1.4,4.4-.265,4.4,2.538A9.714,9.714,0,0,1,114.89,108.045Z" transform="translate(-102.172 -88.398)"/>
          <path id="Path_489" data-name="Path 489" class="cls-7" d="M110.961,104.8l2.544,1.467-2.283-.8L108.678,104Z" transform="translate(-104.579 -96.99)"/>
          <rect id="Rectangle_432" data-name="Rectangle 432" class="cls-1" width="4.474" height="2.937" transform="translate(1.862 10.89) rotate(-60.025)"/>
          <path id="Path_490" data-name="Path 490" class="cls-5" d="M102.975,113.882l2.544,1.467,1.832,1.578-2.544-1.467Z" transform="translate(-101.114 -102.992)"/>
          <path id="Path_491" data-name="Path 491" class="cls-1" d="M101.139,124.628l2.544,1.467-2.908,2.047-2.544-1.467Z" transform="translate(-98.231 -109.523)"/>
          <path id="Path_492" data-name="Path 492" class="cls-5" d="M98.231,129.845l2.544,1.467v3.653L98.231,133.5Z" transform="translate(-98.231 -112.693)"/>
          <path id="Path_493" data-name="Path 493" class="cls-1" d="M125.838,88.727l-2.544-1.467-3.164,1.827,2.544,1.467Z" transform="translate(-111.539 -86.814)"/>
        </g>
      </g>
    </g>
    <g id="Device" transform="translate(947.113 244.293)">
      <g id="Group_364" data-name="Group 364" transform="translate(0 0)">
        <path id="Path_494" data-name="Path 494" class="cls-5" d="M210.037,320.536l36.888-21.3a.415.415,0,0,0,0-.785l-3.412-1.975a1.5,1.5,0,0,0-1.359,0l-36.9,21.3a.414.414,0,0,0,0,.785l3.422,1.976A1.505,1.505,0,0,0,210.037,320.536Z" transform="translate(-204.974 -213.855)"/>
        <path id="Path_495" data-name="Path 495" class="cls-8" d="M255.161,93.837l-33.256,19.2a3.756,3.756,0,0,0-1.7,2.942v78.883c0,1.084.761,1.523,1.7.981l33.256-19.2a3.756,3.756,0,0,0,1.7-2.942V94.817C256.86,93.734,256.1,93.295,255.161,93.837Z" transform="translate(-214.231 -90.67)"/>
        <path id="Path_496" data-name="Path 496" class="cls-9" d="M215.271,108.492l33.256-19.2c.839-.484,1.534-.183,1.672.661a3.8,3.8,0,0,0-1.672-2.622l-1.383-.8a3.755,3.755,0,0,0-3.4,0l-33.255,19.2a3.473,3.473,0,0,0-1.2,1.268l4.781,2.76A3.474,3.474,0,0,1,215.271,108.492Z" transform="translate(-207.596 -86.125)"/>
        <path id="Path_497" data-name="Path 497" class="cls-10" d="M208.021,219.89a3.755,3.755,0,0,0,1.7,2.942l1.383.8a3.8,3.8,0,0,0,3.109.137c-.8.3-1.41-.148-1.41-1.117V143.767a3.472,3.472,0,0,1,.5-1.674l-4.781-2.76a3.471,3.471,0,0,0-.5,1.674Z" transform="translate(-206.826 -118.459)"/>
        <path id="Path_498" data-name="Path 498" class="cls-4" d="M225.289,141.613l31.427-18.145c.563-.325,1.019-.062,1.019.588v58.371a2.253,2.253,0,0,1-1.019,1.765l-31.427,18.145c-.563.325-1.019.061-1.019-.588V143.378A2.253,2.253,0,0,1,225.289,141.613Z" transform="translate(-216.699 -108.733)"/>
        <path id="Path_499" data-name="Path 499" class="cls-9" d="M265.995,126.167a1.322,1.322,0,0,0-.6,1.035c0,.381.268.535.6.345a1.319,1.319,0,0,0,.6-1.035C266.592,126.131,266.325,125.977,265.995,126.167Z" transform="translate(-241.692 -110.409)"/>
        <path id="Path_500" data-name="Path 500" class="cls-9" d="M263.268,308.239a5.216,5.216,0,0,0-2.36,4.087c0,1.5,1.057,2.115,2.36,1.362a5.215,5.215,0,0,0,2.359-4.087C265.627,308.1,264.571,307.487,263.268,308.239Z" transform="translate(-238.964 -220.904)"/>
        <g id="Group_355" data-name="Group 355" transform="translate(17.463 15.5)">
          <path id="Path_501" data-name="Path 501" class="cls-9" d="M250.682,141.518a2.643,2.643,0,0,0-1.2,2.07c0,.762.535,1.071,1.2.69a2.642,2.642,0,0,0,1.2-2.07C251.877,141.446,251.342,141.137,250.682,141.518Z" transform="translate(-249.487 -135.187)"/>
          <path id="Path_502" data-name="Path 502" class="cls-9" d="M259.982,131.706c0,.508.381.7.849.43l7.863-4.54a1.821,1.821,0,0,0,.849-1.41c0-.508-.38-.7-.85-.43l-7.863,4.54A1.823,1.823,0,0,0,259.982,131.706Z" transform="translate(-255.865 -125.633)"/>
        </g>
        <path id="Path_503" data-name="Path 503" class="cls-9" d="M213.282,176.17a2.113,2.113,0,0,1,.956,1.656c0,.61-.428.857-.956.552a2.114,2.114,0,0,1-.956-1.656C212.326,176.112,212.754,175.865,213.282,176.17Z" transform="translate(-209.442 -140.764)"/>
        <path id="Path_504" data-name="Path 504" class="cls-9" d="M213.282,194.946a2.115,2.115,0,0,1,.956,1.656c0,.61-.428.857-.956.552a2.113,2.113,0,0,1-.956-1.656C212.326,194.889,212.754,194.642,213.282,194.946Z" transform="translate(-209.442 -152.175)"/>
        <path id="Path_505" data-name="Path 505" class="cls-8" d="M212.529,176.546a2.114,2.114,0,0,1,.956,1.656c0,.61-.428.857-.956.552a2.113,2.113,0,0,1-.956-1.656C211.573,176.488,212,176.241,212.529,176.546Z" transform="translate(-208.984 -140.993)"/>
        <path id="Path_506" data-name="Path 506" class="cls-8" d="M212.529,195.323a2.114,2.114,0,0,1,.956,1.656c0,.61-.428.857-.956.552a2.114,2.114,0,0,1-.956-1.656C211.573,195.265,212,195.018,212.529,195.323Z" transform="translate(-208.984 -152.403)"/>
        <g id="Group_356" data-name="Group 356" transform="translate(13.749 16.245)">
          <path id="Path_507" data-name="Path 507" class="cls-11" d="M273.984,128.762c0-.65-.456-.914-1.019-.588l-3.762,2.171-27.665,15.973a2.253,2.253,0,0,0-1.019,1.765v58.371c0,.65.457.913,1.019.588l27.675-15.979,3.752-2.166a2.255,2.255,0,0,0,1.019-1.765Z" transform="translate(-240.323 -127.837)"/>
          <path id="Path_508" data-name="Path 508" class="cls-12" d="M240.779,210.694a.72.72,0,0,1-.363-.095.9.9,0,0,1-.4-.83V151.4a2.436,2.436,0,0,1,1.117-1.935L268.8,133.491l.2.34L241.332,149.8a2.07,2.07,0,0,0-.921,1.6V209.77a.432.432,0,0,0,.725.419l27.675-15.978.2.339-27.675,15.978A1.115,1.115,0,0,1,240.779,210.694Z" transform="translate(-240.019 -131.153)"/>
          <path id="Path_509" data-name="Path 509" class="cls-12" d="M313.591,190.929l-.2-.339,3.752-2.166a2.071,2.071,0,0,0,.921-1.6V128.457a.432.432,0,0,0-.725-.419l-3.762,2.171-.2-.34,3.762-2.171a.813.813,0,0,1,1.313.758v58.371a2.436,2.436,0,0,1-1.117,1.935Z" transform="translate(-284.602 -127.532)"/>
        </g>
        <g id="Group_357" data-name="Group 357" transform="translate(24.303 29.863)">
          <path id="Path_510" data-name="Path 510" class="cls-2" d="M273.3,163.115c3.521-2.033,6.374-.385,6.374,3.68a14.089,14.089,0,0,1-6.374,11.041c-3.521,2.033-6.374.385-6.374-3.68A14.089,14.089,0,0,1,273.3,163.115Z" transform="translate(-266.922 -162.245)"/>
          <path id="Path_511" data-name="Path 511" class="cls-2" d="M279.966,172.181c1.142-.659,2.068-.125,2.068,1.194a4.57,4.57,0,0,1-2.068,3.582c-1.142.659-2.068.125-2.068-1.194A4.571,4.571,0,0,1,279.966,172.181Z" transform="translate(-273.592 -168.112)"/>
        </g>
        <path id="Path_512" data-name="Path 512" class="cls-2" d="M281.1,186.787c0-2.167-1.521-3.045-3.4-1.962l-1.173.677a7.51,7.51,0,0,0-3.4,5.885v.583a4.868,4.868,0,0,0,3.937-.694,12.564,12.564,0,0,0,4.031-3.987Z" transform="translate(-246.394 -145.821)"/>
        <g id="Group_358" data-name="Group 358" transform="translate(26.74 33.651)">
          <path id="Path_513" data-name="Path 513" class="cls-13" d="M279.966,172.181c1.142-.659,2.068-.125,2.068,1.194a4.57,4.57,0,0,1-2.068,3.582c-1.142.659-2.068.125-2.068-1.194A4.571,4.571,0,0,1,279.966,172.181Z" transform="translate(-276.029 -171.899)"/>
          <path id="Path_514" data-name="Path 514" class="cls-13" d="M281.1,186.787c0-2.167-1.521-3.045-3.4-1.962l-1.173.677a7.51,7.51,0,0,0-3.4,5.885v.583a4.868,4.868,0,0,0,3.937-.694,12.564,12.564,0,0,0,4.031-3.987Z" transform="translate(-273.134 -179.472)"/>
        </g>
        <g id="Group_359" data-name="Group 359" transform="translate(17.664 49.591)">
          <path id="Path_515" data-name="Path 515" class="cls-2" d="M250.678,217.36l8.2-4.736c.375-.217.68-.041.68.392v.271a1.5,1.5,0,0,1-.68,1.177l-8.2,4.736c-.375.217-.68.041-.68-.392v-.271A1.5,1.5,0,0,1,250.678,217.36Z" transform="translate(-249.999 -212.531)"/>
          <path id="Path_516" data-name="Path 516" class="cls-14" d="M250.678,217.36l8.2-4.736c.375-.217.68-.041.68.392v.271a1.5,1.5,0,0,1-.68,1.177l-8.2,4.736c-.375.217-.68.041-.68-.392v-.271A1.5,1.5,0,0,1,250.678,217.36Z" transform="translate(-249.999 -212.531)"/>
        </g>
        <g id="Group_360" data-name="Group 360" transform="translate(17.664 45.761)">
          <path id="Path_517" data-name="Path 517" class="cls-2" d="M250.34,217.144l24.818-14.329c.188-.108.34-.021.34.2v2.9a.751.751,0,0,1-.34.588L250.34,220.824c-.188.108-.34.02-.34-.2v-2.9A.751.751,0,0,1,250.34,217.144Z" transform="translate(-250 -202.769)"/>
          <path id="Path_518" data-name="Path 518" class="cls-15" d="M250.34,217.144l24.818-14.329c.188-.108.34-.021.34.2v2.9a.751.751,0,0,1-.34.588L250.34,220.824c-.188.108-.34.02-.34-.2v-2.9A.751.751,0,0,1,250.34,217.144Z" transform="translate(-250 -202.769)"/>
        </g>
        <g id="Group_361" data-name="Group 361" transform="translate(17.664 62.472)">
          <path id="Path_519" data-name="Path 519" class="cls-2" d="M250.678,250.193l8.2-4.736c.375-.217.68-.041.68.392v.271a1.5,1.5,0,0,1-.68,1.177l-8.2,4.736c-.375.217-.68.041-.68-.392v-.271A1.5,1.5,0,0,1,250.678,250.193Z" transform="translate(-249.999 -245.364)"/>
          <path id="Path_520" data-name="Path 520" class="cls-14" d="M250.678,250.193l8.2-4.736c.375-.217.68-.041.68.392v.271a1.5,1.5,0,0,1-.68,1.177l-8.2,4.736c-.375.217-.68.041-.68-.392v-.271A1.5,1.5,0,0,1,250.678,250.193Z" transform="translate(-249.999 -245.364)"/>
        </g>
        <g id="Group_362" data-name="Group 362" transform="translate(17.664 58.642)">
          <path id="Path_521" data-name="Path 521" class="cls-2" d="M250.34,249.977l24.818-14.329c.188-.108.34-.021.34.2v2.9a.751.751,0,0,1-.34.588L250.34,253.657c-.188.108-.34.021-.34-.2v-2.9A.752.752,0,0,1,250.34,249.977Z" transform="translate(-250 -235.602)"/>
          <path id="Path_522" data-name="Path 522" class="cls-15" d="M250.34,249.977l24.818-14.329c.188-.108.34-.021.34.2v2.9a.751.751,0,0,1-.34.588L250.34,253.657c-.188.108-.34.021-.34-.2v-2.9A.752.752,0,0,1,250.34,249.977Z" transform="translate(-250 -235.602)"/>
        </g>
        <g id="Group_363" data-name="Group 363" transform="translate(27.226 68.913)">
          <path id="Path_523" data-name="Path 523" class="cls-2" d="M275.052,267.53l9.8-5.656c.375-.217.68-.041.68.392V265.3a1.5,1.5,0,0,1-.68,1.177l-9.8,5.656c-.375.217-.68.041-.68-.392v-3.031A1.5,1.5,0,0,1,275.052,267.53Z" transform="translate(-274.372 -261.781)"/>
          <path id="Path_524" data-name="Path 524" class="cls-14" d="M275.052,267.53l9.8-5.656c.375-.217.68-.041.68.392V265.3a1.5,1.5,0,0,1-.68,1.177l-9.8,5.656c-.375.217-.68.041-.68-.392v-3.031A1.5,1.5,0,0,1,275.052,267.53Z" transform="translate(-274.372 -261.781)"/>
        </g>
      </g>
    </g>
    <g id="Character" transform="translate(988.259 286.027)">
      <g id="Group_369" data-name="Group 369" transform="translate(0 0)">
        <path id="Path_525" data-name="Path 525" class="cls-16" d="M319.839,223.29s-4.82-6.649-5.113-7.44a4.269,4.269,0,0,1,.07-1.9c.055-.412.135-1.33.2-1.585.12-.446-.458-.354-.782.051s-.439,1.225-.6,1.359-1.453-1.738-2.125-2.6-1.092-1.387-1.5-1.067c-.294.231-.075.736.412,1.473a14.549,14.549,0,0,1,.776,1.237c.073.158-.327.171-.543.5-.169.26-.011.68-.235.88a.738.738,0,0,0-.187.967,6.308,6.308,0,0,0,1.659,1.757,3.954,3.954,0,0,1,1.437,1.354c.425.679,4.265,7.613,4.523,8.028s.758,1.264,1.516,1.288,6.955-5.312,7.274-5.578c1.021-.852,1.344-.977,1.52-.209.055.24.091.514.13.823.122.971.784,4.448.784,4.448s3.135,1.519,5.715.77a7.067,7.067,0,0,0,3.447-1.827l-1.291-2.1a43.571,43.571,0,0,0,2.485-6.843l-8.081-1.3c-.166-.036-.431-.1-.769-.191a2.507,2.507,0,0,0-2.419.239c-2.781,2.419-8.3,7.471-8.3,7.471" transform="translate(-309.855 -203.144)"/>
        <path id="Path_526" data-name="Path 526" class="cls-9" d="M373.9,347.7l-1.449,2.013a4.841,4.841,0,0,0,2.1.448c1.3.049,1.653-.376,1.7-.478.219-.47-.122-1.317-.216-2.044Z" transform="translate(-347.893 -286.775)"/>
        <path id="Path_527" data-name="Path 527" class="cls-9" d="M365.054,350.012s-1.755-.112-2.969-.265-2.175.439-1.889.94a3.5,3.5,0,0,0,1.993,1.265c.892.3,1.96.518,2.891.8.953.285,1.564.612,2.1.426.6-.208.861-.448.809-.887a19,19,0,0,0-.488-1.851Z" transform="translate(-340.415 -288.043)"/>
        <path id="Path_528" data-name="Path 528" class="cls-17" d="M378.415,342.306s-.219,1.829-.236,2.221-1.785.518-2.12-.2L376,342.093Z" transform="translate(-350.053 -283.407)"/>
        <path id="Path_529" data-name="Path 529" class="cls-16" d="M369.734,345.5l.633,2.774s.06.339-1.386.554a9.052,9.052,0,0,1-4.1-.953c-.386-.2-.432-.59.987-.512s1.922.082,1.922.082l-.461-1.23Z" transform="translate(-343.154 -285.48)"/>
        <path id="Path_530" data-name="Path 530" class="cls-17" d="M382.409,227.59l1-.275s2.093,6.617,2.324,7.254a2.284,2.284,0,0,1,.042,2.106c-.537.939-3.366,4.717-3.366,4.717l-1.8-1.757,2.037-3.733-1.8-3.651Z" transform="translate(-352.853 -213.658)"/>
        <path id="Path_531" data-name="Path 531" class="cls-9" d="M358.44,197.836a2.949,2.949,0,0,1,.042-2.852c.994-1.85,3.217-2.752,5.862-2.406a4.974,4.974,0,0,1,3.456,2.7c.869,1.682.951,5.073,1.166,6.355Z" transform="translate(-339.171 -192.505)"/>
        <path id="Path_532" data-name="Path 532" class="cls-16" d="M357.995,207.939s-.628,1.2-.519,1.305a1.614,1.614,0,0,0,.528.2Z" transform="translate(-338.785 -201.884)"/>
        <path id="Path_533" data-name="Path 533" class="cls-16" d="M360.712,197.562c-.684.446-1.86,1.261-1.912,3.949-.053,2.76.337,3.65.745,3.97a5.5,5.5,0,0,0,5.976-2.7c.842-1.758.672-4.333-.581-5.08A4.376,4.376,0,0,0,360.712,197.562Z" transform="translate(-339.595 -195.29)"/>
        <g id="Group_365" data-name="Group 365" transform="translate(24.437 22.88)">
          <path id="Path_534" data-name="Path 534" class="cls-2" d="M376.069,250.824c1.21,1.883,2.36,3.541,2.605,5.657.518,4.468-1.182,9.577-1.543,12.881a5.982,5.982,0,0,1,1.141,3.228c0,1.365-2.2,14.253-2.2,14.253s-1.6.488-2.411-.213l-1.514-23.709.8-2.886Z" transform="translate(-372.145 -250.824)"/>
          <path id="Path_535" data-name="Path 535" class="cls-3" d="M376.069,250.824c1.21,1.883,2.36,3.541,2.605,5.657.518,4.468-1.182,9.577-1.543,12.881a5.982,5.982,0,0,1,1.141,3.228c0,1.365-2.2,14.253-2.2,14.253s-1.6.488-2.411-.213l-1.514-23.709.8-2.886Z" transform="translate(-372.145 -250.824)"/>
        </g>
        <g id="Group_366" data-name="Group 366" transform="translate(24.437 30.377)">
          <path id="Path_536" data-name="Path 536" class="cls-2" d="M372.145,274.534l.8-2.886a19.33,19.33,0,0,0,4.32-1.714,5.812,5.812,0,0,1-3.16,2.3l-1.221,3.711-.1,8.491Z" transform="translate(-372.145 -269.934)"/>
          <path id="Path_537" data-name="Path 537" class="cls-18" d="M372.145,274.534l.8-2.886a19.33,19.33,0,0,0,4.32-1.714,5.812,5.812,0,0,1-3.16,2.3l-1.221,3.711-.1,8.491Z" transform="translate(-372.145 -269.934)"/>
        </g>
        <g id="Group_367" data-name="Group 367" transform="translate(16.766 22.88)">
          <path id="Path_538" data-name="Path 538" class="cls-2" d="M364.186,250.824c.648,1.057,2.195,2.863,1.866,4.6-.4,2.1-1.53,3.582-4.993,4.612l-3.248,11.76a9.692,9.692,0,0,1,2.208,3.088c.517,1.5,2.384,13.087,2.384,13.087s-.577.943-2.4.714c0,0-6.359-14.525-6.809-15.46a4.7,4.7,0,0,1-.538-3.158c.2-1.523,2.369-18.184,2.369-18.184Z" transform="translate(-352.591 -250.824)"/>
          <path id="Path_539" data-name="Path 539" class="cls-3" d="M364.186,250.824c.648,1.057,2.195,2.863,1.866,4.6-.4,2.1-1.53,3.582-4.993,4.612l-3.248,11.76a9.692,9.692,0,0,1,2.208,3.088c.517,1.5,2.384,13.087,2.384,13.087s-.577.943-2.4.714c0,0-6.359-14.525-6.809-15.46a4.7,4.7,0,0,1-.538-3.158c.2-1.523,2.369-18.184,2.369-18.184Z" transform="translate(-352.591 -250.824)"/>
        </g>
        <g id="Group_368" data-name="Group 368" transform="translate(18.285 12.435)">
          <path id="Path_540" data-name="Path 540" class="cls-2" d="M367.734,225.7l-8.081-1.3c-.166-.036-.433-.1-.77-.192h0s-.344,5.067-2.417,6.23h0c.049.242.091.514.13.823.122.971.784,4.448.784,4.448s3.135,1.519,5.715.77a7.067,7.067,0,0,0,3.447-1.827l-1.291-2.1A43.568,43.568,0,0,0,367.734,225.7Z" transform="translate(-356.464 -224.201)"/>
          <path id="Path_541" data-name="Path 541" class="cls-13" d="M367.734,225.7l-8.081-1.3c-.166-.036-.433-.1-.77-.192h0s-.344,5.067-2.417,6.23h0c.049.242.091.514.13.823.122.971.784,4.448.784,4.448s3.135,1.519,5.715.77a7.067,7.067,0,0,0,3.447-1.827l-1.291-2.1A43.568,43.568,0,0,0,367.734,225.7Z" transform="translate(-356.464 -224.201)"/>
        </g>
        <path id="Path_542" data-name="Path 542" class="cls-2" d="M374.551,243.351a22.66,22.66,0,0,1-3.36,1.661,6.294,6.294,0,0,0,3.008-.833Z" transform="translate(-347.128 -223.403)"/>
        <path id="Path_543" data-name="Path 543" class="cls-9" d="M363.048,196.6a7.325,7.325,0,0,0,.536,4.048s.342-1.016,1.205-.822.905,1.323.3,1.963a1.257,1.257,0,0,1-1.275.408s-.136,1.844-.208,3.39c-.07,1.49-.486,4.915,1.254,6.292s6.1,1.842,8.144-1.014c1.137-1.59-.373-4.4-1.076-7.549-.646-2.9-1.01-7.189-4.083-7.877A5.133,5.133,0,0,0,363.048,196.6Z" transform="translate(-342.132 -194.196)"/>
      </g>
    </g>
    <g id="Cloud" transform="translate(1006.211 250.873)">
      <path id="Path_544" data-name="Path 544" class="cls-6" d="M369.85,105.615l-.648.374a3.354,3.354,0,0,0,.088-.7c0-1.312-.921-1.844-2.058-1.188a3.691,3.691,0,0,0-.915.787v-.009c0-1.767-1.24-2.483-2.77-1.6a6.124,6.124,0,0,0-2.771,4.8c0,.09.005.175.012.26a1.689,1.689,0,0,0-1.126.262,4.55,4.55,0,0,0-2.058,3.565,2.3,2.3,0,0,0,.052.5l-.345.2a3.309,3.309,0,0,0-1.7,2.361c0,.762.761.941,1.7.4l12.538-7.239a3.308,3.308,0,0,0,1.7-2.361C371.549,105.252,370.789,105.073,369.85,105.615Z" transform="translate(-355.613 -102.896)"/>
    </g>
    <g id="Shadow" transform="translate(1004.618 364.39)">
      <ellipse id="Ellipse_13" data-name="Ellipse 13" class="cls-6" cx="9.015" cy="4.297" rx="9.015" ry="4.297" transform="translate(0 0)"/>
    </g>
  </g>
</svg>
