<svg xmlns="http://www.w3.org/2000/svg" width="1920.157" height="1080" viewBox="0 0 1920.157 1080">
  <defs>
    <style>
      .cls-1, .cls-14 {
        fill: #fff;
      }

      .cls-1 {
        stroke: #707070;
      }

      .cls-2 {
        fill: #e6f1fc;
      }

      .cls-3 {
        fill: #cae3f8;
      }

      .cls-4, .cls-5 {
        fill: #f6c19d;
      }

      .cls-5 {
        opacity: 0.2;
        mix-blend-mode: multiply;
        isolation: isolate;
      }

      .cls-6 {
        fill: #9c75c4;
      }

      .cls-7 {
        fill: #ac8cce;
      }

      .cls-8 {
        fill: #5b99e6;
      }

      .cls-9 {
        fill: #2671d1;
      }

      .cls-10 {
        fill: #5cb30b;
      }

      .cls-11 {
        fill: #92cc5c;
      }

      .cls-12 {
        fill: #141414;
      }

      .cls-13 {
        fill: #f19a5e;
      }

      .cls-15, .cls-16 {
        fill: #dae7f7;
      }

      .cls-16 {
        opacity: 0.3;
      }

      .cls-17 {
        fill: #d0e1f5;
      }

      .cls-18 {
        fill: #f3a875;
      }

      .cls-19 {
        fill: #9369bf;
      }

      .cls-20 {
        fill: #085fcc;
      }

      .cls-21 {
        fill: #88b2e7;
      }

      .cls-22 {
        fill: #669cdf;
      }

      .cls-23 {
        stroke: none;
      }

      .cls-24 {
        fill: none;
      }
    </style>
  </defs>
  <g id="Group_515" data-name="Group 515" transform="translate(0.157)">
    <g id="Rectangle_526" data-name="Rectangle 526" class="cls-1">
      <rect class="cls-23" width="1920" height="1080"/>
      <rect class="cls-24" x="0.5" y="0.5" width="1919" height="1079"/>
    </g>
    <g id="Group_514" data-name="Group 514">
      <g id="BACKGROUND" transform="translate(-0.157 326.527)">
        <path id="Path_10" data-name="Path 10" class="cls-2" d="M1920.157,190.539c-95.7-43.105-222.413-73.965-358.836-80.294C1426.771,104,1291.689,121.454,1169.137,146.5s-236.167,57.672-356.7,84.523c-81.43,18.139-170.146,33.95-261.29,30.891-98.268-3.3-186.708-28.107-284.263-34.228C171.608,221.706,72.544,236.156,0,263.569V522l.594.035c441.959,25.337,889.86,17.877,1335.433,12.327,183.17-2.281,369.771-4.49,542.948-30.646,13.781-2.082,27.635-4.389,41.181-7Z" transform="translate(0 208)"/>
        <path id="Path_11" data-name="Path 11" class="cls-3" d="M339.786,415.4c-8.169-4.238-16.276-9.014-22.35-15.928s-9.9-16.343-8.156-25.38,10.1-16.946,19.276-16.3c7.738.541,15.012,6.608,22.5,4.577,6.687-1.815,10.15-9.6,9.82-16.523s-3.429-13.354-5.622-19.926a78.862,78.862,0,0,1-1.942-42.786c1.2-5.094,3.011-10.235,6.6-14.048s9.3-6,14.214-4.2c3.817,1.4,6.45,4.826,9.547,7.463s7.671,4.56,11.133,2.425c2.255-1.39,3.3-4.074,4.119-6.594,4.62-14.26,6.591-29.4,12.7-43.087a77.8,77.8,0,0,1,44.5-41.106c11.512-4.077,27.068-3.888,32.861,6.862,3.064,5.686,2.3,12.675.479,18.87-5.293,17.954-18.444,32.569-25.34,49.971-2.536,6.4-3.714,14.835,1.618,19.19,4.6,3.759,11.314,2.259,17.255,2.182,9.549-.124,19.211,4.379,24.664,12.218s6.2,18.9,1.244,27.056c-6.911,11.372-21.586,14.493-34.156,18.857S448.5,353.613,450.559,366.76c1.668,10.661,13.441,18.4,12.876,29.175-.353,6.75-5.57,12.181-10.888,16.352a97.54,97.54,0,0,1-53.7,20.318C377.313,433.966,358.6,425.163,339.786,415.4Z" transform="translate(661.152 231.599)"/>
        <path id="Path_12" data-name="Path 12" class="cls-3" d="M554.412,440.928c-4.756-10.349-7.669-23.637-1.948-33.315,4.431-7.5,12.608-10.426,20.041-13.394,7.534-3.01,15.089-6.687,20.894-12.99s9.6-15.732,7.995-24.737c-.991-5.547-3.875-10.381-6.969-14.777-9.665-13.733-22.154-25.121-29.086-40.9-3.941-8.968-5.483-20.988.565-28.23,5.073-6.075,13.418-6.361,19.669-10.74,11.9-8.335,12.482-27.439,14.023-43.4,1.666-17.261,6.289-34.63,15.968-47.937s25.033-21.889,39.894-19.061c4.458.848,8.953,2.817,11.941,6.726,6.728,8.8,3.178,22.324.446,33.627a166.028,166.028,0,0,0-3.636,56.478c.515,4.782,1.3,9.711,3.7,13.654,7,11.492,22.061,8.357,34.008,5.637,8.383-1.908,17.21-2.944,25.361.014s15.469,10.738,16.448,20.527c1.58,15.791-12.242,26.973-22.975,36.948a123.933,123.933,0,0,0-19.977,24.053c-4.194,6.565-7.923,13.805-9.093,21.846s.639,17.04,6.012,22.34c6.8,6.706,17.69,6.372,23.564,14.15,6.159,8.154,3.62,20.913-.876,30.4-14.87,31.385-45.875,48.6-76.492,54.313C608.911,498.7,571.019,477.069,554.412,440.928Z" transform="translate(1170.157 208)"/>
        <path id="Path_13" data-name="Path 13" class="cls-3" d="M178.781,381.769c-5.159-5.865-9.462-14.234-5.969-21.22,4.706-9.411,18.844-8.355,26.946-15.068a4.052,4.052,0,0,0,1.681-2.516,4.141,4.141,0,0,0-1.218-2.884c-5.76-7.018-16.134-10.147-19.47-18.591-1.48-3.746-1.258-7.957-.466-11.906a44.426,44.426,0,0,1,21.249-29.432c6.25-3.565,13.637-5.566,20.711-4.249s13.65,6.385,15.537,13.328c4.054,14.919-13.475,27.973-13.2,43.431.244,13.853,14.13,23,26.576,29.083s26.732,13.675,29.118,27.323c4.368,24.991-24.917,28.618-41.909,24.073C216.481,407.288,194.165,399.258,178.781,381.769Z" transform="translate(313.241 180.087)"/>
        <path id="Path_14" data-name="Path 14" class="cls-3" d="M70.054,389.592c-5.773-5.738-11.528-12.382-12.367-20.479a19.92,19.92,0,0,1,13.375-20.394c2.779-.88,5.912-1.211,8.041-3.2,5.119-4.789.082-12.968-3.933-18.714-15.226-21.784-11.96-54.5,7.27-72.849,3.292-3.14,7.709-6.045,12.1-4.849,2.367.645,4.262,2.39,5.941,4.178a59.921,59.921,0,0,1,16.059,39.237c.115,5.006-.4,10.1.838,14.957s4.784,9.577,9.745,10.26c2.5.344,5.036-.37,7.559-.247,6.214.3,11.308,5.919,12.385,12.047s-1.2,12.447-4.737,17.563c-4.145,5.992-10.343,11.718-9.748,18.979.62,7.565,8.2,12.21,13.336,17.8,16.756,18.25,2.611,43.513-21.1,42.97C105.3,426.4,82.878,402.338,70.054,389.592Z" transform="translate(0 237.858)"/>
        <rect id="Rectangle_93" data-name="Rectangle 93" class="cls-3" width="1920.157" height="101.315" transform="translate(0 652.158)"/>
      </g>
    </g>
    <g id="Group_445" data-name="Group 445" transform="translate(-250.865 66.455)">
      <path id="Path_791" data-name="Path 791" class="cls-4" d="M471.144,1265.965H642.076l14.18-38.175a54,54,0,0,1,28.444-30.341c12.38-5.6,29.04-15.77,45.192-33.9A314,314,0,0,0,778,1090.427l-105.933-.519s9.534-59.255-43.116-137.955a44.548,44.548,0,0,1-7.321-28.63l4.991-57.4s35.778-39.982,13.827-89.586c0,0-20.991-29.063-29.318-18.423,0,0-63.4,150.986-69.178,173.436s-13.47,36.562-5.773,107.119a427.614,427.614,0,0,1,2.744,47.064,167.016,167.016,0,0,1-16.055,71.085Z" transform="translate(-93.557 -252.42)"/>
      <path id="Path_792" data-name="Path 792" class="cls-5" d="M630.57,1633.428c-15.866-17.615-37.906-14.834-61.084-22.869s-30.612-65.964-30.612-65.964l0-.008c.037,2.186.055,4.31.05,6.354a167.017,167.017,0,0,1-16.055,71.086l-51.723,109.344H642.076l14.18-38.175a54,54,0,0,1,28.444-30.341,133.04,133.04,0,0,0,37.957-26.321C675.577,1656.323,646.436,1651.043,630.57,1633.428Z" transform="translate(-93.557 -717.826)"/>
      <g id="Group_421" data-name="Group 421" transform="translate(461.429 327.642)">
        <path id="Path_793" data-name="Path 793" class="cls-6" d="M675.566,332.251c39.3,62,136.152,117.261,136.152,117.261s-76.993-6.253-115.2-56.011l13.855-11.474s-11.011,1.065-20.236,2.131C681.637,370.061,676.133,352.968,675.566,332.251Z" transform="translate(-675.566 -330.361)"/>
        <path id="Path_794" data-name="Path 794" class="cls-7" d="M778.675,355.176c-5.976,2.711-14.816,6.842-14.816,6.842l8.517-12.237a99.277,99.277,0,0,0-31.655-16.229c-4.386,6.385-9.54,13.522-9.54,13.522l-1.023-16.29a151.08,151.08,0,0,0-54.593-1.251c39.3,62,136.152,117.261,136.152,117.261C811.28,401.236,797.408,372.79,778.675,355.176Z" transform="translate(-675.566 -327.642)"/>
      </g>
      <g id="Group_422" data-name="Group 422" transform="translate(447 404.259)">
        <path id="Path_795" data-name="Path 795" class="cls-8" d="M640.386,527.21a91.266,91.266,0,0,1,34.682-11.947c3.434,3.919,7.646,8.528,7.646,8.528l.234-9.228c43.8-2.1,80.729,25.487,80.729,25.487-25.065,15.248-46.635,19.524-64.407,18.258-1.12-3.223-2.713-8.031-2.713-8.031l-2.974,7.427a80.816,80.816,0,0,1-22.641-6.72c1.577-3.853,3.23-8.256,3.23-8.256l-9.339,5.118C648.8,538.774,640.386,527.21,640.386,527.21Z" transform="translate(-640.386 -514.448)"/>
        <path id="Path_796" data-name="Path 796" class="cls-9" d="M699.27,575.042c-1.12-3.223-2.713-8.031-2.713-8.031l-2.974,7.427a80.808,80.808,0,0,1-22.641-6.72c1.577-3.853,3.23-8.256,3.23-8.256l-9.339,5.118c-16.032-9.073-24.448-20.637-24.448-20.637,50.96-5.824,123.291,12.84,123.291,12.84C738.612,572.031,717.043,576.307,699.27,575.042Z" transform="translate(-640.386 -531.182)"/>
      </g>
      <g id="Group_423" data-name="Group 423" transform="translate(857.56 393.123)">
        <path id="Path_797" data-name="Path 797" class="cls-10" d="M1686.649,504.824l-3.7,27.847,19.78-14.445,60.54-30.928-46.827,4.287s-23.856,5.795-25.147,6.964S1686.649,504.824,1686.649,504.824Z" transform="translate(-1665.913 -487.298)"/>
        <path id="Path_798" data-name="Path 798" class="cls-11" d="M1641.406,488.008l97.36-.711-76.625,17.526Z" transform="translate(-1641.406 -487.298)"/>
        <path id="Path_799" data-name="Path 799" class="cls-11" d="M1731.585,532.839l-25.511-20.491,70.837-25.05Z" transform="translate(-1679.551 -487.298)"/>
      </g>
      <g id="Group_427" data-name="Group 427" transform="translate(788.457 421.72)">
        <g id="Group_424" data-name="Group 424" transform="translate(79.19)">
          <path id="Path_800" data-name="Path 800" class="cls-12" d="M1666.611,560.459a29.451,29.451,0,0,1,6.5-1.707l-.183-1.729a30.826,30.826,0,0,0-6.928,1.809Z" transform="translate(-1665.999 -557.023)"/>
        </g>
        <g id="Group_425" data-name="Group 425" transform="translate(18.449 8.848)">
          <path id="Path_801" data-name="Path 801" class="cls-12" d="M1517.9,728.275a109.658,109.658,0,0,0,11.272-6.541l.964,1.447a111.383,111.383,0,0,1-11.451,6.645Zm21.531-14.523a70.74,70.74,0,0,0,8.749-9.566l1.387,1.046a72.389,72.389,0,0,1-8.964,9.8ZM1554.9,693.12c.852-1.789,1.637-3.654,2.331-5.543.787-2.138,1.483-4.374,2.069-6.644l1.683.435c-.6,2.326-1.313,4.617-2.12,6.809-.713,1.939-1.518,3.853-2.393,5.69Zm7.021-38.023,1.739-.039a112.516,112.516,0,0,1-.429,13.234l-1.73-.163A110.619,110.619,0,0,0,1561.922,655.1Zm-2.473-26.06,1.72-.246c.729,5.087,1.248,9.244,1.636,13.082l-1.73.175C1560.691,638.234,1560.174,634.1,1559.449,629.037Zm-1.946-13.091a63.977,63.977,0,0,1-.657-13.2l1.735.108a62.305,62.305,0,0,0,.641,12.831l.015.1-1.722.237Zm2.185-26.26a31.558,31.558,0,0,1,7.547-11.089l1.194,1.263a29.849,29.849,0,0,0-7.132,10.483Z" transform="translate(-1517.902 -578.597)"/>
        </g>
        <g id="Group_426" data-name="Group 426" transform="translate(0 163.865)">
          <path id="Path_802" data-name="Path 802" class="cls-12" d="M1473.491,960.6c2.238-.777,4.443-1.593,6.555-2.424l-.637-1.618c-2.09.823-4.273,1.631-6.489,2.4Z" transform="translate(-1472.92 -956.557)"/>
        </g>
      </g>
      <g id="Group_428" data-name="Group 428" transform="translate(777.446 391.116)">
        <path id="Path_803" data-name="Path 803" class="cls-13" d="M1448.639,496.116s36.205-24.232,44.473-8.268-47.038,72.456-47.038,72.456Z" transform="translate(-1446.073 -482.405)"/>
        <path id="Path_804" data-name="Path 804" class="cls-13" d="M1448.639,753.541s36.205-24.232,44.473-8.267-47.038,72.456-47.038,72.456Z" transform="translate(-1446.073 -634.249)"/>
        <path id="Path_805" data-name="Path 805" class="cls-13" d="M1448.639,928.928s36.205-24.232,44.473-8.267-47.038,72.456-47.038,72.456Z" transform="translate(-1446.073 -737.703)"/>
      </g>
      <path id="Path_806" data-name="Path 806" class="cls-12" d="M1066.961,449.629H868.2a26.8,26.8,0,0,0-26.8,26.8V882.641a26.808,26.808,0,0,0,26.8,26.8h198.76a26.8,26.8,0,0,0,26.8-26.8V476.43A26.807,26.807,0,0,0,1066.961,449.629Z" transform="translate(-311.955 -71.955)"/>
      <path id="Path_807" data-name="Path 807" class="cls-5" d="M838.518,1203.6s-35.95,88-32.463,104.645,25.3,38.892,78.83,31.474,90.522-17.334,90.522-17.334,2.237-118.769,0-124.792-98.477-48.774-102.263-48.774S838.518,1203.6,838.518,1203.6Z" transform="translate(-290.967 -484.379)"/>
      <rect id="Rectangle_443" data-name="Rectangle 443" class="cls-14" width="226.378" height="386.757" transform="translate(542.437 414.202)"/>
      <g id="Group_430" data-name="Group 430" transform="translate(585.888 535.917)">
        <path id="Rectangle_444" data-name="Rectangle 444" class="cls-15" d="M34.275,0H105.2a34.276,34.276,0,0,1,34.276,34.276V141.325A34.275,34.275,0,0,1,105.2,175.6H34.275A34.275,34.275,0,0,1,0,141.325V34.275A34.275,34.275,0,0,1,34.275,0Z" transform="translate(0)"/>
        <g id="Group_429" data-name="Group 429" transform="translate(16.274 47.494)">
          <path id="Path_808" data-name="Path 808" class="cls-11" d="M1030.825,927.185l11.053,53.035a4.9,4.9,0,0,0,4.751,3.957H1112a4.9,4.9,0,0,0,4.751-3.957l11.053-53.035Zm19.495,51.853a2.677,2.677,0,0,1-2.677-2.677l-3.711-37.59a2.677,2.677,0,1,1,5.353,0l3.712,37.59A2.677,2.677,0,0,1,1050.32,979.038Zm13.463,0h0a2.677,2.677,0,0,1-2.677-2.677l-1.485-37.59a2.677,2.677,0,1,1,5.354,0l1.485,37.59A2.677,2.677,0,0,1,1063.783,979.038Zm18.21-2.677a2.677,2.677,0,0,1-5.354,0v-37.59a2.677,2.677,0,1,1,5.354,0Zm15.533,0a2.677,2.677,0,0,1-5.354,0l1.485-37.59a2.677,2.677,0,1,1,5.354,0Zm13.463,0a2.677,2.677,0,0,1-5.354,0l3.712-37.59a2.677,2.677,0,1,1,5.354,0Z" transform="translate(-1025.852 -903.565)"/>
          <path id="Path_809" data-name="Path 809" class="cls-10" d="M1121.343,925.308h-98.36a4.284,4.284,0,0,1-4.284-4.284h0a4.284,4.284,0,0,1,4.284-4.284h98.36a4.284,4.284,0,0,1,4.284,4.284h0A4.284,4.284,0,0,1,1121.343,925.308Z" transform="translate(-1018.699 -897.404)"/>
          <path id="Path_810" data-name="Path 810" class="cls-11" d="M1072.607,889.255v-3.7a11.161,11.161,0,0,1,11.161-11.161H1118.5a11.161,11.161,0,0,1,11.161,11.161v3.7a2.4,2.4,0,0,0,2.4,2.4h0a2.4,2.4,0,0,0,2.4-2.4v-3.7A15.958,15.958,0,0,0,1118.5,869.6h-34.727a15.958,15.958,0,0,0-15.958,15.958v3.7a2.4,2.4,0,0,0,2.4,2.4h0A2.4,2.4,0,0,0,1072.607,889.255Z" transform="translate(-1047.668 -869.596)"/>
        </g>
      </g>
      <path id="Rectangle_445" data-name="Rectangle 445" class="cls-14" d="M2.423,0H94.446a2.423,2.423,0,0,1,2.423,2.423v0a2.423,2.423,0,0,1-2.423,2.423H2.423A2.423,2.423,0,0,1,0,2.423v0A2.423,2.423,0,0,1,2.423,0Z" transform="translate(607.375 397.202)"/>
      <path id="Path_811" data-name="Path 811" class="cls-4" d="M747.31,900.563s1.365,5.077,4.454,7.576l3.671-42.213s26.319-29.412,19.961-69.081a59.273,59.273,0,0,0-19.262-35.158c-5.9-5.183-12.374-8.647-16.19-3.77,0,0-29.817,71-50.418,122.867Z" transform="translate(-222.372 -252.419)"/>
      <g id="Group_432" data-name="Group 432" transform="translate(644.377 808.475)">
        <path id="Path_812" data-name="Path 812" class="cls-16" d="M1143.864,1511.12A11.118,11.118,0,1,1,1132.746,1500,11.118,11.118,0,0,1,1143.864,1511.12Z" transform="translate(-1121.628 -1500.002)"/>
        <g id="Group_431" data-name="Group 431" transform="translate(6.486 6.486)">
          <path id="Path_813" data-name="Path 813" class="cls-15" d="M1145.39,1525.079h-6.63a1.318,1.318,0,0,1-1.317-1.317v-6.63a1.318,1.318,0,0,1,1.317-1.316h6.63a1.318,1.318,0,0,1,1.316,1.316v6.63A1.317,1.317,0,0,1,1145.39,1525.079Zm-6.63-8.905a.96.96,0,0,0-.959.958v6.63a.96.96,0,0,0,.959.959h6.63a.96.96,0,0,0,.959-.959v-6.63a.96.96,0,0,0-.959-.958Z" transform="translate(-1137.443 -1515.816)"/>
        </g>
      </g>
      <rect id="Rectangle_446" data-name="Rectangle 446" class="cls-17" width="226.378" height="22.877" transform="translate(542.437 778.082)"/>
      <rect id="Rectangle_447" data-name="Rectangle 447" class="cls-17" width="226.378" height="20.524" transform="translate(542.437 414.202)"/>
      <path id="Path_814" data-name="Path 814" class="cls-13" d="M795.288,799.619c8.238-3.79,12.54-25.226,14.08-34.862-6.612-6.651-14.9-12.637-19.441-6.841,0,0-6.566,15.635-15.663,37.59C780.484,798.968,789.128,802.452,795.288,799.619Z" transform="translate(-272.355 -252.42)"/>
      <path id="Path_815" data-name="Path 815" class="cls-12" d="M564.309,1752.708c18.087,11.113,76.315,44.34,136.523,51.422,3.527.415,6.008,3.648,4.965,6.441l-10.518,28.173a4.678,4.678,0,0,1-5.144,2.666c-17.744-2.155-90.956-13.175-142.468-53.024a4.613,4.613,0,0,1-1.837-5.17l10.734-28.751C557.574,1751.759,561.364,1750.9,564.309,1752.708Z" transform="translate(-137.471 -840.025)"/>
      <path id="Path_816" data-name="Path 816" d="M576.145,1801.5l-.2-.075a2.04,2.04,0,0,1-1.2-2.625l3.238-8.673a2.041,2.041,0,0,1,2.626-1.2l.2.074a2.041,2.041,0,0,1,1.2,2.626l-3.238,8.674A2.042,2.042,0,0,1,576.145,1801.5Z" transform="translate(-154.593 -861.875)"/>
      <path id="Path_817" data-name="Path 817" d="M602.551,1817.772l-.2-.074a2.042,2.042,0,0,1-1.2-2.626l3.238-8.673a2.04,2.04,0,0,1,2.626-1.2l.2.074a2.041,2.041,0,0,1,1.2,2.626l-3.238,8.673A2.041,2.041,0,0,1,602.551,1817.772Z" transform="translate(-170.168 -871.475)"/>
      <path id="Path_818" data-name="Path 818" d="M629,1833.936l-.2-.074a2.041,2.041,0,0,1-1.2-2.626l3.238-8.673a2.04,2.04,0,0,1,2.626-1.2l.2.074a2.042,2.042,0,0,1,1.2,2.627l-3.238,8.673A2.041,2.041,0,0,1,629,1833.936Z" transform="translate(-185.769 -881.009)"/>
      <path id="Path_819" data-name="Path 819" d="M656.217,1847.081l-.2-.074a2.041,2.041,0,0,1-1.2-2.626l3.238-8.673a2.04,2.04,0,0,1,2.626-1.2l.2.074a2.041,2.041,0,0,1,1.2,2.626l-3.238,8.674A2.042,2.042,0,0,1,656.217,1847.081Z" transform="translate(-201.823 -888.762)"/>
      <path id="Path_820" data-name="Path 820" d="M682.994,1862.361l-.2-.075a2.041,2.041,0,0,1-1.2-2.626l3.238-8.673a2.041,2.041,0,0,1,2.626-1.2l.2.074a2.042,2.042,0,0,1,1.2,2.627l-3.238,8.673A2.041,2.041,0,0,1,682.994,1862.361Z" transform="translate(-217.618 -897.776)"/>
      <path id="Path_821" data-name="Path 821" d="M710.952,1874.477l-.2-.074a2.042,2.042,0,0,1-1.2-2.626l3.238-8.673a2.041,2.041,0,0,1,2.626-1.2l.2.074a2.041,2.041,0,0,1,1.2,2.627l-3.238,8.673A2.041,2.041,0,0,1,710.952,1874.477Z" transform="translate(-234.109 -904.923)"/>
      <path id="Path_822" data-name="Path 822" d="M739.46,1885.12l-.2-.074a2.041,2.041,0,0,1-1.2-2.626l3.238-8.673a2.041,2.041,0,0,1,2.626-1.2l.2.074a2.041,2.041,0,0,1,1.2,2.626l-3.238,8.673A2.04,2.04,0,0,1,739.46,1885.12Z" transform="translate(-250.925 -911.2)"/>
      <path id="Path_823" data-name="Path 823" d="M768.518,1894.291l-.2-.075a2.04,2.04,0,0,1-1.2-2.626l3.238-8.673a2.041,2.041,0,0,1,2.626-1.2l.2.074a2.04,2.04,0,0,1,1.2,2.625l-3.238,8.674A2.042,2.042,0,0,1,768.518,1894.291Z" transform="translate(-268.066 -916.61)"/>
      <path id="Path_824" data-name="Path 824" d="M798.758,1900.3l-.2-.074a2.04,2.04,0,0,1-1.2-2.626l3.238-8.674a2.041,2.041,0,0,1,2.626-1.2l.2.074a2.042,2.042,0,0,1,1.2,2.626l-3.238,8.673A2.041,2.041,0,0,1,798.758,1900.3Z" transform="translate(-285.902 -920.152)"/>
      <path id="Path_825" data-name="Path 825" d="M828.2,1908.438l-.2-.074a2.04,2.04,0,0,1-1.2-2.626l3.238-8.673a2.04,2.04,0,0,1,2.626-1.2l.2.074a2.041,2.041,0,0,1,1.2,2.626l-3.238,8.673A2.04,2.04,0,0,1,828.2,1908.438Z" transform="translate(-303.269 -924.955)"/>
      <path id="Path_826" data-name="Path 826" d="M858.769,1913.562l-.2-.075a2.04,2.04,0,0,1-1.2-2.626l3.238-8.673a2.042,2.042,0,0,1,2.626-1.2l.2.074a2.042,2.042,0,0,1,1.2,2.626l-3.238,8.674A2.041,2.041,0,0,1,858.769,1913.562Z" transform="translate(-321.301 -927.977)"/>
      <path id="Path_827" data-name="Path 827" d="M889.379,1918.575l-.2-.075a2.041,2.041,0,0,1-1.2-2.626l3.239-8.673a2.041,2.041,0,0,1,2.625-1.2l.2.075a2.041,2.041,0,0,1,1.2,2.626l-3.238,8.673A2.042,2.042,0,0,1,889.379,1918.575Z" transform="translate(-339.356 -930.934)"/>
      <path id="Path_828" data-name="Path 828" class="cls-7" d="M649.822,1842.33l.049-.133a2.534,2.534,0,0,1-.569-.138l-14.249-5.32a2.843,2.843,0,0,1-1.522-3.709l12.848-34.413a2.843,2.843,0,0,1,3.581-1.8l14.249,5.319a2.66,2.66,0,0,1,1.626,1.87q1.677.733,3.385,1.462a6.162,6.162,0,0,0-3.756-6.694l-14.249-5.32a6.309,6.309,0,0,0-7.947,4l-12.848,34.413a6.309,6.309,0,0,0,3.379,8.233l14.249,5.32a6,6,0,0,0,6.152-1.327Q652.014,1843.233,649.822,1842.33Z" transform="translate(-187.246 -864.411)"/>
      <path id="Path_829" data-name="Path 829" class="cls-14" d="M657.54,1843.043l-6.2-2.315a2.327,2.327,0,0,0-1.623,4.347l6.2,2.314Z" transform="translate(-198.09 -892.433)"/>
      <g id="Group_433" data-name="Group 433" transform="translate(677.108 577.589)">
        <path id="Path_830" data-name="Path 830" class="cls-18" d="M1285.874,1159.751s-30.575,2.565-31.644,10.69,1.283,22.45,30.147,25.23h29.9s-8.945-24.8-8.518-25.657S1285.874,1159.751,1285.874,1159.751Z" transform="translate(-1232.458 -1068.416)"/>
        <path id="Path_831" data-name="Path 831" class="cls-4" d="M1205.79,1149.6a8.294,8.294,0,0,0-3.231,11.487c14.069,24.266,70.016,120.7,75.058,128.545,5.773,8.98,19.884,30.147,66.709,41.052s66.067,42.334,66.067,42.334h144.322s-34-53.88-62.219-193.712c0,0-21.809-116.1-62.86-112.25,0,0-25.016-26.3-49.39-21.168,0,0-46.183-27.581-72.482-27.581L1244.6,943.65a18.278,18.278,0,0,0-24.959-2.955,11.964,11.964,0,0,0-4.879,7.693c-1.924,12.187,14.111,42.976,39.768,80.179s89.159,155.227,61.577,207.182a279.019,279.019,0,0,1-52.6-55.163C1243.094,1152.118,1219.084,1142.542,1205.79,1149.6Z" transform="translate(-1201.431 -937.06)"/>
        <path id="Path_832" data-name="Path 832" class="cls-13" d="M1461.074,1135.219a262.962,262.962,0,0,1,23.656,23.135c10.022,10.9,22.673,27.069,30.1,39.556,9.367,15.439,15.549,28.975,18.473,45.975l-.189.039c-3.365-15.97-12.158-33.171-19.817-45.053-5.73-9.29-16.339-24.052-29.713-39.521-6.718-7.748-15.238-16.9-22.645-23.99Z" transform="translate(-1354.506 -1053.946)"/>
        <path id="Path_833" data-name="Path 833" class="cls-13" d="M1636.273,1201.91a71.266,71.266,0,0,1,18.277,13.86,88.435,88.435,0,0,1,13.849,18.476,90.2,90.2,0,0,1,8.67,21.4,87.246,87.246,0,0,1,2.9,22.749l-.192.016a111.974,111.974,0,0,0-4.159-22.335,101.321,101.321,0,0,0-8.9-20.881,98.971,98.971,0,0,0-13.293-18.4,85.376,85.376,0,0,0-17.254-14.719Z" transform="translate(-1457.87 -1093.284)"/>
        <path id="Path_834" data-name="Path 834" class="cls-13" d="M1756.42,1252.693c6.032,4.561,12.139,12.636,15.1,18.093a81.524,81.524,0,0,1,8.621,21.991,68.4,68.4,0,0,1,2.012,15.565l-.191.026a116,116,0,0,0-3.275-15.178,106.191,106.191,0,0,0-8.76-21.536,86.114,86.114,0,0,0-13.592-18.818Z" transform="translate(-1528.746 -1123.239)"/>
        <path id="Path_835" data-name="Path 835" class="cls-13" d="M1234.925,1484.9c1.28-6.494-6.287-16.792-13.155-24.562a15.968,15.968,0,0,0-17.009-4.635,8.306,8.306,0,0,0-2.2,10.824c3.781,6.521,10.586,18.254,18.614,32.078C1227.188,1495.543,1233.74,1490.911,1234.925,1484.9Z" transform="translate(-1201.434 -1242.503)"/>
        <path id="Path_836" data-name="Path 836" class="cls-13" d="M1270,974.09c3.649-.731,20.2-6.235,19.19-9.253h0l-16.329-19.3a18.6,18.6,0,0,0-12.446-6.5h0l-.077-.008c-.133-.012-.432-.034-.851-.034-2.19,0-7.58.625-8.766,6.554-1.171,5.855,8.52,20.084,12.794,26A6.437,6.437,0,0,0,1270,974.09Z" transform="translate(-1230.45 -938.201)"/>
        <path id="Path_837" data-name="Path 837" class="cls-5" d="M1521.168,1823.1H1665.49s-22.289-35.329-45.754-123.005c-10.3,64.558-67.11,60.836-89.656,64.417-25.959,4.124-126.731-16.886-140.85-23.505,6.28,9.582,21.166,29.347,65.871,39.759C1501.926,1791.665,1521.168,1823.1,1521.168,1823.1Z" transform="translate(-1312.206 -1387.14)"/>
        <path id="Path_838" data-name="Path 838" class="cls-5" d="M1349.49,1188.71c28.3,45.467,79.066,149.91,53.947,195.477l16.671,16.456s42.123-46.664-24.907-149.573A686.2,686.2,0,0,0,1349.49,1188.71Z" transform="translate(-1288.765 -1085.498)"/>
      </g>
      <g id="Group_437" data-name="Group 437" transform="translate(374.57 650.576)">
        <g id="Group_434" data-name="Group 434" transform="translate(15.058 0)">
          <path id="Path_839" data-name="Path 839" class="cls-12" d="M506.012,1120.418a29.508,29.508,0,0,0-5.509-3.845l.769-1.559a30.753,30.753,0,0,1,5.877,4.089Z" transform="translate(-500.503 -1115.014)"/>
        </g>
        <g id="Group_435" data-name="Group 435" transform="translate(0 14.634)">
          <path id="Path_840" data-name="Path 840" class="cls-12" d="M487.115,1309.386a111.451,111.451,0,0,1-8.452-10.19l1.4-1.025a109.707,109.707,0,0,0,8.32,10.031Zm-15.463-21.448a72.415,72.415,0,0,1-5.028-12.3l1.664-.5a70.688,70.688,0,0,0,4.908,12Zm-7.581-25.344c-.187-2.026-.282-4.1-.282-6.167,0-2.336.122-4.732.361-7.122l1.73.173c-.234,2.333-.352,4.671-.353,6.949,0,2.012.093,4.034.274,6.008Zm4.165-25.892-1.681-.444a112.308,112.308,0,0,1,4.167-12.568l1.618.637A110.488,110.488,0,0,0,468.236,1236.7Zm9.405-24.331-1.563-.761c1.689-3.468,3.612-7.189,6.052-11.712l1.53.825C481.231,1205.223,479.319,1208.925,477.641,1212.37Zm12.326-23.193-1.535-.816.049-.09a62.337,62.337,0,0,0,5.032-11.82l1.666.5a64.017,64.017,0,0,1-5.174,12.158Zm5.318-25.409a29.849,29.849,0,0,0-3.074-12.3l1.557-.774a31.572,31.572,0,0,1,3.254,13.012Z" transform="translate(-463.789 -1150.695)"/>
        </g>
        <g id="Group_436" data-name="Group 436" transform="translate(32.823 181.282)">
          <path id="Path_841" data-name="Path 841" class="cls-12" d="M549.133,1562.849c-1.832-1.5-3.619-3.029-5.315-4.538l1.157-1.3c1.677,1.494,3.447,3.005,5.26,4.493Z" transform="translate(-543.818 -1557.012)"/>
        </g>
      </g>
      <g id="Group_438" data-name="Group 438" transform="translate(312.535 593.176)">
        <path id="Path_842" data-name="Path 842" class="cls-19" d="M383.692,1008.457l-2.3,28-16.263-18.315-52.594-43.075,44.85,14.13s22.081,10.727,23.095,12.143S383.692,1008.457,383.692,1008.457Z" transform="translate(-312.535 -975.064)"/>
        <path id="Path_843" data-name="Path 843" class="cls-7" d="M407.525,996.427l-94.99-21.363,71.157,33.393Z" transform="translate(-312.535 -975.064)"/>
        <path id="Path_844" data-name="Path 844" class="cls-7" d="M347.161,1029.19l29.279-14.609-63.905-39.517Z" transform="translate(-312.535 -975.064)"/>
      </g>
      <g id="Group_442" data-name="Group 442" transform="translate(493.163 414.202)">
        <g id="Group_441" data-name="Group 441">
          <g id="Group_439" data-name="Group 439" transform="translate(0 45.676)">
            <path id="Rectangle_448" data-name="Rectangle 448" class="cls-20" d="M0,0H36.112a0,0,0,0,1,0,0V13.38A18.056,18.056,0,0,1,18.056,31.436h0A18.056,18.056,0,0,1,0,13.38V0A0,0,0,0,1,0,0Z" transform="translate(180.56)"/>
            <path id="Rectangle_449" data-name="Rectangle 449" class="cls-21" d="M0,0H36.112a0,0,0,0,1,0,0V13.38A18.056,18.056,0,0,1,18.056,31.436h0A18.056,18.056,0,0,1,0,13.38V0A0,0,0,0,1,0,0Z" transform="translate(144.448)"/>
            <path id="Rectangle_450" data-name="Rectangle 450" class="cls-20" d="M0,0H36.112a0,0,0,0,1,0,0V13.38A18.056,18.056,0,0,1,18.056,31.436h0A18.056,18.056,0,0,1,0,13.38V0A0,0,0,0,1,0,0Z" transform="translate(108.336)"/>
            <path id="Rectangle_451" data-name="Rectangle 451" class="cls-21" d="M0,0H36.112a0,0,0,0,1,0,0V13.38A18.056,18.056,0,0,1,18.056,31.436h0A18.056,18.056,0,0,1,0,13.38V0A0,0,0,0,1,0,0Z" transform="translate(72.224)"/>
            <path id="Rectangle_452" data-name="Rectangle 452" class="cls-20" d="M0,0H36.112a0,0,0,0,1,0,0V13.38A18.056,18.056,0,0,1,18.056,31.436h0A18.056,18.056,0,0,1,0,13.38V0A0,0,0,0,1,0,0Z" transform="translate(36.112)"/>
            <path id="Rectangle_453" data-name="Rectangle 453" class="cls-21" d="M0,0H36.112a0,0,0,0,1,0,0V13.38A18.056,18.056,0,0,1,18.056,31.436h0A18.056,18.056,0,0,1,0,13.38V0A0,0,0,0,1,0,0Z" transform="translate(288.813)"/>
            <path id="Rectangle_454" data-name="Rectangle 454" class="cls-20" d="M0,0H36.112a0,0,0,0,1,0,0V13.38A18.056,18.056,0,0,1,18.056,31.436h0A18.056,18.056,0,0,1,0,13.38V0A0,0,0,0,1,0,0Z" transform="translate(252.701)"/>
            <path id="Rectangle_455" data-name="Rectangle 455" class="cls-21" d="M0,0H36.112a0,0,0,0,1,0,0V13.38A18.056,18.056,0,0,1,18.056,31.436h0A18.056,18.056,0,0,1,0,13.38V0A0,0,0,0,1,0,0Z" transform="translate(216.672)"/>
            <path id="Rectangle_456" data-name="Rectangle 456" class="cls-21" d="M0,0H36.112a0,0,0,0,1,0,0V13.38A18.056,18.056,0,0,1,18.056,31.436h0A18.056,18.056,0,0,1,0,13.38V0A0,0,0,0,1,0,0Z"/>
          </g>
          <g id="Group_440" data-name="Group 440">
            <path id="Path_845" data-name="Path 845" class="cls-15" d="M1136.025,538.692H1110.35l-5.218,45.676h36.112Z" transform="translate(-960.684 -538.692)"/>
            <path id="Path_846" data-name="Path 846" class="cls-22" d="M1058.414,538.692h-25.675l-15.655,45.676H1053.2Z" transform="translate(-908.748 -538.692)"/>
            <path id="Path_847" data-name="Path 847" class="cls-15" d="M980.8,538.692H955.128l-26.092,45.676h36.112Z" transform="translate(-856.812 -538.692)"/>
            <path id="Path_848" data-name="Path 848" class="cls-22" d="M903.193,538.692H877.518l-36.529,45.676H877.1Z" transform="translate(-804.877 -538.692)"/>
            <path id="Path_849" data-name="Path 849" class="cls-15" d="M825.582,538.692H799.907l-46.966,45.676h36.112Z" transform="translate(-752.941 -538.692)"/>
            <path id="Path_850" data-name="Path 850" class="cls-15" d="M1393.519,538.692h-25.675l36.616,45.676h36.112Z" transform="translate(-1115.646 -538.692)"/>
            <path id="Path_851" data-name="Path 851" class="cls-22" d="M1331.229,538.692h-25.675l26.051,45.676h36.112Z" transform="translate(-1078.905 -538.692)"/>
            <path id="Path_852" data-name="Path 852" class="cls-15" d="M1268.628,538.692h-25.675l15.7,45.676h36.112Z" transform="translate(-1041.979 -538.692)"/>
            <path id="Path_853" data-name="Path 853" class="cls-22" d="M1206.028,538.692h-25.675l5.261,45.676h36.112Z" transform="translate(-1005.053 -538.692)"/>
          </g>
        </g>
      </g>
    </g>
  </g>
</svg>
