<svg xmlns="http://www.w3.org/2000/svg" width="135.73" height="117.538" viewBox="0 0 135.73 117.538">
  <defs>
    <style>
      .cls-1 {
        fill: #f5f5f5;
      }

      .cls-2 {
        fill: #ebebeb;
      }

      .cls-3 {
        fill: #27debf;
      }

      .cls-4, .cls-9 {
        opacity: 0.1;
      }

      .cls-11, .cls-5 {
        fill: #fff;
      }

      .cls-13, .cls-6, .cls-7 {
        fill: #fafafa;
      }

      .cls-13, .cls-6 {
        stroke-miterlimit: 10;
      }

      .cls-8 {
        fill: #455a64;
      }

      .cls-10, .cls-16 {
        fill: #e0e0e0;
      }

      .cls-11 {
        opacity: 0.4;
      }

      .cls-12 {
        opacity: 0.2;
      }

      .cls-13 {
        stroke: #e0e0e0;
        stroke-width: 1.17px;
      }

      .cls-14 {
        fill: #37474f;
      }

      .cls-15, .cls-16 {
        stroke: none;
      }
    </style>
  </defs>
  <g id="Group_402" data-name="Group 402" transform="translate(0 0)">
    <g id="Floor" transform="translate(0 49.588)">
      <path id="Floor-2" data-name="Floor" class="cls-1" d="M38.35,277.64c25.951,13.268,68.026,13.268,93.977,0s25.951-34.78,0-48.048-68.026-13.268-93.977,0S12.4,264.372,38.35,277.64Z" transform="translate(-18.886 -219.641)"/>
    </g>
    <g id="Shadows" transform="translate(22.164 74.65)">
      <path id="Shadow" class="cls-2" d="M373.76,317.7c1.422.821,4.217.538,6.243-.631l11.677-6.782c2.026-1.169,2.512-2.785,1.087-3.607s-4.222-.541-6.248.63l-11.667,6.784C372.827,315.265,372.338,316.879,373.76,317.7Z" transform="translate(-291.589 -305.96)"/>
      <path id="Shadow-2" data-name="Shadow" class="cls-2" d="M106.568,333.71l-11.877-6.857L106.567,320Z" transform="translate(-94.691 -315.716)"/>
      <path id="Shadow-3" data-name="Shadow" class="cls-2" d="M203.791,327.454,184.649,316.4,203.8,305.358Z" transform="translate(-158.347 -305.358)"/>
    </g>
    <g id="Plants" transform="translate(0.592 51.388)">
      <g id="Plants-2" data-name="Plants" transform="translate(0 7.52)">
        <g id="Group_375" data-name="Group 375">
          <g id="Group_373" data-name="Group 373">
            <path id="Path_545" data-name="Path 545" class="cls-3" d="M38.293,269.222c.033-2.778-1.907-8.556-4.746-12.2s-7.34-6.334-10.573-5.271c-3.011.99-2.733,4.927.873,7.578s9.036,5.991,10.582,10.516l3.29,5.569Z" transform="translate(-20.911 -251.519)"/>
            <path id="Path_546" data-name="Path 546" class="cls-4" d="M38.293,269.222c.033-2.778-1.907-8.556-4.746-12.2s-7.34-6.334-10.573-5.271c-3.011.99-2.733,4.927.873,7.578s9.036,5.991,10.582,10.516l3.29,5.569Z" transform="translate(-20.911 -251.519)"/>
          </g>
          <g id="Group_374" data-name="Group 374" transform="translate(3.335 1.885)">
            <path id="Path_547" data-name="Path 547" class="cls-5" d="M46.523,277.587a.2.2,0,0,1-.181-.166c-1.746-9.505-9.325-17.305-13.9-19.063a.2.2,0,0,1-.117-.262.2.2,0,0,1,.263-.117c4.658,1.791,12.377,9.72,14.149,19.369a.2.2,0,0,1-.163.236A.2.2,0,0,1,46.523,277.587Z" transform="translate(-32.316 -257.965)"/>
          </g>
        </g>
        <g id="Group_378" data-name="Group 378" transform="translate(1.681 11.986)">
          <g id="Group_376" data-name="Group 376">
            <path id="Path_548" data-name="Path 548" class="cls-3" d="M41.033,308.086c-.428-1.567-2.3-4.167-5.363-6.332-3.384-2.4-7.69-3.531-8.664-5.375-1.17-2.216.711-4.274,4.211-3.8s9.606,5.334,10.5,12.547Z" transform="translate(-26.659 -292.512)"/>
          </g>
          <g id="Group_377" data-name="Group 377" transform="translate(2.883 1.911)">
            <path id="Path_549" data-name="Path 549" class="cls-5" d="M48.709,311.081a.2.2,0,0,1-.173-.136c-2.81-8.159-8.974-11.085-11.841-11.492a.2.2,0,0,1-.173-.229.2.2,0,0,1,.23-.172c3.17.45,9.3,3.434,12.168,11.762a.2.2,0,0,1-.211.268Z" transform="translate(-36.52 -299.049)"/>
          </g>
        </g>
      </g>
      <g id="Plants-3" data-name="Plants" transform="translate(118.808)">
        <g id="Group_380" data-name="Group 380" transform="translate(0.089)">
          <path id="Path_550" data-name="Path 550" class="cls-3" d="M429.714,243.115a20.662,20.662,0,0,1,3.841-10.2c3.451-4.348,3.239-6.138.859-7.016s-7.908,4.362-6.677,11.379S429.714,243.115,429.714,243.115Z" transform="translate(-427.561 -225.798)"/>
          <path id="Path_551" data-name="Path 551" class="cls-4" d="M429.714,243.115a20.662,20.662,0,0,1,3.841-10.2c3.451-4.348,3.239-6.138.859-7.016s-7.908,4.362-6.677,11.379S429.714,243.115,429.714,243.115Z" transform="translate(-427.561 -225.798)"/>
          <g id="Group_379" data-name="Group 379" transform="translate(0.938 0.88)">
            <path id="Path_552" data-name="Path 552" class="cls-5" d="M430.93,241.9a.136.136,0,0,1-.136-.128c-.4-6.45,4.151-11.742,5.857-12.939a.136.136,0,0,1,.156.223c-1.672,1.174-6.137,6.366-5.742,12.7a.136.136,0,0,1-.127.144Z" transform="translate(-430.769 -228.807)"/>
          </g>
        </g>
        <g id="Group_383" data-name="Group 383" transform="translate(0 9.424)">
          <g id="Group_382" data-name="Group 382">
            <path id="Path_553" data-name="Path 553" class="cls-3" d="M428.56,270.759a30.893,30.893,0,0,0,4.753,1.144c2.673.423,3.852-.855,3.852-.855s-1.052-2.507-2.57-3.21a14.915,14.915,0,0,1,4.639,1.9s1.632.025,2.282-2.466c0,0-.967-1.5-4.211-2.309a10.688,10.688,0,0,1,4.818.229c.213.085,1.122-3.136,1.4-4.622s-.322-1.47-1.48-1.779-5-1.171-5.72-.534-1.094,2.816-1.094,2.816a5.137,5.137,0,0,1-.109-2.761,4.433,4.433,0,0,0-2.66.063c-1.323.385-1.388,1.285-1.328,2.3a9.943,9.943,0,0,0,.573,2.583,7.273,7.273,0,0,1-1.063-4.188,6.237,6.237,0,0,0-3.17,4.033C427.218,264.561,426.864,268.829,428.56,270.759Z" transform="translate(-427.256 -258.031)"/>
            <g id="Group_381" data-name="Group 381" transform="translate(1.664 1.577)">
              <path id="Path_554" data-name="Path 554" class="cls-5" d="M433.1,274.053a.15.15,0,0,0,.135-.085c2.157-4.481,10.175-9.688,13.048-10.246a.15.15,0,1,0-.058-.3c-2.919.568-11.07,5.858-13.261,10.411a.149.149,0,0,0,.07.2A.148.148,0,0,0,433.1,274.053Z" transform="translate(-432.949 -263.424)"/>
            </g>
          </g>
        </g>
      </g>
    </g>
    <g id="Computer_Screen" data-name="Computer Screen" transform="translate(16.227 0)">
      <g id="Group_388" data-name="Group 388">
        <g id="Group_386" data-name="Group 386">
          <g id="Path_555" data-name="Path 555" class="cls-6" transform="translate(-74.385 -58.648)">
            <path class="cls-15" d="M 75.08542633056641 146.7740631103516 C 75.05027770996094 146.7740478515625 75.04485321044922 146.7672576904297 75.03665924072266 146.7569732666016 C 75.00438690185547 146.7165374755859 74.96990203857422 146.6159820556641 74.96990203857422 146.4550323486328 L 74.96990203857422 97.51273345947266 L 134.3710327148438 63.21708679199219 L 134.3715972900391 111.4839935302734 C 134.3715972900391 112.0827941894531 133.9165191650391 112.8707885742188 133.3977508544922 113.1703033447266 L 75.35855865478516 146.6794128417969 C 75.21060943603516 146.7648315429688 75.11827087402344 146.7740631103516 75.08542633056641 146.7740631103516 Z"/>
            <path class="cls-16" d="M 75.5548095703125 145.8907318115234 L 133.1052856445313 112.6637725830078 C 133.4427947998047 112.4689102172852 133.7866821289063 111.8734970092773 133.7866821289063 111.4839859008789 L 133.7861328125 64.23016357421875 L 75.5548095703125 97.85041046142578 L 75.5548095703125 145.8907318115234 M 75.08541107177734 147.3589630126953 C 74.67010498046875 147.3589477539063 74.38500213623047 147.0278167724609 74.38500213623047 146.4550323486328 L 74.38500213623047 97.17502593994141 L 134.9559173583984 62.20400238037109 L 134.9564971923828 111.4839706420898 C 134.9564971923828 112.2912445068359 134.3895721435547 113.2730712890625 133.6902008056641 113.6768569946289 L 75.65101623535156 147.1859588623047 C 75.44770050048828 147.3033599853516 75.25563049316406 147.3589630126953 75.08541107177734 147.3589630126953 Z"/>
          </g>
          <path id="Path_556" data-name="Path 556" class="cls-3" d="M74.385,97.175V105.4l60.571-34.971V62.2Z" transform="translate(-74.385 -58.648)"/>
          <path id="Path_557" data-name="Path 557" class="cls-7" d="M90.632,155.7v1.18c0,.241.171.34.38.219l18.622-10.752V144.29L91.012,155.042A.842.842,0,0,0,90.632,155.7Z" transform="translate(-85.882 -116.733)"/>
          <path id="Path_558" data-name="Path 558" class="cls-8" d="M157.62,140.224c.21-.121.38-.023.38.219v1.18a.84.84,0,0,1-.38.658l-2,1.152v-2.057Z" transform="translate(-131.871 -113.819)"/>
          <path id="Path_559" data-name="Path 559" class="cls-8" d="M74.385,85.916a2.8,2.8,0,0,1,1.266-2.193L133.69,50.215c.7-.4,1.266-.076,1.266.731V53.6L74.385,88.569Z" transform="translate(-74.385 -50.042)"/>
          <g id="Group_384" data-name="Group 384" transform="translate(53.246 2.449)">
            <path id="Path_560" data-name="Path 560" class="cls-3" d="M257.088,65.94a1.313,1.313,0,0,0-.594,1.029c0,.379.266.532.594.343a1.313,1.313,0,0,0,.594-1.029C257.682,65.9,257.416,65.75,257.088,65.94Z" transform="translate(-256.494 -63.683)"/>
            <path id="Path_561" data-name="Path 561" class="cls-3" d="M263.522,62.22a1.312,1.312,0,0,0-.594,1.029c0,.379.266.532.594.343a1.313,1.313,0,0,0,.594-1.029C264.116,62.184,263.85,62.03,263.522,62.22Z" transform="translate(-261.047 -61.051)"/>
            <path id="Path_562" data-name="Path 562" class="cls-3" d="M269.956,58.5a1.312,1.312,0,0,0-.594,1.029c0,.379.266.532.594.343a1.313,1.313,0,0,0,.594-1.029C270.55,58.464,270.284,58.31,269.956,58.5Z" transform="translate(-265.6 -58.418)"/>
          </g>
          <g id="Group_385" data-name="Group 385" class="cls-9" transform="translate(34.332 10.102)">
            <path id="Path_563" data-name="Path 563" d="M213.413,108.246a2.869,2.869,0,0,0-1.3,2.248c0,.828.581,1.164,1.3.75a2.869,2.869,0,0,0,1.3-2.248C214.711,108.167,214.13,107.832,213.413,108.246Z" transform="translate(-206.177 -101.205)"/>
            <path id="Path_564" data-name="Path 564" d="M193.1,119.972a2.869,2.869,0,0,0-1.3,2.248c0,.828.581,1.164,1.3.75a2.869,2.869,0,0,0,1.3-2.248C194.4,119.893,193.821,119.558,193.1,119.972Z" transform="translate(-191.806 -109.502)"/>
            <path id="Path_565" data-name="Path 565" d="M233.723,96.519a2.87,2.87,0,0,0-1.3,2.249c0,.828.581,1.164,1.3.75a2.87,2.87,0,0,0,1.3-2.249C235.021,96.441,234.44,96.106,233.723,96.519Z" transform="translate(-220.549 -92.907)"/>
            <path id="Path_566" data-name="Path 566" d="M254.034,84.77a2.87,2.87,0,0,0-1.3,2.249c0,.828.581,1.164,1.3.75a2.869,2.869,0,0,0,1.3-2.248C255.332,84.692,254.751,84.357,254.034,84.77Z" transform="translate(-234.921 -84.593)"/>
          </g>
        </g>
        <path id="Path_567" data-name="Path 567" class="cls-10" d="M91.9,192.033l14.1-8.138c.7-.4,1.266-.076,1.266.731v13.533a2.8,2.8,0,0,1-1.266,2.193L91.9,208.49c-.7.4-1.266.077-1.266-.731V194.226A2.8,2.8,0,0,1,91.9,192.033Z" transform="translate(-85.882 -144.636)"/>
        <path id="Path_568" data-name="Path 568" class="cls-10" d="M160.957,130.589l29.534-17.052c.7-.4,1.266-.076,1.266.731V127.8a2.8,2.8,0,0,1-1.266,2.193l-29.534,17.052c-.7.4-1.266.077-1.266-.731V132.782A2.8,2.8,0,0,1,160.957,130.589Z" transform="translate(-134.749 -94.85)"/>
        <g id="Group_387" data-name="Group 387" transform="translate(4.751 54.847)">
          <path id="Path_569" data-name="Path 569" class="cls-10" d="M91.9,250.748l22.409-12.938c.7-.4,1.266-.117,1.266.641a2.714,2.714,0,0,1-1.266,2.1L91.9,253.491c-.7.4-1.266.117-1.266-.641A2.714,2.714,0,0,1,91.9,250.748Z" transform="translate(-90.633 -237.628)"/>
          <path id="Path_570" data-name="Path 570" class="cls-10" d="M91.9,267.163l22.409-12.938c.7-.4,1.266-.117,1.266.64a2.714,2.714,0,0,1-1.266,2.1L91.9,269.906c-.7.4-1.266.117-1.266-.64A2.715,2.715,0,0,1,91.9,267.163Z" transform="translate(-90.633 -249.243)"/>
          <path id="Path_571" data-name="Path 571" class="cls-10" d="M91.9,283.577l22.409-12.938c.7-.4,1.266-.117,1.266.64a2.713,2.713,0,0,1-1.266,2.1L91.9,286.32c-.7.4-1.266.117-1.266-.64A2.714,2.714,0,0,1,91.9,283.577Z" transform="translate(-90.633 -260.858)"/>
        </g>
      </g>
    </g>
    <g id="Envelope" transform="translate(32.853 37.358)">
      <g id="Group_391" data-name="Group 391" transform="translate(0 0)">
        <g id="Letter">
          <g id="Group_390" data-name="Group 390" transform="translate(0.001 0)">
            <g id="Group_389" data-name="Group 389">
              <path id="Path_572" data-name="Path 572" class="cls-3" d="M131.253,201.749a1.679,1.679,0,0,1,.76-1.316L170.874,178a1.679,1.679,0,0,1,1.519,0l.856.494a1.679,1.679,0,0,1,.76,1.316v29.788a1.686,1.686,0,0,1-.76,1.316l-38.861,22.436a1.687,1.687,0,0,1-1.519,0l-.856-.494a1.686,1.686,0,0,1-.76-1.316Z" transform="translate(-131.253 -177.815)"/>
            </g>
          </g>
          <path id="Path_573" data-name="Path 573" class="cls-11" d="M132.011,201l2.156,1.243,40.155-23.186a1.571,1.571,0,0,0-.535-.568l-.859-.492a1.659,1.659,0,0,0-1.516,0L132.55,200.432A1.546,1.546,0,0,0,132.011,201Z" transform="translate(-131.788 -177.814)"/>
          <path id="Path_574" data-name="Path 574" class="cls-4" d="M131.249,257.861v29.787a1.675,1.675,0,0,0,.762,1.315l.855.5a1.218,1.218,0,0,0,.208.093,1.64,1.64,0,0,0,.313.072,1.861,1.861,0,0,0,.6-.022c.05-.011.1-.025.147-.039a.688.688,0,0,0,.09-.036.451.451,0,0,1-.363-.007.526.526,0,0,1-.234-.5V259.234a.666.666,0,0,1,.4-.647l-.4-.23-2.156-1.243A1.56,1.56,0,0,0,131.249,257.861Z" transform="translate(-131.249 -233.928)"/>
          <path id="Path_575" data-name="Path 575" class="cls-12" d="M139.385,205.052l18,6.724a2.924,2.924,0,0,0,3.471-1.143l2.89-4.428,15.94-24.422-15.364,24.588,15.443,6.044a1.581,1.581,0,0,1-.237.758l-15.249-6.733-3.358,5.375a2.924,2.924,0,0,1-3.662,1.125l-2.391-1.056-15.246,24.331a.526.526,0,0,1-.234-.5v-.5l15.405-23.368Z" transform="translate(-137.006 -180.623)"/>
        </g>
      </g>
    </g>
    <g id="Mobile_Screen" data-name="Mobile Screen" transform="translate(67.297 7.487)">
      <g id="Group_398" data-name="Group 398" transform="translate(0 0)">
        <path id="Path_576" data-name="Path 576" class="cls-13" d="M249.052,95.751v68.39c0,.807.567,1.134,1.266.731l30.723-17.738a2.8,2.8,0,0,0,1.266-2.193V76.552c0-.807-.567-1.134-1.266-.731L250.318,93.558A2.8,2.8,0,0,0,249.052,95.751Z" transform="translate(-249.052 -75.648)"/>
        <path id="Path_577" data-name="Path 577" class="cls-8" d="M255.142,142.467a.694.694,0,0,1,.329-.533l3.5-2.02c.182-.1.329-.037.329.153a.694.694,0,0,1-.329.533l-3.5,2.02C255.289,142.724,255.142,142.656,255.142,142.467Z" transform="translate(-253.361 -121.089)"/>
        <path id="Path_578" data-name="Path 578" class="cls-8" d="M255.142,147.125a.694.694,0,0,1,.329-.533l3.5-2.02c.182-.1.329-.037.329.153a.694.694,0,0,1-.329.533l-3.5,2.02C255.289,147.382,255.142,147.314,255.142,147.125Z" transform="translate(-253.361 -124.385)"/>
        <path id="Path_579" data-name="Path 579" class="cls-8" d="M255.142,151.783a.694.694,0,0,1,.329-.533l3.5-2.02c.182-.1.329-.037.329.153a.694.694,0,0,1-.329.533l-3.5,2.02C255.289,152.04,255.142,151.972,255.142,151.783Z" transform="translate(-253.361 -127.681)"/>
        <path id="Path_580" data-name="Path 580" class="cls-14" d="M345.713,94.31v-.546a.035.035,0,0,0-.054-.035l-.421.19a.05.05,0,0,1-.07-.032.922.922,0,0,0-.094-.209.116.116,0,0,1-.006-.1l.28-.566a.063.063,0,0,0-.025-.082l-.3-.176a.064.064,0,0,0-.084.02l-.35.526a.115.115,0,0,1-.092.045.946.946,0,0,0-.228.023.05.05,0,0,1-.063-.045l-.046-.459a.035.035,0,0,0-.057-.029l-.473.273a.127.127,0,0,0-.056.088l-.047.526a.176.176,0,0,1-.049.1,2.828,2.828,0,0,0-.263.278.09.09,0,0,1-.093.026l-.3-.106a.074.074,0,0,0-.085.032l-.348.6a.074.074,0,0,0,.015.089l.244.21a.09.09,0,0,1,.024.094,2.865,2.865,0,0,0-.109.367.177.177,0,0,1-.06.092l-.432.3a.128.128,0,0,0-.048.093v.546a.035.035,0,0,0,.054.035l.421-.19a.05.05,0,0,1,.07.032.925.925,0,0,0,.094.209.116.116,0,0,1,.006.1l-.28.566a.063.063,0,0,0,.025.082l.3.176a.064.064,0,0,0,.084-.02l.35-.526a.116.116,0,0,1,.091-.045.946.946,0,0,0,.228-.023.05.05,0,0,1,.063.045l.046.459a.035.035,0,0,0,.057.029l.473-.273a.128.128,0,0,0,.056-.088l.047-.526a.176.176,0,0,1,.049-.1,2.862,2.862,0,0,0,.263-.278.09.09,0,0,1,.093-.026l.3.106a.074.074,0,0,0,.085-.032l.348-.6a.074.074,0,0,0-.015-.09l-.244-.21a.09.09,0,0,1-.024-.094,2.855,2.855,0,0,0,.109-.367.177.177,0,0,1,.06-.092l.432-.3A.128.128,0,0,0,345.713,94.31Zm-1.849,1.717c-.441.255-.8.048-.8-.461a1.766,1.766,0,0,1,.8-1.384c.441-.255.8-.048.8.461A1.766,1.766,0,0,1,343.864,96.027Z" transform="translate(-314.834 -87.745)"/>
        <g id="Group_392" data-name="Group 392" transform="translate(10.128 19.156)">
          <path id="Path_581" data-name="Path 581" class="cls-8" d="M290.191,142.052c3.59-2.072,6.5-.392,6.5,3.753a14.367,14.367,0,0,1-6.5,11.258c-3.59,2.073-6.5.392-6.5-3.753A14.368,14.368,0,0,1,290.191,142.052Z" transform="translate(-283.691 -141.164)"/>
          <path id="Path_582" data-name="Path 582" class="cls-3" d="M300.662,154.661c1.165-.672,2.109-.127,2.109,1.217a4.662,4.662,0,0,1-2.109,3.653c-1.165.672-2.109.127-2.109-1.218A4.661,4.661,0,0,1,300.662,154.661Z" transform="translate(-294.208 -150.511)"/>
          <path id="Path_583" data-name="Path 583" class="cls-3" d="M300.315,173.9c0-2.21-1.551-3.105-3.464-2l-1.2.69a7.658,7.658,0,0,0-3.464,6v.6a3.554,3.554,0,0,0,1.117.173,5.861,5.861,0,0,0,2.9-.888,12.806,12.806,0,0,0,4.11-4.066Z" transform="translate(-289.705 -162.576)"/>
        </g>
        <path id="Path_584" data-name="Path 584" class="cls-3" d="M284.324,200.017l11.734-6.775c.35-.2.633-.058.633.32a1.357,1.357,0,0,1-.633,1.051l-11.734,6.775c-.35.2-.633.058-.633-.32A1.358,1.358,0,0,1,284.324,200.017Z" transform="translate(-273.563 -158.795)"/>
        <path id="Path_585" data-name="Path 585" class="cls-8" d="M280.017,213.05l14.252-8.237c.349-.2.633-.058.633.32a1.358,1.358,0,0,1-.633,1.051l-14.252,8.237c-.35.2-.633.059-.633-.32A1.357,1.357,0,0,1,280.017,213.05Z" transform="translate(-270.515 -166.982)"/>
        <path id="Path_586" data-name="Path 586" class="cls-14" d="M330.674,222.012l3.991-2.3c.21-.121.38-.066.38.124a.76.76,0,0,1-.38.562l-3.991,2.3c-.21.121-.38.066-.38-.124A.762.762,0,0,1,330.674,222.012Z" transform="translate(-306.54 -177.542)"/>
        <g id="Group_393" data-name="Group 393" transform="translate(3.563 51.142)">
          <path id="Path_587" data-name="Path 587" class="cls-3" d="M261.872,254.032l5.86-3.383c.35-.2.633-.038.633.366v4.024a1.4,1.4,0,0,1-.633,1.1l-5.86,3.383c-.349.2-.633.038-.633-.365v-4.024A1.4,1.4,0,0,1,261.872,254.032Z" transform="translate(-261.239 -250.562)"/>
          <path id="Path_588" data-name="Path 588" class="cls-7" d="M265.682,258.621l3.991-2.3c.21-.121.38-.066.38.124a.762.762,0,0,1-.38.562l-3.991,2.3c-.21.121-.38.066-.38-.124A.76.76,0,0,1,265.682,258.621Z" transform="translate(-264.114 -254.589)"/>
          <path id="Path_589" data-name="Path 589" class="cls-7" d="M265.3,264v1.18c0,.242.17.34.38.219l3.991-2.3a.84.84,0,0,0,.38-.658v-1.18c0-.242-.17-.34-.38-.219l-3.991,2.3A.839.839,0,0,0,265.3,264Z" transform="translate(-264.114 -257.937)"/>
        </g>
        <g id="Group_394" data-name="Group 394" transform="translate(13.065 45.657)">
          <path id="Path_590" data-name="Path 590" class="cls-3" d="M294.368,235.271l5.86-3.383c.35-.2.633-.038.633.365v4.024a1.4,1.4,0,0,1-.633,1.1l-5.86,3.383c-.35.2-.633.038-.633-.365v-4.024A1.4,1.4,0,0,1,294.368,235.271Z" transform="translate(-293.735 -231.801)"/>
          <path id="Path_591" data-name="Path 591" class="cls-7" d="M298.178,239.86l3.991-2.3c.21-.121.38-.066.38.123a.761.761,0,0,1-.38.562l-3.991,2.3c-.21.121-.38.066-.38-.123A.76.76,0,0,1,298.178,239.86Z" transform="translate(-296.61 -235.828)"/>
          <path id="Path_592" data-name="Path 592" class="cls-7" d="M297.8,245.238v1.18c0,.242.17.34.38.219l3.991-2.3a.84.84,0,0,0,.38-.658v-1.18c0-.242-.17-.34-.38-.219l-3.991,2.3A.84.84,0,0,0,297.8,245.238Z" transform="translate(-296.61 -239.176)"/>
        </g>
        <g id="Group_395" data-name="Group 395" transform="translate(22.566 40.171)">
          <path id="Path_593" data-name="Path 593" class="cls-3" d="M326.864,216.508l5.86-3.383c.349-.2.633-.038.633.365v4.024a1.4,1.4,0,0,1-.633,1.1l-5.86,3.383c-.35.2-.633.038-.633-.365V217.6A1.4,1.4,0,0,1,326.864,216.508Z" transform="translate(-326.231 -213.039)"/>
          <path id="Path_594" data-name="Path 594" class="cls-7" d="M330.674,221.1l3.991-2.3c.21-.121.38-.066.38.124a.76.76,0,0,1-.38.562l-3.991,2.3c-.21.121-.38.066-.38-.124A.762.762,0,0,1,330.674,221.1Z" transform="translate(-329.106 -217.065)"/>
          <path id="Path_595" data-name="Path 595" class="cls-7" d="M330.294,226.476v1.18c0,.242.17.341.38.219l3.991-2.3a.839.839,0,0,0,.38-.658v-1.18c0-.242-.17-.34-.38-.219l-3.991,2.3A.84.84,0,0,0,330.294,226.476Z" transform="translate(-329.106 -220.414)"/>
        </g>
        <path id="Path_596" data-name="Path 596" class="cls-10" d="M262.505,260.6l23.6-13.624c.7-.4,1.266-.117,1.266.64a2.715,2.715,0,0,1-1.266,2.1l-23.6,13.623c-.7.4-1.266.117-1.266-.64A2.715,2.715,0,0,1,262.505,260.6Z" transform="translate(-257.676 -196.753)"/>
        <path id="Path_597" data-name="Path 597" class="cls-10" d="M262.505,279.36l23.6-13.623c.7-.4,1.266-.117,1.266.64a2.715,2.715,0,0,1-1.266,2.1l-23.6,13.624c-.7.4-1.266.117-1.266-.64A2.715,2.715,0,0,1,262.505,279.36Z" transform="translate(-257.676 -210.029)"/>
        <path id="Path_598" data-name="Path 598" class="cls-3" d="M290.307,309.344l8.235-4.755c.35-.2.633-.038.633.366v2.653a1.4,1.4,0,0,1-.633,1.1l-8.235,4.754c-.35.2-.633.038-.633-.365V310.44A1.4,1.4,0,0,1,290.307,309.344Z" transform="translate(-277.797 -237.589)"/>
        <g id="Group_396" data-name="Group 396" transform="translate(4.751 57.642)">
          <path id="Path_599" data-name="Path 599" class="cls-7" d="M265.895,295.195a1.313,1.313,0,0,0-.594,1.029c0,.379.266.532.594.343a1.313,1.313,0,0,0,.594-1.029C266.489,295.159,266.223,295.005,265.895,295.195Z" transform="translate(-265.301 -288.587)"/>
          <path id="Path_600" data-name="Path 600" class="cls-7" d="M272.33,291.474a1.313,1.313,0,0,0-.594,1.029c0,.379.266.532.594.343a1.313,1.313,0,0,0,.594-1.029C272.923,291.438,272.658,291.285,272.33,291.474Z" transform="translate(-269.854 -285.954)"/>
          <path id="Path_601" data-name="Path 601" class="cls-7" d="M278.764,287.754a1.312,1.312,0,0,0-.594,1.029c0,.379.266.532.594.343a1.313,1.313,0,0,0,.594-1.029C279.358,287.718,279.092,287.565,278.764,287.754Z" transform="translate(-274.407 -283.322)"/>
          <path id="Path_602" data-name="Path 602" class="cls-7" d="M285.2,284.034a1.313,1.313,0,0,0-.594,1.029c0,.379.266.532.594.343a1.312,1.312,0,0,0,.594-1.029C285.792,284,285.526,283.845,285.2,284.034Z" transform="translate(-278.96 -280.69)"/>
          <path id="Path_603" data-name="Path 603" class="cls-7" d="M291.632,280.314a1.314,1.314,0,0,0-.594,1.029c0,.379.266.532.594.343a1.312,1.312,0,0,0,.594-1.029C292.226,280.278,291.96,280.124,291.632,280.314Z" transform="translate(-283.513 -278.057)"/>
          <path id="Path_604" data-name="Path 604" class="cls-7" d="M298.067,276.594a1.312,1.312,0,0,0-.594,1.029c0,.379.266.532.594.343a1.313,1.313,0,0,0,.594-1.029C298.66,276.558,298.395,276.4,298.067,276.594Z" transform="translate(-288.066 -275.425)"/>
          <path id="Path_605" data-name="Path 605" class="cls-7" d="M304.5,272.874a1.312,1.312,0,0,0-.594,1.029c0,.379.266.532.594.343a1.313,1.313,0,0,0,.594-1.029C305.095,272.838,304.829,272.684,304.5,272.874Z" transform="translate(-292.619 -272.792)"/>
        </g>
        <g id="Group_397" data-name="Group 397" transform="translate(4.751 63.133)">
          <path id="Path_606" data-name="Path 606" class="cls-7" d="M265.895,313.977a1.313,1.313,0,0,0-.594,1.029c0,.379.266.532.594.343a1.313,1.313,0,0,0,.594-1.029C266.489,313.941,266.223,313.787,265.895,313.977Z" transform="translate(-265.301 -307.369)"/>
          <path id="Path_607" data-name="Path 607" class="cls-7" d="M272.33,310.257a1.312,1.312,0,0,0-.594,1.029c0,.379.266.532.594.343a1.313,1.313,0,0,0,.594-1.029C272.923,310.221,272.658,310.067,272.33,310.257Z" transform="translate(-269.854 -304.737)"/>
          <path id="Path_608" data-name="Path 608" class="cls-7" d="M278.764,306.537a1.312,1.312,0,0,0-.594,1.029c0,.379.266.532.594.343a1.314,1.314,0,0,0,.594-1.029C279.358,306.5,279.092,306.347,278.764,306.537Z" transform="translate(-274.407 -302.104)"/>
          <path id="Path_609" data-name="Path 609" class="cls-7" d="M285.2,302.816a1.313,1.313,0,0,0-.594,1.029c0,.379.266.532.594.343a1.312,1.312,0,0,0,.594-1.029C285.792,302.78,285.526,302.627,285.2,302.816Z" transform="translate(-278.96 -299.472)"/>
          <path id="Path_610" data-name="Path 610" class="cls-7" d="M291.632,299.1a1.313,1.313,0,0,0-.594,1.029c0,.379.266.532.594.343a1.312,1.312,0,0,0,.594-1.029C292.226,299.06,291.96,298.907,291.632,299.1Z" transform="translate(-283.513 -296.84)"/>
          <path id="Path_611" data-name="Path 611" class="cls-7" d="M298.067,295.376a1.313,1.313,0,0,0-.594,1.029c0,.379.266.532.594.343a1.312,1.312,0,0,0,.594-1.029C298.66,295.34,298.395,295.186,298.067,295.376Z" transform="translate(-288.066 -294.207)"/>
          <path id="Path_612" data-name="Path 612" class="cls-7" d="M304.5,291.656a1.312,1.312,0,0,0-.594,1.029c0,.379.266.532.594.343a1.313,1.313,0,0,0,.594-1.029C305.095,291.62,304.829,291.466,304.5,291.656Z" transform="translate(-292.619 -291.574)"/>
        </g>
      </g>
    </g>
    <g id="Key" transform="translate(104.121 26.033)">
      <g id="Group_401" data-name="Group 401">
        <g id="Group_400" data-name="Group 400" transform="translate(0 33.244)">
          <g id="Group_399" data-name="Group 399">
            <path id="Path_613" data-name="Path 613" class="cls-8" d="M381.194,276.567a5.693,5.693,0,0,1-2.879-.761c-2.107-1.217-3.315-3.763-3.315-6.985,0-5.667,3.6-12.186,8.2-14.841,2.476-1.429,4.935-1.584,6.924-.436,2.107,1.217,3.315,3.763,3.315,6.985,0,5.667-3.6,12.186-8.2,14.841A8.148,8.148,0,0,1,381.194,276.567Zm6.041-19.7a4.329,4.329,0,0,0-2,.647c-3.34,1.928-6.161,7.106-6.161,11.308,0,1.7.477,2.991,1.276,3.452.91.525,2.173-.048,2.845-.436,3.339-1.928,6.161-7.106,6.161-11.308,0-1.7-.477-2.991-1.276-3.453A1.675,1.675,0,0,0,387.234,256.865Z" transform="translate(-374.999 -252.782)"/>
          </g>
          <path id="Path_614" data-name="Path 614" class="cls-14" d="M403.049,271.828a4.963,4.963,0,0,0-2.005-4.36h0c.8.461,1.276,1.752,1.276,3.453,0,4.2-2.821,9.38-6.161,11.308-.672.388-1.936.961-2.845.436a4.117,4.117,0,0,0,4.03-.225C400.729,280.593,403.049,276.03,403.049,271.828Z" transform="translate(-387.959 -263.174)"/>
        </g>
        <path id="Path_615" data-name="Path 615" class="cls-14" d="M405.4,141.19a2.109,2.109,0,0,0-4.218,0v.006h0v33.538h0a1.048,1.048,0,0,0,.618.861,3.3,3.3,0,0,0,2.983,0,1.048,1.048,0,0,0,.618-.861h0V141.2h0Z" transform="translate(-393.526 -139.081)"/>
        <path id="Path_616" data-name="Path 616" class="cls-8" d="M389.929,166.421a2.692,2.692,0,0,0-1.218-2.11.845.845,0,0,0-.871-.077v0l-5.2,3-.126.075a.282.282,0,0,0-.051.03,1.653,1.653,0,0,0-.249.2,1.724,1.724,0,0,0,2.033,2.741c.033-.018.066-.039.1-.057l5.237-3.016h0A.858.858,0,0,0,389.929,166.421Z" transform="translate(-379.74 -156.818)"/>
        <path id="Path_617" data-name="Path 617" class="cls-8" d="M387.763,195.147a2.692,2.692,0,0,0-1.218-2.11.846.846,0,0,0-.871-.077v0l-6.1,3.5-.126.075a.279.279,0,0,0-.051.03,1.633,1.633,0,0,0-.249.2,1.724,1.724,0,0,0,2.033,2.74c.033-.018.066-.039.1-.057l6.132-3.521h0A.858.858,0,0,0,387.763,195.147Z" transform="translate(-377.574 -177.144)"/>
      </g>
    </g>
  </g>
</svg>
