<svg xmlns="http://www.w3.org/2000/svg" width="1920.758" height="1080" viewBox="0 0 1920.758 1080">
  <defs>
    <style>
      .cls-1 {
        fill: #fff;
        stroke: #707070;
      }

      .cls-2 {
        fill: #e6f1fc;
      }

      .cls-3 {
        fill: #cae3f8;
      }

      .cls-10, .cls-4 {
        fill: #c4d9ed;
      }

      .cls-5 {
        fill: #d5e7f7;
      }

      .cls-6 {
        fill: #dceaf9;
      }

      .cls-7 {
        opacity: 0.8;
      }

      .cls-8 {
        fill: #adc9e0;
      }

      .cls-9 {
        fill: #ebf2f9;
      }

      .cls-10, .cls-24 {
        opacity: 0.4;
      }

      .cls-11 {
        fill: #a8d29f;
      }

      .cls-12 {
        fill: #f99746;
      }

      .cls-13 {
        fill: #699ff0;
      }

      .cls-14 {
        fill: #ff9136;
      }

      .cls-15 {
        fill: #2b478b;
      }

      .cls-16 {
        fill: #85b2ef;
      }

      .cls-17 {
        fill: #afcdfb;
      }

      .cls-18 {
        fill: #578ddd;
      }

      .cls-19 {
        fill: #ed7d2b;
      }

      .cls-20 {
        fill: #5c96e3;
      }

      .cls-21 {
        fill: #d3671e;
      }

      .cls-22 {
        fill: #f1a34f;
      }

      .cls-23 {
        fill: #e78b37;
      }

      .cls-24 {
        fill: #d86713;
      }

      .cls-25 {
        fill: #ffb27d;
      }

      .cls-26 {
        fill: #ed975d;
      }

      .cls-27 {
        fill: #6bb7bf;
      }

      .cls-28 {
        fill: #1c4575;
      }

      .cls-29 {
        fill: #5aa9ad;
      }

      .cls-30 {
        fill: #edf4ff;
      }

      .cls-31 {
        stroke: none;
      }

      .cls-32 {
        fill: none;
      }
    </style>
  </defs>
  <g id="Group_516" data-name="Group 516" transform="translate(0.758)">
    <g id="Rectangle_526" data-name="Rectangle 526" class="cls-1">
      <rect class="cls-31" width="1920" height="1080"/>
      <rect class="cls-32" x="0.5" y="0.5" width="1919" height="1079"/>
    </g>
    <g id="Group_515" data-name="Group 515">
      <g id="Group_514" data-name="Group 514">
        <g id="BACKGROUND" transform="translate(-0.157 326.527)">
          <path id="Path_10" data-name="Path 10" class="cls-2" d="M1920.157,190.539c-95.7-43.105-222.413-73.965-358.836-80.294C1426.771,104,1291.689,121.454,1169.137,146.5s-236.167,57.672-356.7,84.523c-81.43,18.139-170.146,33.95-261.29,30.891-98.268-3.3-186.708-28.107-284.263-34.228C171.608,221.706,72.544,236.156,0,263.569V522l.594.035c441.959,25.337,889.86,17.877,1335.433,12.327,183.17-2.281,369.771-4.49,542.948-30.646,13.781-2.082,27.635-4.389,41.181-7Z" transform="translate(0 208)"/>
          <path id="Path_11" data-name="Path 11" class="cls-3" d="M339.786,415.4c-8.169-4.238-16.276-9.014-22.35-15.928s-9.9-16.343-8.156-25.38,10.1-16.946,19.276-16.3c7.738.541,15.012,6.608,22.5,4.577,6.687-1.815,10.15-9.6,9.82-16.523s-3.429-13.354-5.622-19.926a78.862,78.862,0,0,1-1.942-42.786c1.2-5.094,3.011-10.235,6.6-14.048s9.3-6,14.214-4.2c3.817,1.4,6.45,4.826,9.547,7.463s7.671,4.56,11.133,2.425c2.255-1.39,3.3-4.074,4.119-6.594,4.62-14.26,6.591-29.4,12.7-43.087a77.8,77.8,0,0,1,44.5-41.106c11.512-4.077,27.068-3.888,32.861,6.862,3.064,5.686,2.3,12.675.479,18.87-5.293,17.954-18.444,32.569-25.34,49.971-2.536,6.4-3.714,14.835,1.618,19.19,4.6,3.759,11.314,2.259,17.255,2.182,9.549-.124,19.211,4.379,24.664,12.218s6.2,18.9,1.244,27.056c-6.911,11.372-21.586,14.493-34.156,18.857S448.5,353.613,450.559,366.76c1.668,10.661,13.441,18.4,12.876,29.175-.353,6.75-5.57,12.181-10.888,16.352a97.54,97.54,0,0,1-53.7,20.318C377.313,433.966,358.6,425.163,339.786,415.4Z" transform="translate(661.152 231.599)"/>
          <path id="Path_12" data-name="Path 12" class="cls-3" d="M554.412,440.928c-4.756-10.349-7.669-23.637-1.948-33.315,4.431-7.5,12.608-10.426,20.041-13.394,7.534-3.01,15.089-6.687,20.894-12.99s9.6-15.732,7.995-24.737c-.991-5.547-3.875-10.381-6.969-14.777-9.665-13.733-22.154-25.121-29.086-40.9-3.941-8.968-5.483-20.988.565-28.23,5.073-6.075,13.418-6.361,19.669-10.74,11.9-8.335,12.482-27.439,14.023-43.4,1.666-17.261,6.289-34.63,15.968-47.937s25.033-21.889,39.894-19.061c4.458.848,8.953,2.817,11.941,6.726,6.728,8.8,3.178,22.324.446,33.627a166.028,166.028,0,0,0-3.636,56.478c.515,4.782,1.3,9.711,3.7,13.654,7,11.492,22.061,8.357,34.008,5.637,8.383-1.908,17.21-2.944,25.361.014s15.469,10.738,16.448,20.527c1.58,15.791-12.242,26.973-22.975,36.948a123.933,123.933,0,0,0-19.977,24.053c-4.194,6.565-7.923,13.805-9.093,21.846s.639,17.04,6.012,22.34c6.8,6.706,17.69,6.372,23.564,14.15,6.159,8.154,3.62,20.913-.876,30.4-14.87,31.385-45.875,48.6-76.492,54.313C608.911,498.7,571.019,477.069,554.412,440.928Z" transform="translate(1170.157 208)"/>
          <path id="Path_13" data-name="Path 13" class="cls-3" d="M178.781,381.769c-5.159-5.865-9.462-14.234-5.969-21.22,4.706-9.411,18.844-8.355,26.946-15.068a4.052,4.052,0,0,0,1.681-2.516,4.141,4.141,0,0,0-1.218-2.884c-5.76-7.018-16.134-10.147-19.47-18.591-1.48-3.746-1.258-7.957-.466-11.906a44.426,44.426,0,0,1,21.249-29.432c6.25-3.565,13.637-5.566,20.711-4.249s13.65,6.385,15.537,13.328c4.054,14.919-13.475,27.973-13.2,43.431.244,13.853,14.13,23,26.576,29.083s26.732,13.675,29.118,27.323c4.368,24.991-24.917,28.618-41.909,24.073C216.481,407.288,194.165,399.258,178.781,381.769Z" transform="translate(313.241 180.087)"/>
          <path id="Path_14" data-name="Path 14" class="cls-3" d="M70.054,389.592c-5.773-5.738-11.528-12.382-12.367-20.479a19.92,19.92,0,0,1,13.375-20.394c2.779-.88,5.912-1.211,8.041-3.2,5.119-4.789.082-12.968-3.933-18.714-15.226-21.784-11.96-54.5,7.27-72.849,3.292-3.14,7.709-6.045,12.1-4.849,2.367.645,4.262,2.39,5.941,4.178a59.921,59.921,0,0,1,16.059,39.237c.115,5.006-.4,10.1.838,14.957s4.784,9.577,9.745,10.26c2.5.344,5.036-.37,7.559-.247,6.214.3,11.308,5.919,12.385,12.047s-1.2,12.447-4.737,17.563c-4.145,5.992-10.343,11.718-9.748,18.979.62,7.565,8.2,12.21,13.336,17.8,16.756,18.25,2.611,43.513-21.1,42.97C105.3,426.4,82.878,402.338,70.054,389.592Z" transform="translate(0 237.858)"/>
          <rect id="Rectangle_93" data-name="Rectangle 93" class="cls-3" width="1920.157" height="101.315" transform="translate(0 652.158)"/>
        </g>
      </g>
    </g>
    <g id="_5227" data-name="5227" transform="translate(-221.416 73.99)">
      <g id="Group_207" data-name="Group 207" transform="translate(559.979 477.897)">
        <g id="Group_126" data-name="Group 126" transform="translate(605.789)">
          <path id="Path_297" data-name="Path 297" class="cls-4" d="M2371.6,685.46v371.993h76.5V819.014a98.3,98.3,0,0,1-1.31-18.907,145.5,145.5,0,0,1,1.31-17.438V685.46Z" transform="translate(-2371.6 -685.351)"/>
          <path id="Path_298" data-name="Path 298" class="cls-5" d="M2409.47,685.46v371.993h76.5V856.938a87.223,87.223,0,0,1-7.194-10.245,77.586,77.586,0,0,1-8.826-21.467c-.437-2.014-.873-4.088-1.2-6.211a98.32,98.32,0,0,1-1.31-18.907,145.5,145.5,0,0,1,1.31-17.438c.164-1.305.382-2.669.6-4.088a248.434,248.434,0,0,1,5.229-25.118q.982-3.84,2.124-7.844c1.31-4.634,2.342-9.208,3.16-13.673a129.807,129.807,0,0,0,2.124-25.123,114.243,114.243,0,0,0-2.124-21.358H2409.47Z" transform="translate(-2392.25 -685.351)"/>
          <path id="Path_299" data-name="Path 299" class="cls-4" d="M2479.864,685.329a113.874,113.874,0,0,1,2.123,21.358H2409.46V685.22h70.4v.109Z" transform="translate(-2392.245 -685.22)"/>
          <path id="Path_300" data-name="Path 300" class="cls-4" d="M2409.47,787.68V809.2h65.115q.982-3.84,2.124-7.844c1.31-4.634,2.342-9.208,3.16-13.673h-70.4Z" transform="translate(-2392.25 -741.09)"/>
          <path id="Path_301" data-name="Path 301" class="cls-4" d="M2409.47,890.25v21.526h57.976a145.45,145.45,0,0,1,1.309-17.438c.164-1.305.382-2.669.6-4.088Z" transform="translate(-2392.25 -797.02)"/>
          <path id="Path_302" data-name="Path 302" class="cls-4" d="M2409.47,992.83V1014.3h69.308a77.586,77.586,0,0,1-8.826-21.467Z" transform="translate(-2392.25 -852.955)"/>
          <rect id="Rectangle_99" data-name="Rectangle 99" class="cls-4" width="76.479" height="21.494" transform="translate(93.7 207.979) rotate(180)"/>
          <rect id="Rectangle_100" data-name="Rectangle 100" class="cls-4" width="76.479" height="21.494" transform="translate(93.7 254.601) rotate(180)"/>
          <rect id="Rectangle_101" data-name="Rectangle 101" class="cls-4" width="76.479" height="21.494" transform="translate(93.7 301.224) rotate(180)"/>
          <rect id="Rectangle_102" data-name="Rectangle 102" class="cls-4" width="76.479" height="21.494" transform="translate(93.7 347.846) rotate(180)"/>
        </g>
        <g id="Group_127" data-name="Group 127" transform="translate(728.121 198.883)">
          <path id="Path_303" data-name="Path 303" class="cls-4" d="M2640.63,1122.6v173.219h76.5v-97.154c-.873-1.255-1.741-2.506-2.615-3.706a225.642,225.642,0,0,0-14.546-18.47,275.1,275.1,0,0,0-20.872-21.576c-1.687-1.583-3.378-3.106-5.065-4.634-.382-.327-.764-.655-1.146-1.037-.982-.818-1.96-1.691-2.942-2.505-4.143-3.6-8.171-6.975-12.15-10.245-2.014-1.637-3.979-3.215-5.938-4.8C2647.983,1128.6,2644.222,1125.547,2640.63,1122.6Z" transform="translate(-2640.63 -1122.6)"/>
          <path id="Path_304" data-name="Path 304" class="cls-5" d="M2678.37,1153.16v159.323h76.5v-66.42a8.412,8.412,0,0,0-.436-1.037c-1.8-3.979-3.761-7.9-5.884-11.882a204.606,204.606,0,0,0-10.845-17.816c-.873-1.255-1.742-2.505-2.615-3.706a225.59,225.59,0,0,0-14.546-18.471,275.158,275.158,0,0,0-20.871-21.576c-1.687-1.582-3.379-3.106-5.066-4.634-.382-.327-.764-.655-1.146-1.037-.982-.818-1.96-1.692-2.942-2.505C2686.382,1159.808,2682.349,1156.429,2678.37,1153.16Z" transform="translate(-2661.209 -1139.264)"/>
          <path id="Path_305" data-name="Path 305" class="cls-4" d="M2678.37,1153.16v18.416h21.3c-1.687-1.582-3.379-3.106-5.066-4.634-.382-.327-.764-.655-1.146-1.037-.982-.819-1.96-1.692-2.942-2.506C2686.382,1159.808,2682.349,1156.429,2678.37,1153.16Z" transform="translate(-2661.209 -1139.264)"/>
          <path id="Path_306" data-name="Path 306" class="cls-4" d="M2678.37,1241.12v18.471h56.721a225.549,225.549,0,0,0-14.546-18.471Z" transform="translate(-2661.209 -1187.227)"/>
          <path id="Path_307" data-name="Path 307" class="cls-4" d="M2678.37,1329.064v18.471h76.5v-5.557a8.413,8.413,0,0,0-.436-1.037c-1.8-3.979-3.761-7.9-5.884-11.882H2678.37Z" transform="translate(-2661.209 -1235.179)"/>
          <rect id="Rectangle_103" data-name="Rectangle 103" class="cls-4" width="76.479" height="18.452" transform="translate(93.653 152.392) rotate(180)"/>
        </g>
        <rect id="Rectangle_104" data-name="Rectangle 104" class="cls-6" width="32.035" height="46.713" transform="translate(596.439 407.392) rotate(180)"/>
        <path id="Path_308" data-name="Path 308" class="cls-5" d="M1269.634,926.378V897.527h8.762v-49.6h46.954v49.6h43.9V816.7H1417.7v52.47h11.05V806.52h48.445V923.977h61.268v68.494h22.89v17.256h52.583V980.017h30.193V899.277h37.291v149.042h37.3v129.689h-486.5V926.378Z" transform="translate(-1144.525 -751.363)"/>
        <rect id="Rectangle_105" data-name="Rectangle 105" class="cls-4" width="48.473" height="11.968" transform="translate(332.691 75.055) rotate(180)"/>
        <rect id="Rectangle_106" data-name="Rectangle 106" class="cls-4" width="48.473" height="11.968" transform="translate(332.691 97.54) rotate(180)"/>
        <rect id="Rectangle_107" data-name="Rectangle 107" class="cls-4" width="48.473" height="11.968" transform="translate(332.691 117.764) rotate(180)"/>
        <rect id="Rectangle_108" data-name="Rectangle 108" class="cls-4" width="48.473" height="11.968" transform="translate(273.215 117.764) rotate(180)"/>
        <rect id="Rectangle_109" data-name="Rectangle 109" class="cls-4" width="48.473" height="11.968" transform="translate(273.215 97.54) rotate(180)"/>
        <rect id="Rectangle_110" data-name="Rectangle 110" class="cls-4" width="48.473" height="11.968" transform="translate(273.215 77.341) rotate(180)"/>
        <rect id="Rectangle_111" data-name="Rectangle 111" class="cls-4" width="107.963" height="11.968" transform="translate(332.693 137.377) rotate(180)"/>
        <rect id="Rectangle_112" data-name="Rectangle 112" class="cls-4" width="107.963" height="11.968" transform="translate(332.693 156.99) rotate(180)"/>
        <rect id="Rectangle_113" data-name="Rectangle 113" class="cls-4" width="37.623" height="18.475" transform="translate(536.878 166.393) rotate(180)"/>
        <rect id="Rectangle_114" data-name="Rectangle 114" class="cls-4" width="37.623" height="18.475" transform="translate(536.878 193.87) rotate(180)"/>
        <rect id="Rectangle_115" data-name="Rectangle 115" class="cls-4" width="37.623" height="18.475" transform="translate(536.878 221.342) rotate(180)"/>
        <rect id="Rectangle_116" data-name="Rectangle 116" class="cls-4" width="37.623" height="18.475" transform="translate(536.878 250.141) rotate(180)"/>
        <rect id="Rectangle_117" data-name="Rectangle 117" class="cls-4" width="37.623" height="18.475" transform="translate(536.878 278.047) rotate(180)"/>
        <rect id="Rectangle_118" data-name="Rectangle 118" class="cls-4" width="37.623" height="18.475" transform="translate(536.878 305.952) rotate(180)"/>
        <rect id="Rectangle_119" data-name="Rectangle 119" class="cls-4" width="37.623" height="18.475" transform="translate(536.878 335.146) rotate(180)"/>
        <rect id="Rectangle_120" data-name="Rectangle 120" class="cls-4" width="107.963" height="7.598" transform="translate(332.693 171.788) rotate(180)"/>
        <rect id="Rectangle_121" data-name="Rectangle 121" class="cls-4" width="13.873" height="80.73" transform="translate(485.908 147.923)"/>
        <rect id="Rectangle_122" data-name="Rectangle 122" class="cls-4" width="27.901" height="29.711" transform="translate(441.509 228.653)"/>
        <path id="Path_309" data-name="Path 309" class="cls-4" d="M1522.061,828.99h-9.631v80.789h9.617Z" transform="translate(-1297.319 -763.616)"/>
        <rect id="Rectangle_123" data-name="Rectangle 123" class="cls-4" width="5.911" height="62.605" transform="translate(278.307 55.157)"/>
        <g id="Group_171" data-name="Group 171" class="cls-7" transform="translate(94.78 184.401)">
          <g id="Group_134" data-name="Group 134">
            <g id="Group_130" data-name="Group 130" transform="translate(148.028)">
              <g id="Group_128" data-name="Group 128" transform="translate(73.79)">
                <rect id="Rectangle_124" data-name="Rectangle 124" class="cls-4" width="8.212" height="11.577" transform="translate(67.326 11.577) rotate(180)"/>
                <rect id="Rectangle_125" data-name="Rectangle 125" class="cls-4" width="8.212" height="11.577" transform="translate(51.971 11.577) rotate(180)"/>
                <rect id="Rectangle_126" data-name="Rectangle 126" class="cls-4" width="8.212" height="11.577" transform="translate(36.953 11.577) rotate(180)"/>
                <rect id="Rectangle_127" data-name="Rectangle 127" class="cls-4" width="8.212" height="11.577" transform="translate(22.72 11.577) rotate(180)"/>
                <rect id="Rectangle_128" data-name="Rectangle 128" class="cls-4" width="8.212" height="11.577" transform="translate(8.212 11.577) rotate(180)"/>
              </g>
              <g id="Group_129" data-name="Group 129">
                <rect id="Rectangle_129" data-name="Rectangle 129" class="cls-4" width="8.212" height="11.577" transform="translate(67.326 11.577) rotate(180)"/>
                <rect id="Rectangle_130" data-name="Rectangle 130" class="cls-4" width="8.212" height="11.577" transform="translate(51.966 11.577) rotate(180)"/>
                <rect id="Rectangle_131" data-name="Rectangle 131" class="cls-4" width="8.212" height="11.577" transform="translate(36.953 11.577) rotate(180)"/>
                <rect id="Rectangle_132" data-name="Rectangle 132" class="cls-4" width="8.212" height="11.577" transform="translate(22.719 11.577) rotate(180)"/>
                <rect id="Rectangle_133" data-name="Rectangle 133" class="cls-4" width="8.212" height="11.577" transform="translate(8.212 11.577) rotate(180)"/>
              </g>
            </g>
            <g id="Group_133" data-name="Group 133">
              <g id="Group_131" data-name="Group 131" transform="translate(73.79)">
                <rect id="Rectangle_134" data-name="Rectangle 134" class="cls-4" width="8.212" height="11.577" transform="translate(67.33 11.577) rotate(180)"/>
                <rect id="Rectangle_135" data-name="Rectangle 135" class="cls-4" width="8.212" height="11.577" transform="translate(51.971 11.577) rotate(180)"/>
                <rect id="Rectangle_136" data-name="Rectangle 136" class="cls-4" width="8.212" height="11.577" transform="translate(36.958 11.577) rotate(180)"/>
                <rect id="Rectangle_137" data-name="Rectangle 137" class="cls-4" width="8.212" height="11.577" transform="translate(22.72 11.577) rotate(180)"/>
                <rect id="Rectangle_138" data-name="Rectangle 138" class="cls-4" width="8.212" height="11.577" transform="translate(8.212 11.577) rotate(180)"/>
              </g>
              <g id="Group_132" data-name="Group 132">
                <rect id="Rectangle_139" data-name="Rectangle 139" class="cls-4" width="8.212" height="11.577" transform="translate(67.326 11.577) rotate(180)"/>
                <rect id="Rectangle_140" data-name="Rectangle 140" class="cls-4" width="8.212" height="11.577" transform="translate(51.971 11.577) rotate(180)"/>
                <rect id="Rectangle_141" data-name="Rectangle 141" class="cls-4" width="8.212" height="11.577" transform="translate(36.958 11.577) rotate(180)"/>
                <rect id="Rectangle_142" data-name="Rectangle 142" class="cls-4" width="8.212" height="11.577" transform="translate(22.72 11.577) rotate(180)"/>
                <rect id="Rectangle_143" data-name="Rectangle 143" class="cls-4" width="8.212" height="11.577" transform="translate(8.212 11.577) rotate(180)"/>
              </g>
            </g>
          </g>
          <g id="Group_141" data-name="Group 141" transform="translate(0 20.428)">
            <g id="Group_137" data-name="Group 137" transform="translate(148.028)">
              <g id="Group_135" data-name="Group 135" transform="translate(73.79)">
                <rect id="Rectangle_144" data-name="Rectangle 144" class="cls-4" width="8.212" height="11.577" transform="translate(67.326 11.577) rotate(180)"/>
                <rect id="Rectangle_145" data-name="Rectangle 145" class="cls-4" width="8.212" height="11.577" transform="translate(51.971 11.577) rotate(180)"/>
                <rect id="Rectangle_146" data-name="Rectangle 146" class="cls-4" width="8.212" height="11.577" transform="translate(36.953 11.577) rotate(180)"/>
                <rect id="Rectangle_147" data-name="Rectangle 147" class="cls-4" width="8.212" height="11.577" transform="translate(22.72 11.577) rotate(180)"/>
                <rect id="Rectangle_148" data-name="Rectangle 148" class="cls-4" width="8.212" height="11.577" transform="translate(8.212 11.577) rotate(180)"/>
              </g>
              <g id="Group_136" data-name="Group 136">
                <rect id="Rectangle_149" data-name="Rectangle 149" class="cls-4" width="8.212" height="11.577" transform="translate(67.326 11.577) rotate(180)"/>
                <rect id="Rectangle_150" data-name="Rectangle 150" class="cls-4" width="8.212" height="11.577" transform="translate(51.966 11.577) rotate(180)"/>
                <rect id="Rectangle_151" data-name="Rectangle 151" class="cls-4" width="8.212" height="11.577" transform="translate(36.953 11.577) rotate(180)"/>
                <rect id="Rectangle_152" data-name="Rectangle 152" class="cls-4" width="8.212" height="11.577" transform="translate(22.719 11.577) rotate(180)"/>
                <rect id="Rectangle_153" data-name="Rectangle 153" class="cls-4" width="8.212" height="11.577" transform="translate(8.212 11.577) rotate(180)"/>
              </g>
            </g>
            <g id="Group_140" data-name="Group 140">
              <g id="Group_138" data-name="Group 138" transform="translate(73.79)">
                <rect id="Rectangle_154" data-name="Rectangle 154" class="cls-4" width="8.212" height="11.577" transform="translate(67.33 11.577) rotate(180)"/>
                <rect id="Rectangle_155" data-name="Rectangle 155" class="cls-4" width="8.212" height="11.577" transform="translate(51.971 11.577) rotate(180)"/>
                <rect id="Rectangle_156" data-name="Rectangle 156" class="cls-4" width="8.212" height="11.577" transform="translate(36.958 11.577) rotate(180)"/>
                <rect id="Rectangle_157" data-name="Rectangle 157" class="cls-4" width="8.212" height="11.577" transform="translate(22.72 11.577) rotate(180)"/>
                <rect id="Rectangle_158" data-name="Rectangle 158" class="cls-4" width="8.212" height="11.577" transform="translate(8.212 11.577) rotate(180)"/>
              </g>
              <g id="Group_139" data-name="Group 139">
                <rect id="Rectangle_159" data-name="Rectangle 159" class="cls-4" width="8.212" height="11.577" transform="translate(67.326 11.577) rotate(180)"/>
                <rect id="Rectangle_160" data-name="Rectangle 160" class="cls-4" width="8.212" height="11.577" transform="translate(51.971 11.577) rotate(180)"/>
                <rect id="Rectangle_161" data-name="Rectangle 161" class="cls-4" width="8.212" height="11.577" transform="translate(36.958 11.577) rotate(180)"/>
                <rect id="Rectangle_162" data-name="Rectangle 162" class="cls-4" width="8.212" height="11.577" transform="translate(22.72 11.577) rotate(180)"/>
                <rect id="Rectangle_163" data-name="Rectangle 163" class="cls-4" width="8.212" height="11.577" transform="translate(8.212 11.577) rotate(180)"/>
              </g>
            </g>
          </g>
          <g id="Group_148" data-name="Group 148" transform="translate(0 40.539)">
            <g id="Group_144" data-name="Group 144" transform="translate(148.028)">
              <g id="Group_142" data-name="Group 142" transform="translate(73.79)">
                <rect id="Rectangle_164" data-name="Rectangle 164" class="cls-4" width="8.212" height="11.577" transform="translate(67.326 11.577) rotate(180)"/>
                <rect id="Rectangle_165" data-name="Rectangle 165" class="cls-4" width="8.212" height="11.577" transform="translate(51.971 11.577) rotate(180)"/>
                <rect id="Rectangle_166" data-name="Rectangle 166" class="cls-4" width="8.212" height="11.577" transform="translate(36.953 11.577) rotate(180)"/>
                <rect id="Rectangle_167" data-name="Rectangle 167" class="cls-4" width="8.212" height="11.577" transform="translate(22.72 11.577) rotate(180)"/>
                <rect id="Rectangle_168" data-name="Rectangle 168" class="cls-4" width="8.212" height="11.577" transform="translate(8.212 11.577) rotate(180)"/>
              </g>
              <g id="Group_143" data-name="Group 143">
                <rect id="Rectangle_169" data-name="Rectangle 169" class="cls-4" width="8.212" height="11.577" transform="translate(67.326 11.577) rotate(180)"/>
                <rect id="Rectangle_170" data-name="Rectangle 170" class="cls-4" width="8.212" height="11.577" transform="translate(51.966 11.577) rotate(180)"/>
                <rect id="Rectangle_171" data-name="Rectangle 171" class="cls-4" width="8.212" height="11.577" transform="translate(36.953 11.577) rotate(180)"/>
                <rect id="Rectangle_172" data-name="Rectangle 172" class="cls-4" width="8.212" height="11.577" transform="translate(22.719 11.577) rotate(180)"/>
                <rect id="Rectangle_173" data-name="Rectangle 173" class="cls-4" width="8.212" height="11.577" transform="translate(8.212 11.577) rotate(180)"/>
              </g>
            </g>
            <g id="Group_147" data-name="Group 147">
              <g id="Group_145" data-name="Group 145" transform="translate(73.79)">
                <rect id="Rectangle_174" data-name="Rectangle 174" class="cls-4" width="8.212" height="11.577" transform="translate(67.33 11.577) rotate(180)"/>
                <rect id="Rectangle_175" data-name="Rectangle 175" class="cls-4" width="8.212" height="11.577" transform="translate(51.971 11.577) rotate(180)"/>
                <rect id="Rectangle_176" data-name="Rectangle 176" class="cls-4" width="8.212" height="11.577" transform="translate(36.958 11.577) rotate(180)"/>
                <rect id="Rectangle_177" data-name="Rectangle 177" class="cls-4" width="8.212" height="11.577" transform="translate(22.72 11.577) rotate(180)"/>
                <rect id="Rectangle_178" data-name="Rectangle 178" class="cls-4" width="8.212" height="11.577" transform="translate(8.212 11.577) rotate(180)"/>
              </g>
              <g id="Group_146" data-name="Group 146">
                <rect id="Rectangle_179" data-name="Rectangle 179" class="cls-4" width="8.212" height="11.577" transform="translate(67.326 11.577) rotate(180)"/>
                <rect id="Rectangle_180" data-name="Rectangle 180" class="cls-4" width="8.212" height="11.577" transform="translate(51.971 11.577) rotate(180)"/>
                <rect id="Rectangle_181" data-name="Rectangle 181" class="cls-4" width="8.212" height="11.577" transform="translate(36.958 11.577) rotate(180)"/>
                <rect id="Rectangle_182" data-name="Rectangle 182" class="cls-4" width="8.212" height="11.577" transform="translate(22.72 11.577) rotate(180)"/>
                <rect id="Rectangle_183" data-name="Rectangle 183" class="cls-4" width="8.212" height="11.577" transform="translate(8.212 11.577) rotate(180)"/>
              </g>
            </g>
          </g>
          <g id="Group_170" data-name="Group 170" transform="translate(0 61.909)">
            <g id="Group_155" data-name="Group 155">
              <g id="Group_151" data-name="Group 151" transform="translate(148.028)">
                <g id="Group_149" data-name="Group 149" transform="translate(73.79)">
                  <rect id="Rectangle_184" data-name="Rectangle 184" class="cls-4" width="8.212" height="11.577" transform="translate(67.326 11.577) rotate(180)"/>
                  <rect id="Rectangle_185" data-name="Rectangle 185" class="cls-4" width="8.212" height="11.577" transform="translate(51.971 11.577) rotate(180)"/>
                  <rect id="Rectangle_186" data-name="Rectangle 186" class="cls-4" width="8.212" height="11.577" transform="translate(36.953 11.577) rotate(180)"/>
                  <rect id="Rectangle_187" data-name="Rectangle 187" class="cls-4" width="8.212" height="11.577" transform="translate(22.72 11.577) rotate(180)"/>
                  <rect id="Rectangle_188" data-name="Rectangle 188" class="cls-4" width="8.212" height="11.577" transform="translate(8.212 11.577) rotate(180)"/>
                </g>
                <g id="Group_150" data-name="Group 150">
                  <rect id="Rectangle_189" data-name="Rectangle 189" class="cls-4" width="8.212" height="11.577" transform="translate(67.326 11.577) rotate(180)"/>
                  <rect id="Rectangle_190" data-name="Rectangle 190" class="cls-4" width="8.212" height="11.577" transform="translate(51.966 11.577) rotate(180)"/>
                  <rect id="Rectangle_191" data-name="Rectangle 191" class="cls-4" width="8.212" height="11.577" transform="translate(36.953 11.577) rotate(180)"/>
                  <rect id="Rectangle_192" data-name="Rectangle 192" class="cls-4" width="8.212" height="11.577" transform="translate(22.719 11.577) rotate(180)"/>
                  <rect id="Rectangle_193" data-name="Rectangle 193" class="cls-4" width="8.212" height="11.577" transform="translate(8.212 11.577) rotate(180)"/>
                </g>
              </g>
              <g id="Group_154" data-name="Group 154">
                <g id="Group_152" data-name="Group 152" transform="translate(73.79)">
                  <rect id="Rectangle_194" data-name="Rectangle 194" class="cls-4" width="8.212" height="11.577" transform="translate(67.33 11.577) rotate(180)"/>
                  <rect id="Rectangle_195" data-name="Rectangle 195" class="cls-4" width="8.212" height="11.577" transform="translate(51.971 11.577) rotate(180)"/>
                  <rect id="Rectangle_196" data-name="Rectangle 196" class="cls-4" width="8.212" height="11.577" transform="translate(36.958 11.577) rotate(180)"/>
                  <rect id="Rectangle_197" data-name="Rectangle 197" class="cls-4" width="8.212" height="11.577" transform="translate(22.72 11.577) rotate(180)"/>
                  <rect id="Rectangle_198" data-name="Rectangle 198" class="cls-4" width="8.212" height="11.577" transform="translate(8.212 11.577) rotate(180)"/>
                </g>
                <g id="Group_153" data-name="Group 153">
                  <rect id="Rectangle_199" data-name="Rectangle 199" class="cls-4" width="8.212" height="11.577" transform="translate(67.326 11.577) rotate(180)"/>
                  <rect id="Rectangle_200" data-name="Rectangle 200" class="cls-4" width="8.212" height="11.577" transform="translate(51.971 11.577) rotate(180)"/>
                  <rect id="Rectangle_201" data-name="Rectangle 201" class="cls-4" width="8.212" height="11.577" transform="translate(36.958 11.577) rotate(180)"/>
                  <rect id="Rectangle_202" data-name="Rectangle 202" class="cls-4" width="8.212" height="11.577" transform="translate(22.72 11.577) rotate(180)"/>
                  <rect id="Rectangle_203" data-name="Rectangle 203" class="cls-4" width="8.212" height="11.577" transform="translate(8.212 11.577) rotate(180)"/>
                </g>
              </g>
            </g>
            <g id="Group_162" data-name="Group 162" transform="translate(0 20.428)">
              <g id="Group_158" data-name="Group 158" transform="translate(148.028)">
                <g id="Group_156" data-name="Group 156" transform="translate(73.79)">
                  <rect id="Rectangle_204" data-name="Rectangle 204" class="cls-4" width="8.212" height="11.577" transform="translate(67.326 11.577) rotate(180)"/>
                  <rect id="Rectangle_205" data-name="Rectangle 205" class="cls-4" width="8.212" height="11.577" transform="translate(51.971 11.577) rotate(180)"/>
                  <rect id="Rectangle_206" data-name="Rectangle 206" class="cls-4" width="8.212" height="11.577" transform="translate(36.953 11.577) rotate(180)"/>
                  <rect id="Rectangle_207" data-name="Rectangle 207" class="cls-4" width="8.212" height="11.577" transform="translate(22.72 11.577) rotate(180)"/>
                  <rect id="Rectangle_208" data-name="Rectangle 208" class="cls-4" width="8.212" height="11.577" transform="translate(8.212 11.577) rotate(180)"/>
                </g>
                <g id="Group_157" data-name="Group 157">
                  <rect id="Rectangle_209" data-name="Rectangle 209" class="cls-4" width="8.212" height="11.577" transform="translate(67.326 11.577) rotate(180)"/>
                  <rect id="Rectangle_210" data-name="Rectangle 210" class="cls-4" width="8.212" height="11.577" transform="translate(51.966 11.577) rotate(180)"/>
                  <rect id="Rectangle_211" data-name="Rectangle 211" class="cls-4" width="8.212" height="11.577" transform="translate(36.953 11.577) rotate(180)"/>
                  <rect id="Rectangle_212" data-name="Rectangle 212" class="cls-4" width="8.212" height="11.577" transform="translate(22.719 11.577) rotate(180)"/>
                  <rect id="Rectangle_213" data-name="Rectangle 213" class="cls-4" width="8.212" height="11.577" transform="translate(8.212 11.577) rotate(180)"/>
                </g>
              </g>
              <g id="Group_161" data-name="Group 161">
                <g id="Group_159" data-name="Group 159" transform="translate(73.79)">
                  <rect id="Rectangle_214" data-name="Rectangle 214" class="cls-4" width="8.212" height="11.577" transform="translate(67.33 11.577) rotate(180)"/>
                  <rect id="Rectangle_215" data-name="Rectangle 215" class="cls-4" width="8.212" height="11.577" transform="translate(51.971 11.577) rotate(180)"/>
                  <rect id="Rectangle_216" data-name="Rectangle 216" class="cls-4" width="8.212" height="11.577" transform="translate(36.958 11.577) rotate(180)"/>
                  <rect id="Rectangle_217" data-name="Rectangle 217" class="cls-4" width="8.212" height="11.577" transform="translate(22.72 11.577) rotate(180)"/>
                  <rect id="Rectangle_218" data-name="Rectangle 218" class="cls-4" width="8.212" height="11.577" transform="translate(8.212 11.577) rotate(180)"/>
                </g>
                <g id="Group_160" data-name="Group 160">
                  <rect id="Rectangle_219" data-name="Rectangle 219" class="cls-4" width="8.212" height="11.577" transform="translate(67.326 11.577) rotate(180)"/>
                  <rect id="Rectangle_220" data-name="Rectangle 220" class="cls-4" width="8.212" height="11.577" transform="translate(51.971 11.577) rotate(180)"/>
                  <rect id="Rectangle_221" data-name="Rectangle 221" class="cls-4" width="8.212" height="11.577" transform="translate(36.958 11.577) rotate(180)"/>
                  <rect id="Rectangle_222" data-name="Rectangle 222" class="cls-4" width="8.212" height="11.577" transform="translate(22.72 11.577) rotate(180)"/>
                  <rect id="Rectangle_223" data-name="Rectangle 223" class="cls-4" width="8.212" height="11.577" transform="translate(8.212 11.577) rotate(180)"/>
                </g>
              </g>
            </g>
            <g id="Group_169" data-name="Group 169" transform="translate(0 40.544)">
              <g id="Group_165" data-name="Group 165" transform="translate(148.028)">
                <g id="Group_163" data-name="Group 163" transform="translate(73.79)">
                  <rect id="Rectangle_224" data-name="Rectangle 224" class="cls-4" width="8.212" height="11.577" transform="translate(67.326 11.577) rotate(180)"/>
                  <rect id="Rectangle_225" data-name="Rectangle 225" class="cls-4" width="8.212" height="11.577" transform="translate(51.971 11.577) rotate(180)"/>
                  <rect id="Rectangle_226" data-name="Rectangle 226" class="cls-4" width="8.212" height="11.577" transform="translate(36.953 11.577) rotate(180)"/>
                  <rect id="Rectangle_227" data-name="Rectangle 227" class="cls-4" width="8.212" height="11.577" transform="translate(22.72 11.577) rotate(180)"/>
                  <rect id="Rectangle_228" data-name="Rectangle 228" class="cls-4" width="8.212" height="11.577" transform="translate(8.212 11.577) rotate(180)"/>
                </g>
                <g id="Group_164" data-name="Group 164">
                  <rect id="Rectangle_229" data-name="Rectangle 229" class="cls-4" width="8.212" height="11.577" transform="translate(67.326 11.577) rotate(180)"/>
                  <rect id="Rectangle_230" data-name="Rectangle 230" class="cls-4" width="8.212" height="11.577" transform="translate(51.966 11.577) rotate(180)"/>
                  <rect id="Rectangle_231" data-name="Rectangle 231" class="cls-4" width="8.212" height="11.577" transform="translate(36.953 11.577) rotate(180)"/>
                  <rect id="Rectangle_232" data-name="Rectangle 232" class="cls-4" width="8.212" height="11.577" transform="translate(22.719 11.577) rotate(180)"/>
                  <rect id="Rectangle_233" data-name="Rectangle 233" class="cls-4" width="8.212" height="11.577" transform="translate(8.212 11.577) rotate(180)"/>
                </g>
              </g>
              <g id="Group_168" data-name="Group 168">
                <g id="Group_166" data-name="Group 166" transform="translate(73.79)">
                  <rect id="Rectangle_234" data-name="Rectangle 234" class="cls-4" width="8.212" height="11.577" transform="translate(67.33 11.577) rotate(180)"/>
                  <rect id="Rectangle_235" data-name="Rectangle 235" class="cls-4" width="8.212" height="11.577" transform="translate(51.971 11.577) rotate(180)"/>
                  <rect id="Rectangle_236" data-name="Rectangle 236" class="cls-4" width="8.212" height="11.577" transform="translate(36.958 11.577) rotate(180)"/>
                  <rect id="Rectangle_237" data-name="Rectangle 237" class="cls-4" width="8.212" height="11.577" transform="translate(22.72 11.577) rotate(180)"/>
                  <rect id="Rectangle_238" data-name="Rectangle 238" class="cls-4" width="8.212" height="11.577" transform="translate(8.212 11.577) rotate(180)"/>
                </g>
                <g id="Group_167" data-name="Group 167">
                  <rect id="Rectangle_239" data-name="Rectangle 239" class="cls-4" width="8.212" height="11.577" transform="translate(67.326 11.577) rotate(180)"/>
                  <rect id="Rectangle_240" data-name="Rectangle 240" class="cls-4" width="8.212" height="11.577" transform="translate(51.971 11.577) rotate(180)"/>
                  <rect id="Rectangle_241" data-name="Rectangle 241" class="cls-4" width="8.212" height="11.577" transform="translate(36.958 11.577) rotate(180)"/>
                  <rect id="Rectangle_242" data-name="Rectangle 242" class="cls-4" width="8.212" height="11.577" transform="translate(22.72 11.577) rotate(180)"/>
                  <rect id="Rectangle_243" data-name="Rectangle 243" class="cls-4" width="8.212" height="11.577" transform="translate(8.212 11.577) rotate(180)"/>
                </g>
              </g>
            </g>
          </g>
        </g>
        <rect id="Rectangle_244" data-name="Rectangle 244" class="cls-4" width="190.348" height="102.688" transform="translate(441.51 425.81) rotate(180)"/>
        <rect id="Rectangle_245" data-name="Rectangle 245" class="cls-4" width="190.348" height="51.346" transform="translate(585.845 425.809) rotate(180)"/>
        <rect id="Rectangle_246" data-name="Rectangle 246" class="cls-4" width="190.348" height="86.687" transform="translate(235.899 425.81) rotate(180)"/>
        <rect id="Rectangle_247" data-name="Rectangle 247" class="cls-5" width="35.463" height="19.021" transform="translate(428.792 354.163) rotate(180)"/>
        <rect id="Rectangle_248" data-name="Rectangle 248" class="cls-5" width="35.463" height="19.021" transform="translate(383.268 354.163) rotate(180)"/>
        <rect id="Rectangle_249" data-name="Rectangle 249" class="cls-5" width="35.463" height="19.021" transform="translate(338.612 354.163) rotate(180)"/>
        <rect id="Rectangle_250" data-name="Rectangle 250" class="cls-5" width="35.463" height="19.021" transform="translate(294.812 354.163) rotate(180)"/>
        <rect id="Rectangle_251" data-name="Rectangle 251" class="cls-8" width="18.27" height="103.575" transform="translate(253.138 426.694) rotate(180)"/>
        <rect id="Rectangle_252" data-name="Rectangle 252" class="cls-8" width="18.27" height="123.605" transform="translate(26.498 426.693) rotate(180)"/>
        <rect id="Rectangle_253" data-name="Rectangle 253" class="cls-8" width="19.612" height="85.855" transform="translate(45.548 424.976) rotate(180)"/>
        <g id="Group_172" data-name="Group 172" transform="translate(59.69 303.586)">
          <path id="Path_310" data-name="Path 310" class="cls-6" d="M1171.189,1433.728c.509,1.359,1.737,2.16,2.751,1.782s1.419-1.787.914-3.147-4.224-5.734-4.224-5.734S1170.685,1432.364,1171.189,1433.728Z" transform="translate(-1170.63 -1393.086)"/>
          <path id="Path_311" data-name="Path 311" class="cls-6" d="M1193.139,1359.958c.509,1.36,1.737,2.16,2.751,1.783s1.419-1.787.914-3.147-4.224-5.734-4.224-5.734S1192.63,1358.594,1193.139,1359.958Z" transform="translate(-1182.599 -1352.86)"/>
          <path id="Path_312" data-name="Path 312" class="cls-6" d="M1277.269,1471.2c.509,1.36,1.737,2.16,2.751,1.782s1.419-1.787.914-3.146-4.224-5.734-4.224-5.734S1276.76,1469.834,1277.269,1471.2Z" transform="translate(-1228.474 -1413.517)"/>
        </g>
        <path id="Path_313" data-name="Path 313" class="cls-9" d="M1189.341,1590.426s3.524,7.607-3.338,8.162-10.945-2.228-12.614-5.566c0,0,8.535,3.524,7.234-.741a101.843,101.843,0,0,0-4.638-11.131s7.23,12.991,10.836,12.368C1188.432,1593.241,1189.341,1590.426,1189.341,1590.426Z" transform="translate(-1112.445 -1173.757)"/>
        <rect id="Rectangle_254" data-name="Rectangle 254" class="cls-6" width="0.991" height="8.039" transform="translate(529.392 147.92) rotate(180)"/>
        <rect id="Rectangle_255" data-name="Rectangle 255" class="cls-6" width="0.991" height="8.039" transform="translate(493.845 147.92) rotate(180)"/>
        <rect id="Rectangle_256" data-name="Rectangle 256" class="cls-5" width="104.766" height="122.187" transform="translate(130.699 424.975) rotate(180)"/>
        <rect id="Rectangle_257" data-name="Rectangle 257" class="cls-5" width="1.937" height="24.773" transform="translate(34.897 303.087) rotate(180)"/>
        <g id="Group_183" data-name="Group 183" transform="translate(0 325.593)">
          <rect id="Rectangle_258" data-name="Rectangle 258" class="cls-5" width="130.699" height="87.896" transform="translate(130.699 99.384) rotate(180)"/>
          <rect id="Rectangle_259" data-name="Rectangle 259" class="cls-4" width="130.699" height="28.57" transform="translate(130.699 28.57) rotate(180)"/>
          <g id="Group_182" data-name="Group 182" transform="translate(6.462 37.038)">
            <g id="Group_175" data-name="Group 175">
              <g id="Group_173" data-name="Group 173" transform="translate(60.313)">
                <rect id="Rectangle_260" data-name="Rectangle 260" class="cls-4" width="6.712" height="9.463" transform="translate(55.027 9.463) rotate(180)"/>
                <rect id="Rectangle_261" data-name="Rectangle 261" class="cls-4" width="6.712" height="9.463" transform="translate(42.472 9.463) rotate(180)"/>
                <rect id="Rectangle_262" data-name="Rectangle 262" class="cls-4" width="6.712" height="9.463" transform="translate(30.203 9.463) rotate(180)"/>
                <rect id="Rectangle_263" data-name="Rectangle 263" class="cls-4" width="6.712" height="9.463" transform="translate(18.569 9.463) rotate(180)"/>
                <rect id="Rectangle_264" data-name="Rectangle 264" class="cls-4" width="6.712" height="9.463" transform="translate(6.712 9.463) rotate(180)"/>
              </g>
              <g id="Group_174" data-name="Group 174">
                <rect id="Rectangle_265" data-name="Rectangle 265" class="cls-4" width="6.712" height="9.463" transform="translate(55.027 9.463) rotate(180)"/>
                <rect id="Rectangle_266" data-name="Rectangle 266" class="cls-4" width="6.712" height="9.463" transform="translate(42.477 9.463) rotate(180)"/>
                <rect id="Rectangle_267" data-name="Rectangle 267" class="cls-4" width="6.712" height="9.463" transform="translate(30.203 9.463) rotate(180)"/>
                <rect id="Rectangle_268" data-name="Rectangle 268" class="cls-4" width="6.712" height="9.463" transform="translate(18.569 9.463) rotate(180)"/>
                <rect id="Rectangle_269" data-name="Rectangle 269" class="cls-4" width="6.712" height="9.463" transform="translate(6.712 9.463) rotate(180)"/>
              </g>
            </g>
            <g id="Group_178" data-name="Group 178" transform="translate(0 16.693)">
              <g id="Group_176" data-name="Group 176" transform="translate(60.313)">
                <rect id="Rectangle_270" data-name="Rectangle 270" class="cls-4" width="6.712" height="9.463" transform="translate(55.027 9.463) rotate(180)"/>
                <rect id="Rectangle_271" data-name="Rectangle 271" class="cls-4" width="6.712" height="9.463" transform="translate(42.472 9.463) rotate(180)"/>
                <rect id="Rectangle_272" data-name="Rectangle 272" class="cls-4" width="6.712" height="9.463" transform="translate(30.203 9.463) rotate(180)"/>
                <rect id="Rectangle_273" data-name="Rectangle 273" class="cls-4" width="6.712" height="9.463" transform="translate(18.569 9.463) rotate(180)"/>
                <rect id="Rectangle_274" data-name="Rectangle 274" class="cls-4" width="6.712" height="9.463" transform="translate(6.712 9.463) rotate(180)"/>
              </g>
              <g id="Group_177" data-name="Group 177">
                <rect id="Rectangle_275" data-name="Rectangle 275" class="cls-4" width="6.712" height="9.463" transform="translate(55.027 9.463) rotate(180)"/>
                <rect id="Rectangle_276" data-name="Rectangle 276" class="cls-4" width="6.712" height="9.463" transform="translate(42.477 9.463) rotate(180)"/>
                <rect id="Rectangle_277" data-name="Rectangle 277" class="cls-4" width="6.712" height="9.463" transform="translate(30.203 9.463) rotate(180)"/>
                <rect id="Rectangle_278" data-name="Rectangle 278" class="cls-4" width="6.712" height="9.463" transform="translate(18.569 9.463) rotate(180)"/>
                <rect id="Rectangle_279" data-name="Rectangle 279" class="cls-4" width="6.712" height="9.463" transform="translate(6.712 9.463) rotate(180)"/>
              </g>
            </g>
            <g id="Group_181" data-name="Group 181" transform="translate(0 33.135)">
              <g id="Group_179" data-name="Group 179" transform="translate(60.313)">
                <rect id="Rectangle_280" data-name="Rectangle 280" class="cls-4" width="6.712" height="9.463" transform="translate(55.027 9.463) rotate(180)"/>
                <rect id="Rectangle_281" data-name="Rectangle 281" class="cls-4" width="6.712" height="9.463" transform="translate(42.472 9.463) rotate(180)"/>
                <rect id="Rectangle_282" data-name="Rectangle 282" class="cls-4" width="6.712" height="9.463" transform="translate(30.203 9.463) rotate(180)"/>
                <rect id="Rectangle_283" data-name="Rectangle 283" class="cls-4" width="6.712" height="9.463" transform="translate(18.569 9.463) rotate(180)"/>
                <rect id="Rectangle_284" data-name="Rectangle 284" class="cls-4" width="6.712" height="9.463" transform="translate(6.712 9.463) rotate(180)"/>
              </g>
              <g id="Group_180" data-name="Group 180">
                <rect id="Rectangle_285" data-name="Rectangle 285" class="cls-4" width="6.712" height="9.463" transform="translate(55.027 9.463) rotate(180)"/>
                <rect id="Rectangle_286" data-name="Rectangle 286" class="cls-4" width="6.712" height="9.463" transform="translate(42.477 9.463) rotate(180)"/>
                <rect id="Rectangle_287" data-name="Rectangle 287" class="cls-4" width="6.712" height="9.463" transform="translate(30.203 9.463) rotate(180)"/>
                <rect id="Rectangle_288" data-name="Rectangle 288" class="cls-4" width="6.712" height="9.463" transform="translate(18.569 9.463) rotate(180)"/>
                <rect id="Rectangle_289" data-name="Rectangle 289" class="cls-4" width="6.712" height="9.463" transform="translate(6.712 9.463) rotate(180)"/>
              </g>
            </g>
          </g>
          <rect id="Rectangle_290" data-name="Rectangle 290" class="cls-8" width="5.638" height="9.758" transform="translate(120.73 17.787) rotate(180)"/>
          <rect id="Rectangle_291" data-name="Rectangle 291" class="cls-8" width="5.638" height="9.758" transform="translate(64.731 17.787) rotate(180)"/>
          <rect id="Rectangle_292" data-name="Rectangle 292" class="cls-8" width="5.638" height="9.758" transform="translate(20.182 17.787) rotate(180)"/>
        </g>
        <g id="Group_194" data-name="Group 194" transform="translate(549.811 325.593)">
          <rect id="Rectangle_293" data-name="Rectangle 293" class="cls-5" width="130.699" height="87.896" transform="translate(130.699 99.384) rotate(180)"/>
          <rect id="Rectangle_294" data-name="Rectangle 294" class="cls-4" width="130.699" height="28.57" transform="translate(130.699 28.57) rotate(180)"/>
          <g id="Group_193" data-name="Group 193" transform="translate(6.462 37.038)">
            <g id="Group_186" data-name="Group 186">
              <g id="Group_184" data-name="Group 184" transform="translate(60.308)">
                <rect id="Rectangle_295" data-name="Rectangle 295" class="cls-4" width="6.712" height="9.463" transform="translate(55.031 9.463) rotate(180)"/>
                <rect id="Rectangle_296" data-name="Rectangle 296" class="cls-4" width="6.712" height="9.463" transform="translate(42.477 9.463) rotate(180)"/>
                <rect id="Rectangle_297" data-name="Rectangle 297" class="cls-4" width="6.712" height="9.463" transform="translate(30.207 9.463) rotate(180)"/>
                <rect id="Rectangle_298" data-name="Rectangle 298" class="cls-4" width="6.712" height="9.463" transform="translate(18.569 9.463) rotate(180)"/>
                <rect id="Rectangle_299" data-name="Rectangle 299" class="cls-4" width="6.712" height="9.463" transform="translate(6.712 9.463) rotate(180)"/>
              </g>
              <g id="Group_185" data-name="Group 185">
                <rect id="Rectangle_300" data-name="Rectangle 300" class="cls-4" width="6.712" height="9.463" transform="translate(55.027 9.463) rotate(180)"/>
                <rect id="Rectangle_301" data-name="Rectangle 301" class="cls-4" width="6.712" height="9.463" transform="translate(42.472 9.463) rotate(180)"/>
                <rect id="Rectangle_302" data-name="Rectangle 302" class="cls-4" width="6.712" height="9.463" transform="translate(30.203 9.463) rotate(180)"/>
                <rect id="Rectangle_303" data-name="Rectangle 303" class="cls-4" width="6.712" height="9.463" transform="translate(18.569 9.463) rotate(180)"/>
                <rect id="Rectangle_304" data-name="Rectangle 304" class="cls-4" width="6.712" height="9.463" transform="translate(6.712 9.463) rotate(180)"/>
              </g>
            </g>
            <g id="Group_189" data-name="Group 189" transform="translate(0 16.693)">
              <g id="Group_187" data-name="Group 187" transform="translate(60.308)">
                <rect id="Rectangle_305" data-name="Rectangle 305" class="cls-4" width="6.712" height="9.463" transform="translate(55.031 9.463) rotate(180)"/>
                <rect id="Rectangle_306" data-name="Rectangle 306" class="cls-4" width="6.712" height="9.463" transform="translate(42.477 9.463) rotate(180)"/>
                <rect id="Rectangle_307" data-name="Rectangle 307" class="cls-4" width="6.712" height="9.463" transform="translate(30.207 9.463) rotate(180)"/>
                <rect id="Rectangle_308" data-name="Rectangle 308" class="cls-4" width="6.712" height="9.463" transform="translate(18.569 9.463) rotate(180)"/>
                <rect id="Rectangle_309" data-name="Rectangle 309" class="cls-4" width="6.712" height="9.463" transform="translate(6.712 9.463) rotate(180)"/>
              </g>
              <g id="Group_188" data-name="Group 188">
                <rect id="Rectangle_310" data-name="Rectangle 310" class="cls-4" width="6.712" height="9.463" transform="translate(55.027 9.463) rotate(180)"/>
                <rect id="Rectangle_311" data-name="Rectangle 311" class="cls-4" width="6.712" height="9.463" transform="translate(42.472 9.463) rotate(180)"/>
                <rect id="Rectangle_312" data-name="Rectangle 312" class="cls-4" width="6.712" height="9.463" transform="translate(30.203 9.463) rotate(180)"/>
                <rect id="Rectangle_313" data-name="Rectangle 313" class="cls-4" width="6.712" height="9.463" transform="translate(18.569 9.463) rotate(180)"/>
                <rect id="Rectangle_314" data-name="Rectangle 314" class="cls-4" width="6.712" height="9.463" transform="translate(6.712 9.463) rotate(180)"/>
              </g>
            </g>
            <g id="Group_192" data-name="Group 192" transform="translate(0 33.135)">
              <g id="Group_190" data-name="Group 190" transform="translate(60.308)">
                <rect id="Rectangle_315" data-name="Rectangle 315" class="cls-4" width="6.712" height="9.463" transform="translate(55.031 9.463) rotate(180)"/>
                <rect id="Rectangle_316" data-name="Rectangle 316" class="cls-4" width="6.712" height="9.463" transform="translate(42.477 9.463) rotate(180)"/>
                <rect id="Rectangle_317" data-name="Rectangle 317" class="cls-4" width="6.712" height="9.463" transform="translate(30.207 9.463) rotate(180)"/>
                <rect id="Rectangle_318" data-name="Rectangle 318" class="cls-4" width="6.712" height="9.463" transform="translate(18.569 9.463) rotate(180)"/>
                <rect id="Rectangle_319" data-name="Rectangle 319" class="cls-4" width="6.712" height="9.463" transform="translate(6.712 9.463) rotate(180)"/>
              </g>
              <g id="Group_191" data-name="Group 191">
                <rect id="Rectangle_320" data-name="Rectangle 320" class="cls-4" width="6.712" height="9.463" transform="translate(55.027 9.463) rotate(180)"/>
                <rect id="Rectangle_321" data-name="Rectangle 321" class="cls-4" width="6.712" height="9.463" transform="translate(42.472 9.463) rotate(180)"/>
                <rect id="Rectangle_322" data-name="Rectangle 322" class="cls-4" width="6.712" height="9.463" transform="translate(30.203 9.463) rotate(180)"/>
                <rect id="Rectangle_323" data-name="Rectangle 323" class="cls-4" width="6.712" height="9.463" transform="translate(18.569 9.463) rotate(180)"/>
                <rect id="Rectangle_324" data-name="Rectangle 324" class="cls-4" width="6.712" height="9.463" transform="translate(6.712 9.463) rotate(180)"/>
              </g>
            </g>
          </g>
          <rect id="Rectangle_325" data-name="Rectangle 325" class="cls-8" width="5.638" height="9.758" transform="translate(120.73 17.787) rotate(180)"/>
          <rect id="Rectangle_326" data-name="Rectangle 326" class="cls-8" width="5.638" height="9.758" transform="translate(64.731 17.787) rotate(180)"/>
          <rect id="Rectangle_327" data-name="Rectangle 327" class="cls-8" width="5.638" height="9.758" transform="translate(20.183 17.787) rotate(180)"/>
        </g>
        <g id="Group_205" data-name="Group 205" transform="translate(688.716 325.593)">
          <path id="Path_314" data-name="Path 314" class="cls-5" d="M2553.99,1426.49v87.892h114.861l15.856-17.161V1426.49Z" transform="translate(-2553.982 -1415.016)"/>
          <rect id="Rectangle_328" data-name="Rectangle 328" class="cls-4" width="130.699" height="28.57" transform="translate(130.699 28.57) rotate(180)"/>
          <g id="Group_204" data-name="Group 204" transform="translate(6.462 37.038)">
            <g id="Group_197" data-name="Group 197">
              <g id="Group_195" data-name="Group 195" transform="translate(60.308)">
                <rect id="Rectangle_329" data-name="Rectangle 329" class="cls-4" width="6.712" height="9.463" transform="translate(55.031 9.463) rotate(180)"/>
                <rect id="Rectangle_330" data-name="Rectangle 330" class="cls-4" width="6.712" height="9.463" transform="translate(42.477 9.463) rotate(180)"/>
                <rect id="Rectangle_331" data-name="Rectangle 331" class="cls-4" width="6.712" height="9.463" transform="translate(30.207 9.463) rotate(180)"/>
                <rect id="Rectangle_332" data-name="Rectangle 332" class="cls-4" width="6.712" height="9.463" transform="translate(18.573 9.463) rotate(180)"/>
                <rect id="Rectangle_333" data-name="Rectangle 333" class="cls-4" width="6.712" height="9.463" transform="translate(6.712 9.463) rotate(180)"/>
              </g>
              <g id="Group_196" data-name="Group 196">
                <rect id="Rectangle_334" data-name="Rectangle 334" class="cls-4" width="6.712" height="9.463" transform="translate(55.027 9.463) rotate(180)"/>
                <rect id="Rectangle_335" data-name="Rectangle 335" class="cls-4" width="6.712" height="9.463" transform="translate(42.477 9.463) rotate(180)"/>
                <rect id="Rectangle_336" data-name="Rectangle 336" class="cls-4" width="6.712" height="9.463" transform="translate(30.203 9.463) rotate(180)"/>
                <rect id="Rectangle_337" data-name="Rectangle 337" class="cls-4" width="6.712" height="9.463" transform="translate(18.569 9.463) rotate(180)"/>
                <rect id="Rectangle_338" data-name="Rectangle 338" class="cls-4" width="6.712" height="9.463" transform="translate(6.712 9.463) rotate(180)"/>
              </g>
            </g>
            <g id="Group_200" data-name="Group 200" transform="translate(0 16.693)">
              <g id="Group_198" data-name="Group 198" transform="translate(60.308)">
                <rect id="Rectangle_339" data-name="Rectangle 339" class="cls-4" width="6.712" height="9.463" transform="translate(55.031 9.463) rotate(180)"/>
                <rect id="Rectangle_340" data-name="Rectangle 340" class="cls-4" width="6.712" height="9.463" transform="translate(42.477 9.463) rotate(180)"/>
                <rect id="Rectangle_341" data-name="Rectangle 341" class="cls-4" width="6.712" height="9.463" transform="translate(30.207 9.463) rotate(180)"/>
                <rect id="Rectangle_342" data-name="Rectangle 342" class="cls-4" width="6.712" height="9.463" transform="translate(18.573 9.463) rotate(180)"/>
                <rect id="Rectangle_343" data-name="Rectangle 343" class="cls-4" width="6.712" height="9.463" transform="translate(6.712 9.463) rotate(180)"/>
              </g>
              <g id="Group_199" data-name="Group 199">
                <rect id="Rectangle_344" data-name="Rectangle 344" class="cls-4" width="6.712" height="9.463" transform="translate(55.027 9.463) rotate(180)"/>
                <rect id="Rectangle_345" data-name="Rectangle 345" class="cls-4" width="6.712" height="9.463" transform="translate(42.477 9.463) rotate(180)"/>
                <rect id="Rectangle_346" data-name="Rectangle 346" class="cls-4" width="6.712" height="9.463" transform="translate(30.203 9.463) rotate(180)"/>
                <rect id="Rectangle_347" data-name="Rectangle 347" class="cls-4" width="6.712" height="9.463" transform="translate(18.569 9.463) rotate(180)"/>
                <rect id="Rectangle_348" data-name="Rectangle 348" class="cls-4" width="6.712" height="9.463" transform="translate(6.712 9.463) rotate(180)"/>
              </g>
            </g>
            <g id="Group_203" data-name="Group 203" transform="translate(0 33.135)">
              <g id="Group_201" data-name="Group 201" transform="translate(60.308)">
                <rect id="Rectangle_349" data-name="Rectangle 349" class="cls-4" width="6.712" height="9.463" transform="translate(55.031 9.463) rotate(180)"/>
                <rect id="Rectangle_350" data-name="Rectangle 350" class="cls-4" width="6.712" height="9.463" transform="translate(42.477 9.463) rotate(180)"/>
                <rect id="Rectangle_351" data-name="Rectangle 351" class="cls-4" width="6.712" height="9.463" transform="translate(30.207 9.463) rotate(180)"/>
                <rect id="Rectangle_352" data-name="Rectangle 352" class="cls-4" width="6.712" height="9.463" transform="translate(18.573 9.463) rotate(180)"/>
                <rect id="Rectangle_353" data-name="Rectangle 353" class="cls-4" width="6.712" height="9.463" transform="translate(6.712 9.463) rotate(180)"/>
              </g>
              <g id="Group_202" data-name="Group 202">
                <rect id="Rectangle_354" data-name="Rectangle 354" class="cls-4" width="6.712" height="9.463" transform="translate(55.027 9.463) rotate(180)"/>
                <rect id="Rectangle_355" data-name="Rectangle 355" class="cls-4" width="6.712" height="9.463" transform="translate(42.477 9.463) rotate(180)"/>
                <rect id="Rectangle_356" data-name="Rectangle 356" class="cls-4" width="6.712" height="9.463" transform="translate(30.203 9.463) rotate(180)"/>
                <rect id="Rectangle_357" data-name="Rectangle 357" class="cls-4" width="6.712" height="9.463" transform="translate(18.569 9.463) rotate(180)"/>
                <rect id="Rectangle_358" data-name="Rectangle 358" class="cls-4" width="6.712" height="9.463" transform="translate(6.712 9.463) rotate(180)"/>
              </g>
            </g>
          </g>
          <rect id="Rectangle_359" data-name="Rectangle 359" class="cls-8" width="5.638" height="9.758" transform="translate(120.73 17.787) rotate(180)"/>
          <rect id="Rectangle_360" data-name="Rectangle 360" class="cls-8" width="5.638" height="9.758" transform="translate(64.731 17.787) rotate(180)"/>
          <rect id="Rectangle_361" data-name="Rectangle 361" class="cls-8" width="5.638" height="9.758" transform="translate(20.183 17.787) rotate(180)"/>
        </g>
        <g id="Group_206" data-name="Group 206" transform="translate(827.94 325.571)">
          <path id="Path_315" data-name="Path 315" class="cls-5" d="M2860.15,1426.49v54.98a86.513,86.513,0,0,0,6.211-32.967c0-.541,0-1.146-.055-1.742,0-1.037-.055-2.124-.055-3.16-.054-.928-.109-1.851-.164-2.778-.273-3.379-.655-6.757-1.2-10.136,0-.114-.054-.218-.054-.327a16.664,16.664,0,0,1-.273-1.746c-.109-.709-.273-1.414-.437-2.124Z" transform="translate(-2860.15 -1414.995)"/>
          <path id="Path_316" data-name="Path 316" class="cls-4" d="M2860.15,1401.21v28.606h6.1c-.054-.928-.109-1.851-.164-2.778-.273-3.379-.655-6.757-1.2-10.136,0-.114-.055-.218-.055-.327a16.729,16.729,0,0,1-.273-1.746c-.109-.709-.273-1.414-.437-2.124-.491-2.505-1.091-5.011-1.742-7.571-.109-.6-.273-1.2-.437-1.8-.218-.709-.382-1.414-.655-2.124Z" transform="translate(-2860.15 -1401.21)"/>
        </g>
      </g>
      <path id="Path_317" data-name="Path 317" class="cls-10" d="M233.324,1451.989l577.495-1.375v-123.36c-45.1,3.465-105.012-34.554-148.678-11.2-49.459,26.451-178.389,92.653-260.634,44.789s-168.183-32.4-168.183-32.4S232.074,1449.388,233.324,1451.989Z" transform="translate(-12.111 -547.145)"/>
      <path id="Path_319" data-name="Path 319" class="cls-11" d="M397.81,1562.033h42c2.251-1.91-1.555-6.243-5.534-6.534a24.49,24.49,0,0,0-6.411.76c-.577-7.676-3.879-42.184-16.315-40.8-13.987,1.551,0,15.2,3.956,23.272a192,192,0,0,1,7.43,18.611c-1.137.246-2.31.487-3.51.709-1.855-5.693-8.753-24.837-17.525-23.723-10.3,1.305-6.157,8.981,1.141,13.537,5.357,3.351,11.932,8.112,15.056,10.413a44.769,44.769,0,0,1-8.212.659C402.685,1558.773,399.17,1560.9,397.81,1562.033Z" transform="translate(-128.417 -660.019)"/>
      <path id="Path_320" data-name="Path 320" class="cls-11" d="M2667.927,1570.336c1.974-3.1,7.908-11.141,15.815-10.077,8.612,1.16-9.512,6.839-15.065,10.1a9.161,9.161,0,0,0,3.069-.359c3.71-1.323,10.063,1.214,12.1,2.105H2648.52a5.605,5.605,0,0,1,2.524-3.228,6.319,6.319,0,0,1,3.251-.291c-2.1-2.478-3.56-10.386,2.287-8.349,4.27,1.487,4.261,6.321,3.842,9.181.909.141,1.828.286,2.742.418,1.76-8.962,7.98-35.231,20.585-35.932,12.782-.709-10.84,27.242-18.7,36.182C2666.059,1570.2,2667.027,1570.295,2667.927,1570.336Z" transform="translate(-1356.832 -670.09)"/>
      <path id="Path_321" data-name="Path 321" class="cls-12" d="M2187.29,1097.755c0,12.423,7.357,29.807,17.275,47.568,20.38,36.727,51.71,75.192,51.71,75.192s68.985-84.672,68.985-122.764a68.985,68.985,0,0,0-137.97,0Zm61.95,30.68a32.1,32.1,0,1,1,7.03.814A29.9,29.9,0,0,1,2249.24,1128.434Z" transform="translate(-1105.331 -394.655)"/>
      <path id="Path_322" data-name="Path 322" class="cls-12" d="M348.67,1281.706c0,16.906,30.616,54.5,30.616,54.5s30.616-37.591,30.616-54.5a30.616,30.616,0,0,0-61.232,0Zm16.306-.314a14.31,14.31,0,1,1,14.31,14.31A14.31,14.31,0,0,1,364.976,1281.392Z" transform="translate(-102.759 -515.883)"/>
      <path id="Path_323" data-name="Path 323" class="cls-13" d="M2609.96,1344.335c0,9.258,16.765,29.843,16.765,29.843s16.765-20.585,16.765-29.843a16.765,16.765,0,0,0-33.531,0Zm8.931-.168a7.835,7.835,0,1,1,7.835,7.835A7.835,7.835,0,0,1,2618.891,1344.167Z" transform="translate(-1335.806 -557.586)"/>
      <g id="Group_208" data-name="Group 208" transform="translate(712.153 828.649)">
        <path id="Path_324" data-name="Path 324" class="cls-11" d="M1782.273,1529.952s-12.018-35.868-46.445-42.771-59.913,20.053-90.584,9.545-79.02-66.116-136.565-25.473-53.77,52.215-90.065,42.72-44.594,15.979-44.594,15.979Z" transform="translate(-1374.02 -1456.586)"/>
        <path id="Path_325" data-name="Path 325" class="cls-11" d="M2194.11,1519.18s25.109-26.328,37.937-19.271S2194.11,1519.18,2194.11,1519.18Z" transform="translate(-1821.203 -1479.554)"/>
        <path id="Path_326" data-name="Path 326" class="cls-11" d="M2208.19,1552.579s23.145-7.544,28.938-3.774S2208.19,1552.579,2208.19,1552.579Z" transform="translate(-1828.88 -1506.296)"/>
        <path id="Path_327" data-name="Path 327" class="cls-11" d="M2019.662,1517.106s-15.906-35.686-21.426-29.193S2019.662,1517.106,2019.662,1517.106Z" transform="translate(-1713.989 -1473.238)"/>
        <path id="Path_328" data-name="Path 328" class="cls-11" d="M2052.278,1518.278s-6.493-26.128,3.247-24.5S2052.278,1518.278,2052.278,1518.278Z" transform="translate(-1742.708 -1476.824)"/>
      </g>
      <g id="Group_209" data-name="Group 209" transform="translate(284.836 446.686)">
        <path id="Path_329" data-name="Path 329" class="cls-14" d="M435.136,892.624a1.21,1.21,0,0,0,1.519-.809c.009-.023.778-2.515,2.392-6.925a1.218,1.218,0,1,0-2.287-.837c-1.642,4.479-2.4,6.944-2.433,7.044A1.225,1.225,0,0,0,435.136,892.624Zm4.934-13.883a1.171,1.171,0,0,0,.441.086,1.228,1.228,0,0,0,1.137-.773c.868-2.2,1.792-4.474,2.751-6.766a1.218,1.218,0,0,0-2.246-.941c-.964,2.31-1.9,4.6-2.769,6.816A1.218,1.218,0,0,0,440.069,878.741Zm951.178-4.875a1.229,1.229,0,0,0,1.1.682,1.256,1.256,0,0,0,.537-.127c2.146-1.059,4.356-2.092,6.562-3.078a1.216,1.216,0,1,0-.987-2.224c-2.237,1-4.474,2.046-6.652,3.115A1.22,1.22,0,0,0,1391.247,873.867Zm13.287-6.02a1.219,1.219,0,0,0,1.128.764,1.241,1.241,0,0,0,.455-.086c2.228-.9,4.511-1.764,6.78-2.583a1.22,1.22,0,0,0-.823-2.3c-2.3.828-4.606,1.71-6.862,2.615A1.222,1.222,0,0,0,1404.534,867.846ZM445.685,865.2a1.248,1.248,0,0,0,.491.1,1.2,1.2,0,0,0,1.109-.728c.969-2.187,1.983-4.424,3.01-6.648a1.217,1.217,0,1,0-2.205-1.028c-1.037,2.242-2.055,4.488-3.028,6.689A1.222,1.222,0,0,0,445.685,865.2Zm972.54-2.4a1.226,1.226,0,0,0,1.16.846,1.144,1.144,0,0,0,.373-.059c2.274-.737,4.611-1.446,6.944-2.114a1.216,1.216,0,0,0-.673-2.337c-2.355.673-4.72,1.387-7.016,2.133A1.221,1.221,0,0,0,1418.225,862.808Zm14.01-4.088a1.213,1.213,0,0,0,1.178.919,1.1,1.1,0,0,0,.3-.041c2.328-.587,4.7-1.146,7.066-1.664a1.215,1.215,0,1,0-.518-2.374c-2.387.527-4.793,1.091-7.139,1.687A1.2,1.2,0,0,0,1432.235,858.72Zm14.233-3.21a1.219,1.219,0,0,0,1.191.991,1.279,1.279,0,0,0,.227-.023c2.351-.446,4.761-.869,7.153-1.25a1.218,1.218,0,0,0-.382-2.405c-2.415.391-4.843.814-7.221,1.264A1.215,1.215,0,0,0,1446.468,855.51Zm14.392-2.387a1.216,1.216,0,0,0,1.21,1.05.91.91,0,0,0,.159-.009c2.365-.318,4.8-.609,7.216-.873a1.219,1.219,0,0,0-.259-2.424c-2.446.264-4.888.559-7.276.882A1.232,1.232,0,0,0,1460.859,853.123ZM451.8,851.9a1.244,1.244,0,0,0,.532.123,1.216,1.216,0,0,0,1.1-.687c1.05-2.164,2.142-4.37,3.238-6.539a1.217,1.217,0,1,0-2.174-1.1c-1.1,2.183-2.2,4.393-3.256,6.575A1.218,1.218,0,0,0,451.8,851.9Zm6.562-13.073a1.27,1.27,0,0,0,.564.136,1.226,1.226,0,0,0,1.082-.646c1.119-2.137,2.283-4.3,3.447-6.425a1.218,1.218,0,0,0-2.137-1.169c-1.169,2.142-2.337,4.315-3.465,6.461A1.22,1.22,0,0,0,458.358,838.831Zm6.984-12.85a1.194,1.194,0,0,0,.6.155,1.212,1.212,0,0,0,1.059-.614c1.191-2.105,2.419-4.224,3.651-6.316a1.217,1.217,0,0,0-2.1-1.237c-1.237,2.1-2.469,4.238-3.67,6.348A1.217,1.217,0,0,0,465.342,825.981Zm749.525-12.3c1.4,1.973,2.8,3.983,4.17,5.98a1.213,1.213,0,0,0,1,.527,1.215,1.215,0,0,0,1-1.905c-1.373-2-2.787-4.029-4.188-6.007a1.219,1.219,0,0,0-1.992,1.4Zm-742.136-.323a1.2,1.2,0,0,0,1.669-.4c1.269-2.073,2.565-4.156,3.851-6.189a1.214,1.214,0,1,0-2.051-1.3c-1.3,2.042-2.6,4.133-3.87,6.221A1.213,1.213,0,0,0,472.731,813.358ZM1206.282,801.9c1.455,1.937,2.915,3.911,4.333,5.857a1.226,1.226,0,0,0,1.7.268,1.221,1.221,0,0,0,.268-1.705c-1.428-1.951-2.892-3.933-4.356-5.889a1.217,1.217,0,1,0-1.942,1.469Zm-725.762-.914a1.246,1.246,0,0,0,.668.2,1.227,1.227,0,0,0,1.023-.55c1.328-2.033,2.692-4.07,4.047-6.066a1.22,1.22,0,0,0-2.019-1.369c-1.36,2.005-2.733,4.056-4.07,6.1A1.218,1.218,0,0,0,480.521,800.99Zm716.836-10.613c1.505,1.883,3.019,3.81,4.5,5.729a1.218,1.218,0,0,0,1.924-1.5c-1.492-1.923-3.015-3.861-4.529-5.757a1.216,1.216,0,1,0-1.9,1.523Zm-708.651-1.5a1.189,1.189,0,0,0,.7.218,1.225,1.225,0,0,0,1-.518c1.391-1.983,2.819-3.974,4.243-5.925a1.219,1.219,0,0,0-1.973-1.432c-1.428,1.964-2.865,3.97-4.261,5.957A1.219,1.219,0,0,0,488.706,788.876Zm699.388-9.754c1.56,1.837,3.133,3.72,4.67,5.589a1.237,1.237,0,0,0,.941.45,1.184,1.184,0,0,0,.773-.282,1.2,1.2,0,0,0,.164-1.71c-1.551-1.883-3.133-3.774-4.693-5.62a1.216,1.216,0,1,0-1.855,1.573Zm-690.826-2.087a1.231,1.231,0,0,0,.737.25,1.21,1.21,0,0,0,.969-.487c1.46-1.933,2.951-3.879,4.433-5.784a1.217,1.217,0,1,0-1.919-1.5c-1.5,1.914-2.992,3.87-4.461,5.816A1.218,1.218,0,0,0,497.268,777.035Zm681.227-8.876c1.623,1.8,3.247,3.629,4.843,5.448a1.217,1.217,0,0,0,1.714.114,1.221,1.221,0,0,0,.118-1.719c-1.6-1.828-3.238-3.665-4.87-5.475a1.217,1.217,0,1,0-1.805,1.632Zm-672.274-2.674a1.194,1.194,0,0,0,.764.273,1.223,1.223,0,0,0,.95-.455c1.519-1.883,3.078-3.779,4.62-5.634a1.215,1.215,0,1,0-1.864-1.56c-1.56,1.86-3.119,3.765-4.652,5.661A1.227,1.227,0,0,0,506.221,765.486Zm662.343-7.985c1.678,1.755,3.365,3.533,5.006,5.293a1.218,1.218,0,0,0,1.782-1.66c-1.646-1.769-3.342-3.56-5.034-5.316a1.216,1.216,0,0,0-1.755,1.682Zm-653-3.251a1.193,1.193,0,0,0,.8.3,1.208,1.208,0,0,0,.919-.423c1.587-1.837,3.206-3.67,4.815-5.47a1.219,1.219,0,0,0-1.814-1.628c-1.614,1.805-3.242,3.656-4.838,5.5A1.223,1.223,0,0,0,515.561,754.25Zm642.74-7.094c1.719,1.678,3.46,3.41,5.17,5.134a1.226,1.226,0,0,0,.869.359,1.216,1.216,0,0,0,.859-2.073c-1.719-1.732-3.469-3.474-5.2-5.156a1.214,1.214,0,1,0-1.7,1.737Zm-633.027-3.824a1.211,1.211,0,0,0,1.719-.064c1.655-1.782,3.338-3.565,5-5.3a1.217,1.217,0,0,0-1.755-1.687c-1.673,1.742-3.365,3.533-5.029,5.325A1.216,1.216,0,0,0,525.274,743.332Zm622.437-6.175c1.783,1.628,3.574,3.3,5.338,4.956a1.216,1.216,0,0,0,1.669-1.769c-1.769-1.673-3.574-3.351-5.361-4.984a1.218,1.218,0,1,0-1.646,1.8Zm-612.347-4.393a1.205,1.205,0,0,0,.855.355,1.226,1.226,0,0,0,.864-.355c1.71-1.719,3.451-3.438,5.184-5.116a1.217,1.217,0,0,0-1.7-1.746c-1.742,1.692-3.5,3.419-5.216,5.147A1.213,1.213,0,0,0,535.364,732.764Zm601.443-5.261c1.833,1.569,3.674,3.174,5.493,4.784a1.223,1.223,0,0,0,.809.3,1.2,1.2,0,0,0,.909-.409,1.216,1.216,0,0,0-.1-1.719c-1.833-1.619-3.688-3.233-5.525-4.806a1.217,1.217,0,1,0-1.587,1.846Zm-11.227-9.281c1.883,1.505,3.788,3.051,5.648,4.593a1.214,1.214,0,0,0,1.714-.159,1.218,1.218,0,0,0-.159-1.714c-1.873-1.551-3.783-3.106-5.684-4.62a1.216,1.216,0,0,0-1.519,1.9ZM545.822,722.57a1.2,1.2,0,0,0,.887.386,1.211,1.211,0,0,0,.832-.327c1.769-1.655,3.574-3.31,5.366-4.925a1.219,1.219,0,0,0-1.632-1.81c-1.8,1.628-3.62,3.292-5.393,4.956A1.219,1.219,0,0,0,545.822,722.57Zm568.235-13.255c1.928,1.441,3.879,2.919,5.8,4.4a1.191,1.191,0,0,0,.746.259,1.22,1.22,0,0,0,.746-2.183c-1.933-1.5-3.9-2.983-5.834-4.424a1.215,1.215,0,1,0-1.455,1.946Zm-557.413,3.442a1.224,1.224,0,0,0,1.719.123c1.819-1.582,3.688-3.169,5.543-4.724a1.219,1.219,0,1,0-1.564-1.869c-1.864,1.564-3.738,3.16-5.575,4.752A1.218,1.218,0,0,0,556.645,712.757Zm545.59-11.95c1.983,1.378,3.983,2.792,5.952,4.206a1.237,1.237,0,0,0,.7.227,1.217,1.217,0,0,0,.714-2.205c-1.978-1.423-3.988-2.842-5.984-4.224a1.215,1.215,0,1,0-1.387,2Zm-534.413,2.546a1.224,1.224,0,0,0,.95.455,1.193,1.193,0,0,0,.759-.268c1.9-1.523,3.82-3.042,5.716-4.515a1.217,1.217,0,1,0-1.492-1.923c-1.914,1.478-3.847,3.006-5.752,4.538A1.22,1.22,0,0,0,567.821,703.353Zm522.313-10.636c2.033,1.305,4.074,2.651,6.089,3.992a1.187,1.187,0,0,0,.673.209,1.22,1.22,0,0,0,.682-2.233c-2.019-1.355-4.079-2.7-6.12-4.02a1.22,1.22,0,1,0-1.323,2.051Zm-510.791,1.66a1.206,1.206,0,0,0,.978.491,1.24,1.24,0,0,0,.728-.236c1.942-1.451,3.924-2.892,5.884-4.288a1.219,1.219,0,1,0-1.419-1.983c-1.974,1.405-3.965,2.86-5.92,4.315A1.218,1.218,0,0,0,579.344,694.377Zm498.413-9.34c2.074,1.237,4.165,2.505,6.221,3.783a1.175,1.175,0,0,0,.637.186,1.215,1.215,0,0,0,.641-2.251c-2.064-1.282-4.174-2.56-6.252-3.806a1.215,1.215,0,1,0-1.246,2.087Zm-486.559.814a1.212,1.212,0,0,0,1,.527,1.2,1.2,0,0,0,.687-.214c2-1.369,4.033-2.733,6.043-4.056a1.22,1.22,0,1,0-1.341-2.037c-2.028,1.332-4.07,2.706-6.084,4.083A1.231,1.231,0,0,0,591.2,685.851Zm473.931-8.058c2.119,1.164,4.252,2.365,6.343,3.57a1.218,1.218,0,0,0,1.209-2.114c-2.105-1.21-4.252-2.415-6.384-3.588a1.214,1.214,0,0,0-1.655.477A1.235,1.235,0,0,0,1065.13,677.794Zm-461.759,0a1.221,1.221,0,0,0,1.678.377c2.033-1.282,4.115-2.565,6.193-3.824a1.216,1.216,0,0,0-1.255-2.083c-2.092,1.26-4.193,2.556-6.239,3.847A1.218,1.218,0,0,0,603.371,677.789Zm448.886-6.807c2.151,1.1,4.329,2.219,6.466,3.351a1.21,1.21,0,0,0,.568.141,1.217,1.217,0,0,0,.573-2.292c-2.151-1.137-4.338-2.269-6.5-3.369a1.227,1.227,0,0,0-1.641.537A1.212,1.212,0,0,0,1052.257,670.982Zm-436.4-.782a1.21,1.21,0,0,0,1.055.609,1.266,1.266,0,0,0,.6-.159c2.1-1.214,4.229-2.414,6.339-3.574a1.217,1.217,0,1,0-1.173-2.133c-2.123,1.169-4.27,2.378-6.38,3.6A1.214,1.214,0,0,0,615.853,670.2Zm423.313-5.579c2.183,1.014,4.4,2.064,6.575,3.119a1.252,1.252,0,0,0,.532.127,1.22,1.22,0,0,0,.537-2.314c-2.192-1.064-4.415-2.124-6.612-3.147a1.222,1.222,0,0,0-1.032,2.214Zm-410.549-1.51a1.212,1.212,0,0,0,1.078.655,1.191,1.191,0,0,0,.564-.141c2.142-1.123,4.324-2.246,6.475-3.319a1.218,1.218,0,0,0-1.091-2.178c-2.169,1.087-4.356,2.21-6.516,3.347A1.207,1.207,0,0,0,628.617,663.111Zm397.239-4.406c2.219.941,4.47,1.919,6.68,2.9a1.249,1.249,0,0,0,.491.1,1.213,1.213,0,0,0,.5-2.324c-2.224-.987-4.484-1.974-6.716-2.915a1.215,1.215,0,1,0-.95,2.237Zm-384.2-2.169a1.215,1.215,0,0,0,1.1.691,1.289,1.289,0,0,0,.527-.118c2.178-1.041,4.4-2.069,6.6-3.069a1.215,1.215,0,1,0-1-2.214c-2.214,1-4.452,2.042-6.643,3.083A1.217,1.217,0,0,0,641.654,656.536Zm370.706-3.292c2.255.868,4.534,1.769,6.775,2.674a1.15,1.15,0,0,0,.459.091,1.219,1.219,0,0,0,.455-2.346c-2.255-.909-4.543-1.814-6.812-2.692a1.219,1.219,0,0,0-.878,2.274Zm-357.429-2.778a1.213,1.213,0,0,0,1.119.737,1.179,1.179,0,0,0,.477-.1c2.219-.95,4.479-1.9,6.716-2.806a1.217,1.217,0,1,0-.914-2.255c-2.251.914-4.524,1.864-6.757,2.824A1.212,1.212,0,0,0,654.931,650.465Zm343.756-2.233c2.283.8,4.593,1.619,6.862,2.451a1.221,1.221,0,0,0,.841-2.292c-2.283-.832-4.6-1.66-6.893-2.46a1.22,1.22,0,0,0-.809,2.3Zm-13.828-4.556c2.319.718,4.656,1.469,6.934,2.219a1.15,1.15,0,0,0,.387.064,1.218,1.218,0,0,0,.382-2.374c-2.292-.755-4.643-1.51-6.971-2.237a1.22,1.22,0,0,0-.732,2.328Zm-316.423,1.25a1.218,1.218,0,0,0,1.141.778,1.205,1.205,0,0,0,.432-.077c2.246-.859,4.543-1.719,6.821-2.546a1.22,1.22,0,0,0-.837-2.292c-2.292.832-4.6,1.7-6.862,2.56A1.229,1.229,0,0,0,668.436,644.927Zm302.454-5.366c2.337.646,4.693,1.319,7,2a1.324,1.324,0,0,0,.346.05,1.218,1.218,0,0,0,.341-2.387c-2.324-.682-4.688-1.36-7.034-2.01a1.218,1.218,0,0,0-.655,2.346Zm-288.74.35a1.223,1.223,0,0,0,1.155.828,1.159,1.159,0,0,0,.391-.068c2.283-.773,4.611-1.541,6.916-2.278a1.215,1.215,0,1,0-.741-2.314c-2.319.741-4.661,1.51-6.957,2.292A1.22,1.22,0,0,0,682.151,639.911Zm274.648-4.02c2.351.573,4.729,1.169,7.062,1.778a1.17,1.17,0,0,0,.3.041,1.218,1.218,0,0,0,.3-2.4c-2.346-.609-4.734-1.214-7.1-1.787a1.216,1.216,0,0,0-.573,2.365Zm-260.752-.464a1.209,1.209,0,0,0,1.164.873,1.172,1.172,0,0,0,.35-.055c2.31-.691,4.661-1.369,6.994-2.014a1.218,1.218,0,0,0-.655-2.346c-2.346.65-4.715,1.332-7.034,2.033A1.2,1.2,0,0,0,696.047,635.428Zm246.547-2.774c1.109.236,2.219.482,3.333.728q1.9.409,3.779.841a1.423,1.423,0,0,0,.273.027,1.218,1.218,0,0,0,.268-2.406c-1.26-.286-2.528-.568-3.8-.846q-1.678-.368-3.351-.728a1.218,1.218,0,0,0-.5,2.383Zm-232.5-1.187a1.212,1.212,0,0,0,1.173.914,1.173,1.173,0,0,0,.3-.041c2.333-.6,4.706-1.191,7.066-1.76a1.216,1.216,0,1,0-.568-2.365c-2.369.564-4.761,1.16-7.1,1.769A1.215,1.215,0,0,0,710.1,631.467Zm218.2-1.71c2.36.455,4.765.928,7.153,1.414a1.454,1.454,0,0,0,.246.023,1.217,1.217,0,0,0,.236-2.41c-2.392-.487-4.806-.964-7.175-1.419a1.218,1.218,0,1,0-.459,2.392Zm-204.013-1.723a1.218,1.218,0,0,0,1.187.955,1.288,1.288,0,0,0,.259-.027c2.355-.514,4.756-1.023,7.125-1.5a1.217,1.217,0,1,0-.477-2.387c-2.387.477-4.8.982-7.166,1.505A1.209,1.209,0,0,0,724.289,628.034Zm189.666-.859c2.383.4,4.8.823,7.18,1.25a1.177,1.177,0,0,0,.218.018,1.22,1.22,0,0,0,.214-2.419c-2.4-.427-4.82-.85-7.212-1.255a1.219,1.219,0,0,0-.4,2.405Zm-175.361-2.06a1.211,1.211,0,0,0,1.191,1A1.177,1.177,0,0,0,740,626.1c2.378-.432,4.788-.85,7.171-1.241a1.218,1.218,0,0,0-.391-2.405c-2.4.4-4.825.818-7.216,1.25A1.209,1.209,0,0,0,738.594,625.115Zm160.956-.2c2.392.346,4.815.709,7.207,1.087a1.464,1.464,0,0,0,.2.014,1.217,1.217,0,0,0,.182-2.419c-2.4-.373-4.834-.746-7.235-1.091a1.214,1.214,0,0,0-1.378,1.028A1.226,1.226,0,0,0,899.55,624.915ZM885.1,623c2.387.286,4.82.6,7.234.914.055,0,.109.009.159.009a1.207,1.207,0,0,0,1.2-1.055,1.22,1.22,0,0,0-1.046-1.369c-2.419-.323-4.865-.628-7.262-.919A1.218,1.218,0,1,0,885.1,623Zm-132.113-.291a1.226,1.226,0,0,0,1.21,1.041,1.064,1.064,0,0,0,.173-.014c2.383-.35,4.806-.687,7.212-.991a1.217,1.217,0,1,0-.314-2.414c-2.419.314-4.861.646-7.257,1A1.211,1.211,0,0,0,752.986,622.705Zm116.53-2.6a1.214,1.214,0,0,0,1.1,1.323c2.4.227,4.838.477,7.248.737a1.294,1.294,0,0,0,.132.009,1.217,1.217,0,0,0,.132-2.428c-2.419-.259-4.87-.5-7.285-.737A1.209,1.209,0,0,0,869.516,620.109Zm-102.056.682a1.219,1.219,0,0,0,1.21,1.082,1.365,1.365,0,0,0,.136-.009c2.406-.268,4.838-.523,7.239-.755a1.215,1.215,0,1,0-.227-2.419c-2.415.227-4.865.482-7.285.755A1.211,1.211,0,0,0,767.46,620.791Zm87.5-1.842a1.21,1.21,0,0,0,1.128,1.3c2.4.164,4.843.35,7.266.55h.1a1.216,1.216,0,0,0,.1-2.428c-2.428-.2-4.884-.377-7.3-.546A1.2,1.2,0,0,0,854.956,618.949Zm-72.964.409a1.218,1.218,0,0,0,1.214,1.119.708.708,0,0,0,.1,0c2.4-.191,4.838-.364,7.266-.518a1.219,1.219,0,0,0-.159-2.433c-2.442.15-4.893.327-7.3.523A1.221,1.221,0,0,0,781.992,619.358Zm58.376-1.178a1.223,1.223,0,0,0,1.164,1.273c2.4.1,4.852.214,7.28.346a.342.342,0,0,0,.068,0,1.22,1.22,0,0,0,.064-2.437c-2.433-.132-4.9-.255-7.307-.35A1.228,1.228,0,0,0,840.369,618.181Zm-43.807.214a1.219,1.219,0,0,0,1.219,1.16h.059c2.405-.114,4.856-.209,7.28-.286a1.217,1.217,0,0,0-.077-2.433c-2.442.077-4.9.177-7.316.291A1.21,1.21,0,0,0,796.561,618.394Zm29.2-.568a1.219,1.219,0,0,0,1.205,1.232c2.4.027,4.856.077,7.285.146h.036a1.217,1.217,0,0,0,.032-2.433c-2.442-.068-4.9-.118-7.316-.146h-.014A1.214,1.214,0,0,0,825.763,617.826Zm-14.605.064a1.214,1.214,0,0,0,1.219,1.2h.018c2.415-.041,4.865-.064,7.285-.068a1.219,1.219,0,1,0,0-2.437h0c-2.428,0-4.893.027-7.316.068A1.226,1.226,0,0,0,811.158,617.89Z" transform="translate(-434.273 -616.58)"/>
      </g>
      <g id="Group_218" data-name="Group 218" transform="translate(474.987 505.608)">
        <g id="Group_210" data-name="Group 210" transform="translate(55.307 209.942)">
          <path id="Path_330" data-name="Path 330" class="cls-13" d="M1021.734,1259.088l2.765-2.255-37.046-48.418-13.373-.555Z" transform="translate(-974.08 -1207.86)"/>
        </g>
        <g id="Group_211" data-name="Group 211" transform="translate(111.942 209.942)">
          <path id="Path_331" data-name="Path 331" class="cls-13" d="M1138.054,1259.088l2.287-2.255-30.648-48.418-11.063-.555Z" transform="translate(-1098.63 -1207.86)"/>
        </g>
        <g id="Group_215" data-name="Group 215" transform="translate(0 108.495)">
          <ellipse id="Ellipse_9" data-name="Ellipse 9" class="cls-13" cx="16.247" cy="16.638" rx="16.247" ry="16.638" transform="translate(345.092 9.849)"/>
          <path id="Path_332" data-name="Path 332" class="cls-13" d="M1229.59,1509.656h165.193a3.285,3.285,0,0,0,3.265-3.288v-15.61a3.285,3.285,0,0,0-3.265-3.288H1248.856a3.285,3.285,0,0,0-3.265,3.288Z" transform="translate(-1058.099 -1258.88)"/>
          <circle id="Ellipse_10" data-name="Ellipse 10" class="cls-15" cx="49.368" cy="49.368" r="49.368" transform="translate(71.299 189.175)"/>
          <circle id="Ellipse_11" data-name="Ellipse 11" class="cls-16" cx="25.164" cy="25.164" r="25.164" transform="translate(95.504 213.384)"/>
          <g id="Group_212" data-name="Group 212" transform="translate(323.407 165.448)">
            <path id="Path_333" data-name="Path 333" class="cls-13" d="M1563.68,1421.705h16.329a56.769,56.769,0,0,1,113.27-5.516,6.069,6.069,0,0,0,6.025,5.52h.323a9.522,9.522,0,0,0,9.431-10.922,73.086,73.086,0,0,0-72.277-62.178,73.1,73.1,0,0,0-73.1,73.1Z" transform="translate(-1563.68 -1348.61)"/>
          </g>
          <g id="Group_213" data-name="Group 213" transform="translate(298.671 52.109)">
            <path id="Path_334" data-name="Path 334" class="cls-13" d="M1509.28,1275.833l24.737,9.963c17.129-33.312,34.622-49.655,49.587-57.717,26.915-14.51,45.649-2.219,39.342-13.651l-46.172-97.423a42.418,42.418,0,0,0-38.355-17.47,13.794,13.794,0,0,0-11.763,18.093,168.26,168.26,0,0,1,8.367,53.5C1535.026,1228.552,1509.28,1275.833,1509.28,1275.833Z" transform="translate(-1509.28 -1099.356)"/>
          </g>
          <path id="Path_335" data-name="Path 335" class="cls-13" d="M1554.483,1055.6l18.634-7.121c2.537,0,7.371,2.292,7.371-.245l-2.76-45.5a4.623,4.623,0,0,0-4.611-4.611h-12.009c-2.537,0-12.7,4.861-11.982,13.964l-3.2,45.872C1545.93,1060.493,1551.95,1055.6,1554.483,1055.6Z" transform="translate(-1230.594 -992.045)"/>
          <path id="Path_336" data-name="Path 336" class="cls-13" d="M858.98,1191.778H983.071a6.548,6.548,0,0,0,6.53-6.53v-4.479a6.548,6.548,0,0,0-6.53-6.53H858.98a6.548,6.548,0,0,0-6.53,6.53v4.484A6.544,6.544,0,0,0,858.98,1191.778Z" transform="translate(-852.45 -1088.081)"/>
          <circle id="Ellipse_12" data-name="Ellipse 12" class="cls-15" cx="49.368" cy="49.368" r="49.368" transform="translate(347.134 189.175)"/>
          <path id="Path_337" data-name="Path 337" class="cls-17" d="M1669.09,1479.184a25.053,25.053,0,0,0,2.9,11.736c.118.227.246.45.377.673a25.163,25.163,0,1,0,31.557-35.641c-.091-.045-.191-.082-.287-.118a25.167,25.167,0,0,0-34.549,23.35Z" transform="translate(-1297.751 -1240.641)"/>
          <path id="Path_338" data-name="Path 338" class="cls-13" d="M1236.247,1275.63S1217,1318.505,1260,1365.109H1160.76l13.464-102.029Z" transform="translate(-1020.567 -1136.524)"/>
          <path id="Path_339" data-name="Path 339" class="cls-13" d="M898.96,1393.769a6.551,6.551,0,0,0,6.534,6.53h158.373a6.548,6.548,0,0,0,6.53-6.53l-2.1-103.584-53.329-3.265C943.922,1286.915,898.96,1322.724,898.96,1393.769Z" transform="translate(-877.811 -1149.523)"/>
          <path id="Path_340" data-name="Path 340" class="cls-12" d="M1611.37,1010.3a25.52,25.52,0,0,0,25.55,25.541V984.76A25.547,25.547,0,0,0,1611.37,1010.3Z" transform="translate(-1266.278 -984.76)"/>
          <g id="Group_214" data-name="Group 214" transform="translate(303.005 15.553)">
            <path id="Path_341" data-name="Path 341" class="cls-15" d="M1520.575,1032.4c.1,0,1.159-.209,1.26-.227l28.106-7.8c1.114-.218,1.887-1.6,1.723-3.088s-1.2-2.519-2.314-2.3l-28.17,5.5c-1.114.218-2.005,1.91-2.269,3.374C1518.47,1030.316,1519.579,1032.4,1520.575,1032.4Z" transform="translate(-1518.811 -1018.963)"/>
          </g>
          <path id="Path_342" data-name="Path 342" class="cls-12" d="M1644.72,1234.941q-.382,2.36-.737,4.565c.073-.032.141-.073.218-.1a56.758,56.758,0,0,1,80.839,45.763,6.069,6.069,0,0,0,6.025,5.52h.323a9.522,9.522,0,0,0,9.431-10.922,73.288,73.288,0,0,0-56.153-60.373c-.1-.027-.2-.05-.3-.073l-46.172-97.423a42.288,42.288,0,0,0-16.27-13.564c7.871,13.241,29.584,55.594,24.532,112.669q-.525,5.88-1.432,11.968C1644.925,1233.622,1644.829,1234.281,1644.72,1234.941Z" transform="translate(-1272.036 -1052.141)"/>
          <path id="Path_343" data-name="Path 343" class="cls-12" d="M1093.53,1240.346v15.387a4.87,4.87,0,0,0,4.856,4.856h101.206a4.873,4.873,0,0,0,4.856-4.856v-15.387a4.87,4.87,0,0,0-4.856-4.856h-101.21A4.866,4.866,0,0,0,1093.53,1240.346Z" transform="translate(-983.907 -1121.479)"/>
          <path id="Path_344" data-name="Path 344" class="cls-18" d="M926.55,1439.3h152.357s9.294-56.412-25-75.46c-8.258-4.588-18.63-6.166-29.934-5.061C988.355,1362.262,943.493,1392.446,926.55,1439.3Z" transform="translate(-892.856 -1188.52)"/>
          <path id="Path_345" data-name="Path 345" class="cls-19" d="M1612.32,1051.26a25.558,25.558,0,0,0,25.119,20.844v-14.255C1629.931,1058.154,1619.118,1057.335,1612.32,1051.26Z" transform="translate(-1266.796 -1021.021)"/>
          <path id="Path_346" data-name="Path 346" class="cls-19" d="M1163.98,1260.58H1238a4.873,4.873,0,0,0,4.856-4.856v-15.387a4.87,4.87,0,0,0-4.856-4.856h-50.71C1182.883,1241.705,1174.6,1252.254,1163.98,1260.58Z" transform="translate(-1022.323 -1121.474)"/>
          <path id="Path_347" data-name="Path 347" class="cls-20" d="M926.55,1439.7h63.278c38.192-19.385,35.859-66.143,34.149-80.521C988.355,1362.668,943.493,1392.852,926.55,1439.7Z" transform="translate(-892.856 -1188.926)"/>
          <path id="Path_348" data-name="Path 348" class="cls-16" d="M1676.3,1493.911a25.163,25.163,0,1,0,31.557-35.641C1705.67,1469.165,1698.626,1489.345,1676.3,1493.911Z" transform="translate(-1301.683 -1242.958)"/>
          <path id="Path_349" data-name="Path 349" class="cls-19" d="M1644.715,1234.941q-.382,2.36-.737,4.565c.073-.032.141-.073.218-.1,9.117-8.43,28.379-15.9,40.46-20.012-.1-.027-.2-.05-.3-.073l-46.172-97.423a42.289,42.289,0,0,0-16.27-13.564c7.871,13.241,29.584,55.594,24.532,112.669q-.525,5.88-1.432,11.968C1644.919,1233.622,1644.824,1234.281,1644.715,1234.941Z" transform="translate(-1272.03 -1052.141)"/>
        </g>
        <g id="Group_216" data-name="Group 216" transform="translate(8.649 129.612)">
          <rect id="Rectangle_362" data-name="Rectangle 362" class="cls-21" width="78.875" height="65.038" transform="translate(39.437)"/>
          <rect id="Rectangle_363" data-name="Rectangle 363" class="cls-22" width="78.875" height="65.038"/>
          <path id="Path_350" data-name="Path 350" class="cls-22" d="M1116.57,1130.729h-12.5l1.1-3.52-1.1-2.51h12.5Z" transform="translate(-998.303 -1082.184)"/>
          <path id="Path_351" data-name="Path 351" class="cls-23" d="M871.47,1074.321v21.917h78.875V1031.2H936.371Z" transform="translate(-871.47 -1031.2)"/>
          <path id="Path_352" data-name="Path 352" class="cls-24" d="M871.47,1056.05h12.5l-1.1-3.515,1.1-2.515h-12.5Z" transform="translate(-871.47 -1041.462)"/>
          <path id="Path_353" data-name="Path 353" class="cls-22" d="M871.47,1143.99h12.5l-1.1-3.52,1.1-2.51h-12.5Z" transform="translate(-871.47 -1089.415)"/>
        </g>
        <g id="Group_217" data-name="Group 217" transform="translate(153.653)">
          <path id="Path_354" data-name="Path 354" class="cls-25" d="M1261.175,863.038c-13.637,5.538-38.564-6.3-38.564-6.3s8.276-7.325,9.849-21.2c.082-.7.141-1.414.187-2.142,1.437-.514,4.147-1.478,7.048-2.505l12.077,8.221a93.591,93.591,0,0,1-.136,11.122c-.073,1.237-.168,2.565-.3,3.979A24.488,24.488,0,0,1,1261.175,863.038Z" transform="translate(-1207.946 -792.362)"/>
          <path id="Path_355" data-name="Path 355" class="cls-26" d="M1263.6,839.111a93.578,93.578,0,0,1-.136,11.122c-10.99-2-17.038-10.872-19.171-14.7.082-.7.141-1.414.186-2.142,1.437-.514,4.147-1.478,7.048-2.505Z" transform="translate(-1219.767 -792.362)"/>
          <path id="Path_356" data-name="Path 356" class="cls-25" d="M1264.313,813.871s-23.486-.764-22.781-15.383-1.855-24.559,13.168-24.691,17.666,5.588,18.621,10.522S1270.438,813.694,1264.313,813.871Z" transform="translate(-1218.255 -761.229)"/>
          <path id="Path_357" data-name="Path 357" class="cls-15" d="M1234.568,793.159s-.918-4.861,1.728-8.071c0,0-1.705-4.77.127-5.839s2.787,3.006,3.592,2.237a20.027,20.027,0,0,0,5.452-9.131c1.1-4.756,17.379-1.346,19.3-.773s-10.8-23.172-24.546-17.547-14.778,12.682-13.191,18.4S1228.475,791.986,1234.568,793.159Z" transform="translate(-1210.05 -749.984)"/>
          <path id="Path_358" data-name="Path 358" class="cls-27" d="M1194.88,1139.21s1.628,28.688,8.162,36.859,131.717,5,131.717,5,.546-18.393-4.356-23.122-27.76-18.316-100.747-26.019Z" transform="translate(-1192.825 -956.515)"/>
          <path id="Path_359" data-name="Path 359" class="cls-12" d="M1190.742,935.994c2.042,24.641-.646,62.119,1.669,68.612,2,5.6,24.764,2.269,33.849.4,3.365-.7,7.439-1.682,11.65-2.851,11.736-3.26,24.527-7.921,25.9-11.381a2.482,2.482,0,0,0,.127-.4,2.734,2.734,0,0,0-.023-1.446c-.337-1.305-1.391-2.687-2.005-5.088a14.868,14.868,0,0,1-.423-2.951c-.214-4.465-.2-9.649-.355-15.233-.018-.514-.032-1.028-.05-1.546a21.094,21.094,0,0,0-.1-2.146l0-.255c0-.132,0-.259-.009-.391-.2-6.884-.6-14.119-1.06-21.3-.146-2.237-.3-4.465-.478-6.662-.054-.778-.118-1.551-.177-2.319-.118-1.437-.241-2.865-.368-4.265-1.023-11.04-2.405-20.858-4.229-27.06-2.983-10.117-9.563-16.715-15.551-21.549l-4.333-3.338a27.712,27.712,0,0,1-15.719-1.878c-5.588-2.387-7.521-4.1-8.494-3.451C1197.622,878.445,1188.332,905.869,1190.742,935.994Z" transform="translate(-1190.361 -813.343)"/>
          <path id="Path_360" data-name="Path 360" class="cls-28" d="M1403.44,1440.66s1.1,17.857,4.561,18.111c.459.032,17.52.032,17.52.032l21.781-.127s-.141-5.247-6.511-6.357-17.024-5.584-20.88-14C1415.858,1429.474,1403.44,1440.66,1403.44,1440.66Z" transform="translate(-1306.55 -1121.727)"/>
          <path id="Path_361" data-name="Path 361" class="cls-27" d="M1393.349,1320.27s4.211,3.238,12.791,3.651a34.032,34.032,0,0,0,6.007-.241,28.622,28.622,0,0,0,7.685-1.964l23.109-96.991s-25.037-21.876-38.1-8.271c-1.705,1.773-3.156,4.852-4.4,8.862C1392.163,1252.054,1393.349,1320.27,1393.349,1320.27Z" transform="translate(-1301.015 -1000.173)"/>
          <path id="Path_362" data-name="Path 362" class="cls-19" d="M1271.35,974.621s16.211,59.345,34.722,66.579a14.871,14.871,0,0,1-.423-2.951c-.214-4.465-.2-9.649-.355-15.233-.018-.514-.032-1.028-.05-1.546a21.129,21.129,0,0,0-.1-2.146l0-.255c0-.132,0-.259-.009-.391-.2-6.884-.6-14.119-1.06-21.3-.146-2.237-.3-4.465-.477-6.662C1295.436,980.869,1284.378,973.794,1271.35,974.621Z" transform="translate(-1234.523 -870.701)"/>
          <path id="Path_363" data-name="Path 363" class="cls-25" d="M1484.073,1019.356s7.057.546,8.871,0,10.34-5.625,13.428-4.538,10.886,9.072,8.89,12.7a10.242,10.242,0,0,1-6.984-3.356c-3.356-3.447-6.984-1.087-6.621-.637s5.625,2.542,4.715,3.447-7.8.727-9.435-.364-13.787.273-13.787.273Z" transform="translate(-1350.014 -892.572)"/>
          <path id="Path_364" data-name="Path 364" class="cls-12" d="M1253.284,905.634s43.894,37.419,55.448,41.024,52.374,11.541,52.374,11.541,1.123,9.663-2.705,13.291c0,0-52.451-3.042-58.981-4.424s-55.2-26.6-59.167-28.506S1236.9,902.551,1253.284,905.634Z" transform="translate(-1216.457 -833.011)"/>
          <path id="Path_365" data-name="Path 365" class="cls-29" d="M1393.349,1336.238s4.211,3.238,12.791,3.651a34.032,34.032,0,0,0,6.007-.241c-13.182-16.67-11.7-98.369-11.7-98.369C1392.163,1268.022,1393.349,1336.238,1393.349,1336.238Z" transform="translate(-1301.015 -1016.141)"/>
          <path id="Path_366" data-name="Path 366" class="cls-12" d="M1220.08,769.582v.223a1.539,1.539,0,0,0,.687,1.364.87.87,0,0,0,.432.118h55.648c.614,0,1.114-.668,1.114-1.487v-.223c0-.818-.5-1.487-1.114-1.487l-12.427-1.6c-1.16-9.231-7.294-16.765-15.4-19.362h-.009a20.259,20.259,0,0,0-6.225-.973c-11.418,0-20.776,9.431-21.749,21.458-.009.141-.023.277-.032.418-.141.1-.223.168-.232.173A1.553,1.553,0,0,0,1220.08,769.582Z" transform="translate(-1206.566 -746.16)"/>
          <path id="Path_367" data-name="Path 367" class="cls-19" d="M1240.032,767.633c-4.147-21.945,9.663-20.535,10.122-20.48a20.26,20.26,0,0,0-6.225-.973c-11.418,0-20.776,9.431-21.749,21.458h17.852Z" transform="translate(-1207.711 -746.171)"/>
        </g>
      </g>
      <path id="Path_368" data-name="Path 368" class="cls-30" d="M1011.767,1580.82s-45.681-11.513-58.567-25.432-24.023,1.855-15.674,10.672S1011.767,1580.82,1011.767,1580.82Z" transform="translate(-422.277 -678.806)"/>
      <path id="Path_369" data-name="Path 369" class="cls-30" d="M701.9,1543h64.024a2.878,2.878,0,0,0,2.869-2.869h0a2.878,2.878,0,0,0-2.869-2.869H701.9a2.878,2.878,0,0,0-2.869,2.869h0A2.878,2.878,0,0,0,701.9,1543Z" transform="translate(-293.805 -671.927)"/>
      <path id="Path_370" data-name="Path 370" class="cls-30" d="M770.57,1517.989h34.818a1.562,1.562,0,0,0,1.56-1.56h0a1.562,1.562,0,0,0-1.56-1.56H770.57a1.562,1.562,0,0,0-1.56,1.56h0A1.565,1.565,0,0,0,770.57,1517.989Z" transform="translate(-331.964 -659.718)"/>
      <path id="Path_371" data-name="Path 371" class="cls-19" d="M2225.27,1163.823c20.38,36.727,51.71,75.192,51.71,75.192s68.985-84.673,68.985-122.764a68.915,68.915,0,0,0-25.5-53.561,171.72,171.72,0,0,1-13.678,40.538,32.2,32.2,0,0,1-29.807,44.517,29.861,29.861,0,0,1-7.03-.819C2257.91,1155.156,2243.2,1161.2,2225.27,1163.823Z" transform="translate(-1126.041 -413.151)"/>
    </g>
  </g>
</svg>
