<?xml version="1.0" encoding="utf-8"?>
<!-- Generator: Adobe Illustrator 24.3.0, SVG Export Plug-In . SVG Version: 6.00 Build 0)  -->
<svg version="1.1" id="Layer_1" xmlns="http://www.w3.org/2000/svg" xmlns:xlink="http://www.w3.org/1999/xlink" x="0px" y="0px"
	 viewBox="0 0 1475.1 558.6" style="enable-background:new 0 0 1475.1 558.6;" xml:space="preserve">
<style type="text/css">
	.st0{fill:#E6F1FC;}
	.st1{fill:#CAE3F8;}
	.st2{fill:#284D3B;}
	.st3{fill:#4B9074;}
	.st4{fill:#A5C86C;}
	.st5{fill:#2D2E30;}
	.st6{opacity:0.6;fill:#666666;enable-background:new    ;}
	.st7{fill:#FFFFFF;}
	.st8{opacity:0.2;fill:#4B9074;enable-background:new    ;}
	.st9{opacity:0.5;fill:#8B9093;enable-background:new    ;}
	.st10{opacity:0.2;fill:#8B9093;enable-background:new    ;}
	.st11{opacity:0.2;}
	.st12{fill:#E07500;}
	.st13{fill:#FDC100;}
	.st14{fill:#F08C02;}
	.st15{fill:#FFCCC0;}
	.st16{fill:#3D3E3F;}
	.st17{fill:#CD4945;}
	.st18{fill:#E8564B;}
	.st19{fill:#723691;}
	.st20{fill:#70C08D;}
	.st21{fill:#666666;}
	.st22{fill:#8B9093;}
	.st23{fill:#0B9A4D;}
	.st24{fill:#96E39E;}
	.st25{fill:#B7F8BA;}
	.st26{fill:#AACC42;}
	.st27{fill:#282049;}
	.st28{fill:#E6662B;}
	.st29{opacity:0.5;fill:#AACC42;enable-background:new    ;}
	.st30{opacity:0.5;fill:#FFFFFF;enable-background:new    ;}
	.st31{fill:#C92C2C;}
	.st32{opacity:0.8;}
	.st33{fill:#B1CF39;}
</style>
<g id="Group_488" transform="translate(97.534 -241.43)">
	<g id="BACKGROUND" transform="translate(-97.534 92)">
		<path id="Path_10" class="st0" d="M1475.1,389.9c-73.5-38.6-170.9-66.2-275.7-71.8c-103.4-5.6-207.1,10-301.3,32.4
			s-181.4,51.6-274,75.6c-62.6,16.2-130.7,30.4-200.7,27.6c-75.5-2.9-143.4-25.1-218.4-30.6c-73.2-5.3-149.3,7.6-205,32.1v231.2
			l0.5,0c339.5,22.7,683.6,16,1025.9,11c140.7-2,284.1-4,417.1-27.4c10.6-1.9,21.2-3.9,31.6-6.3L1475.1,389.9z"/>
		<path id="Path_11" class="st1" d="M749.5,623.4c-8.2-4.2-16.3-9-22.4-15.9c-6.1-6.9-9.9-16.3-8.2-25.4c1.7-9,10.1-16.9,19.3-16.3
			c7.7,0.5,15,6.6,22.5,4.6c6.7-1.8,10.2-9.6,9.8-16.5c-0.3-6.9-3.4-13.4-5.6-19.9c-4.6-13.8-5.3-28.6-1.9-42.8
			c1.2-5.1,3-10.2,6.6-14c3.6-3.8,9.3-6,14.2-4.2c3.8,1.4,6.4,4.8,9.5,7.5c3.1,2.6,7.7,4.6,11.1,2.4c2.3-1.4,3.3-4.1,4.1-6.6
			c4.6-14.3,6.6-29.4,12.7-43.1c8.7-19.2,24.7-34,44.5-41.1c11.5-4.1,27.1-3.9,32.9,6.9c3.1,5.7,2.3,12.7,0.5,18.9
			c-5.3,18-18.4,32.6-25.3,50c-2.5,6.4-3.7,14.8,1.6,19.2c4.6,3.8,11.3,2.3,17.3,2.2c9.5-0.1,19.2,4.4,24.7,12.2
			c5.5,7.8,6.2,18.9,1.2,27.1c-6.9,11.4-21.6,14.5-34.2,18.9c-12.6,4.4-26.2,14.4-24.2,27.6c1.7,10.7,13.4,18.4,12.9,29.2
			c-0.4,6.8-5.6,12.2-10.9,16.4c-15.5,12-34.2,19.1-53.7,20.3C787,642,768.3,633.2,749.5,623.4z"/>
		<path id="Path_12" class="st1" d="M1279.5,610.4c-4.8-9-7.7-20.5-1.9-28.9c4.4-6.5,12.6-9,20-11.6c7.5-2.6,15.1-5.8,20.9-11.3
			c5.8-5.5,9.6-13.6,8-21.5c-1-4.8-3.9-9-7-12.8c-9.7-11.9-22.2-21.8-29.1-35.5c-3.9-7.8-5.5-18.2,0.6-24.5
			c5.1-5.3,13.4-5.5,19.7-9.3c11.9-7.2,12.5-23.8,14-37.6c1.7-15,6.3-30,16-41.6c9.7-11.5,25-19,39.9-16.5c4.5,0.7,9,2.4,11.9,5.8
			c6.7,7.6,3.2,19.4,0.4,29.2c-4.4,15.9-5.7,32.6-3.6,49c0.5,4.1,1.3,8.4,3.7,11.8c7,10,22.1,7.2,34,4.9c8.4-1.7,17.2-2.6,25.4,0
			c8.2,2.6,15.5,9.3,16.4,17.8c1.6,13.7-12.2,23.4-23,32c-7.5,6.1-14.2,13.1-20,20.9c-4.2,5.7-7.9,12-9.1,18.9s0.6,14.8,6,19.4
			c6.8,5.8,17.7,5.5,23.6,12.3c6.2,7.1,3.6,18.1-0.9,26.4c-14.9,27.2-45.9,42.1-76.5,47.1C1334,660.5,1296.1,641.8,1279.5,610.4z"/>
		<path id="Path_13" class="st1" d="M372.9,540.6c-5.2-5.9-9.5-14.2-6-21.2c4.7-9.4,18.8-8.4,26.9-15.1c0.9-0.6,1.5-1.5,1.7-2.5
			c0-1.1-0.5-2.1-1.2-2.9c-5.8-7-16.1-10.1-19.5-18.6c-1.5-3.7-1.3-8-0.5-11.9c2.6-12.4,10.3-23.1,21.2-29.4
			c6.2-3.6,13.6-5.6,20.7-4.2s13.6,6.4,15.5,13.3c4.1,14.9-13.5,28-13.2,43.4c0.2,13.9,14.1,23,26.6,29.1
			c12.4,6.1,26.7,13.7,29.1,27.3c4.4,25-24.9,28.6-41.9,24.1C410.6,566.2,388.3,558.1,372.9,540.6z"/>
		<path id="Path_14" class="st1" d="M70.1,597.6c-5.8-5.7-11.5-12.4-12.4-20.5c-0.7-9.1,4.8-17.4,13.4-20.4c2.8-0.9,5.9-1.2,8-3.2
			c5.1-4.8,0.1-13-3.9-18.7c-15.2-21.8-12-54.5,7.3-72.8c3.3-3.1,7.7-6,12.1-4.8c2.4,0.6,4.3,2.4,5.9,4.2
			c10,10.7,15.7,24.6,16.1,39.2c0.1,5-0.4,10.1,0.8,15c1.2,4.9,4.8,9.6,9.7,10.3c2.5,0.3,5-0.4,7.6-0.2c6.2,0.3,11.3,5.9,12.4,12
			s-1.2,12.4-4.7,17.6c-4.1,6-10.3,11.7-9.7,19c0.6,7.6,8.2,12.2,13.3,17.8c16.8,18.2,2.6,43.5-21.1,43
			C105.3,634.4,82.9,610.3,70.1,597.6z"/>
		<rect id="Rectangle_93" y="606.7" class="st1" width="1475.1" height="101.3"/>
	</g>
	<g id="Group_326" transform="translate(-210.927 125.934)">
		<g id="Group_284" transform="translate(386.549 124.102)">
			<g id="Group_251" transform="translate(0 193.875)">
				<path id="Path_373" class="st2" d="M336.9,147.6c0.9-8.3,3.8-15.6,12.1-20.8c8.1-5.1,17.6-7.9,27.1-9.7
					c18.2-3.4,45.2-4.9,59.4,8.8c23.4,22.3-34.6,1.8-49.2,72.4s27.4-5.8,74.6,9.9c43.9,14.6-28.9-5.1-35,39.3v4.7h-91.8
					c-21,0-45.3,0.6-63.7-9.9c-4.6-2.6-8.6-5.9-12.9-8.9c-9.9-6.8-21.2-11.7-32.3-16.6c-6.8-3-13.8-6.1-18.6-11.4
					s-6.8-13.6-2.5-19.4c4.7-6.3,14.3-6.9,22.5-7c6.1,0,12.3,0,18.4,0c6.6-0.2,13.3,0.1,19.9,0.9c8.7,1.2,17,4.1,25.5,6.3
					s17.5,3.6,26.1,1.9s16.8-7.1,19.4-15c1.6-4.8,0.9-10,0.8-15C336.5,154.7,336.6,151.1,336.9,147.6z"/>
				<path id="Path_374" class="st2" d="M132.4,82.1c0.8,0.6,1.7,1.2,2.5,1.8c6.5,5,13.8,9,19.6,14.6c7.3,7.1,14.6,14.1,21.8,21.2
					c10.4,10,10.6,13.8,13,27.5c17.3,99.9,21.9-15.6,70.7-7.6c45.4,7.4-27.9,1.2-14.3,63.2l2,6.4c0,0-23.6,7.5-25,7.9
					c-18.9,6-37.9,12-56.8,18c-5.9,1.9-12,2.7-17.8,4.4c-5.7,1.7-10.2,5.3-16.6,5.6c-5.7,0.2-11.2-1.8-15.3-5.8
					c-6.6-6.3-7.2-14.8-11.1-22.5c-4.1-8-9.2-15.3-15.3-21.9c-4.1-4.5-8.7-8.6-13.5-12.2c-4.9-3.6-9.2-8-14.7-10.7
					c-8.1-4.1-15.2-9.9-20.8-17c-1.4-1.8-2.8-4.2-1.8-6.3c0.7-1.2,1.8-2.1,3.1-2.5c5.2-2.2,11.2-1.8,16.7-0.8
					c17,2.9,32.9,10.2,46.2,21.2c3.1,2.6,6.8,5.6,10.8,4.9c4.1-0.8,6.5-5.3,6.3-9.5s-2.4-7.9-4.6-11.4c-5.6-9-11.6-17.7-18.1-26.1
					c-3-3.9-5.9-8.4-9.6-11.6c-3.9-3.3-8.3-6-12.3-9.2c-4.3-3.5-9.1-6.5-14-9c-4-2-8.9-2.8-12.6-5.1c-7.6-4.7-7.2-12.9,1-16.4
					c3.9-1.6,7.8-3.1,11.8-4.3c3.8-1.2,7.7-2,11.7-2.2c3.2,0,6.4,0.3,9.5,0.8C101.2,70.1,118.6,72.8,132.4,82.1z"/>
				<path id="Path_375" class="st3" d="M178.9,99.4c-0.2-1.1-0.4-2.2-0.4-3.4c-0.2-4-3.1-8-4.7-12.1c-1.7-4.2-3-8.4-4.3-12.6
					c-2.5-8.2-5-16.6-9.6-24.4c-5.2-8.6-12.2-16.1-20.4-22c-7.8-5.6-16.1-10.3-24.9-14c-10-4.5-19.8-8.3-29.8-10.4
					c-1.7-0.4-3.4-0.6-5.1-0.5c-4.5,0.6-7,5.2-6.9,10.2c0.1,5.1,5.4,15.1,8,20.2c3.1,6.2,20.4-1.3,24.7,4.2
					c2.3,2.9-22.3,0.5-19.8,3.1c2.1,2.2,14.9,17.6,16.9,19.7c4.9,4.9,9.4,12.4,13.3,18.2c4.2,6.3,7.9,13,10.7,20
					c3,7.6,4.8,15.4,8.6,22.7c1.3,2.8,3.2,5.3,5.4,7.4c3.3,2.8,7.5,4.2,11.8,3.9c7.8-0.3,14-4.4,19.4-9.1c2.6-2.3,5.1-4.7,7.4-7.3
					c1-0.9,1.6-2.2,1.9-3.5c0-1.2-0.2-2.4-0.5-3.6C180,104,179.3,101.7,178.9,99.4z"/>
				<path id="Path_376" class="st3" d="M317.1,252.2H358c12.1,0,28.8-9.6,37.3-19c27.4-30.2,60-37.9,67.4-38.9
					c7.2-0.9,16.3-2.1,18.3-9c0.8-2.8,0.1-5.7-1.1-8.4c-5.5-12.6-26-18-38.5-20c-16.7-2.8-33.8-0.5-49.1,6.8
					c-9.9,4.8-17.5,0.8-17.4-11.1c0.1-12.1,8.2-24.5,16.3-32.7c8.6-8.8,14-20.3,15.1-32.5c0.2-0.7,0-1.4-0.4-2
					c-0.5-0.4-1-0.6-1.6-0.6l-15.1-2c4.3-2.6,8.5-3.7,13.1-5.5c0.5-0.2,0.9-0.4,1.3-0.8c0.2-0.3,0.4-0.6,0.5-0.9
					c1.2-3.1,1-7.3,1.4-10.6c0.8-7.4,4-26.1-5.1-30.1c-3.3-1.4-7.2,0.2-9.6,2.8c-3.4,3.6-4.7,8-7.1,12.2c-2.5,4.5-6.8,7.9-10.5,11.6
					c-3.3,2.5-5,6.5-4.6,10.5c-0.2,6.4-0.3,12.7-0.5,19.1l-9.7-19.2c-0.5-1-18.9,18.2-20.3,20.2c-5.5,7.7-10.9,17.2-12.2,26.7
					c-2.4,17.7-4.5,34.8-8.7,52.3c-2.6,11-0.9,22.3-0.2,33.5C317.4,207,319.1,252.2,317.1,252.2z"/>
				<path id="Path_377" class="st4" d="M415.1,244.7c6.2-7.1,16.7-8.1,26.1-9.3c1,0,2-0.4,2.9-0.9c1.3-1.2,1.6-3.2,0.8-4.8
					c-0.9-1.5-2.2-2.7-3.7-3.6c-5.6-3.4-12.1-5.1-18.7-4.8c-3.6,0.2-7.9,0.5-9.9-2.4c-0.8-1.4-1.1-3-1-4.7
					c0.1-16.3,19.1-20.7,30.9-26.6c3.1-1.6,6.3-3.2,8.7-5.8s3.8-6.3,2.6-9.6c-1.8-5.4-8.8-6.7-14.5-6.1c-5.4,0.6-10.7,2-15.8,4.1
					c-4.3,1.6-8.2,4-11.5,7.1c-2.8,2.9-4.8,6.5-7,9.8c-2.4,3.6-5.1,7-8.2,10.1c-0.9,1.1-2.1,1.9-3.5,2.4c-2.3,0.5-4.6-1.2-5.6-3.3
					s-1.1-4.5-1.1-6.9c-0.1-13.4-1-26.5-0.9-39.9c0-4,0-7.9-0.1-11.6c-0.3-9.1-1.5-17.1-4.7-22.7c-2.4-4.5-6.1-8.2-10.5-10.6
					c-7.1-3.7-17.6-5.3-23.1,9.6c-9.1,24.4,13.5,1.9,19.1,79.2s-10.6-6.4-29,10.8c-17.1,16,11.2-5.6,13.6,43v5.2h35.7
					c5.4,0,10.9,0.4,16.3,0.3c1.7,0.1,3.5-0.1,5.1-0.7C411.2,250.6,412.8,247.3,415.1,244.7C415,244.7,415,244.7,415.1,244.7z"/>
				<path id="Path_378" class="st4" d="M164.2,252.2h-40.9c-12.1,0-28.8-6.7-37.3-13.2c-27.4-21-60-26.4-67.4-27.1
					c-7.2-0.6-16.3-1.4-18.3-6.3c-0.8-1.9-0.1-4,1.1-5.8c5.5-8.8,26-12.5,38.4-14c16.5-1.9,33.9-0.4,49.1,4.7
					c9.9,3.4,17.5,0.5,17.4-7.7c-0.1-8.4-8.2-17.1-16.3-22.8c-8.6-6-14.1-14.2-15.1-22.7c-0.1-0.5,0-1.1,0.4-1.4
					c0.5-0.3,1.1-0.4,1.6-0.4l15.1-1.4c-2.1,0.2-6.4-2.1-8.6-2.7c-2.1-0.5-4.9-0.4-6.5-1.9c-1.1-1.1-2-2.3-2.8-3.6
					c-2.8-3.8-7.3-6-10.5-9.5c-1.6-1.7-2.9-4.1-1.8-6.2c1.1-2.1,3.9-2.4,6.2-2.5c7.5-0.3,15.1,0.4,22.5,2.1c8.2,2,15.1,7,21.9,12
					c0.7,0.5,0.4,6.7,0.5,7.7c0.1,3.4,0.2,6.9,0.4,10.3c3.2-4.5,6.4-8.9,9.6-13.4c0.5-0.7,18.9,12.7,20.3,14
					c5.5,5.4,10.9,12,12.2,18.6c2.4,12.3,4.5,24.3,8.7,36.5c2.6,7.6,0.9,15.6,0.2,23.3C163.9,220.7,162.3,252.2,164.2,252.2z"/>
			</g>
			<g id="Group_277" transform="translate(128.247)">
				<g id="Group_275">
					<path id="Rectangle_384" class="st5" d="M14.3,0h200.5c7.9,0,14.3,6.4,14.3,14.3v417.6c0,7.9-6.4,14.3-14.3,14.3c0,0,0,0,0,0
						H14.3c-7.9,0-14.3-6.4-14.3-14.3c0,0,0,0,0,0V14.3C0,6.4,6.4,0,14.3,0z"/>
					<path id="Rectangle_385" class="st6" d="M19.1,4.2H210c7.9,0,14.3,6.4,14.3,14.3c0,0,0,0,0,0v409.1c0,7.9-6.4,14.3-14.3,14.3
						H19.1c-7.9,0-14.3-6.4-14.3-14.3V18.5C4.8,10.6,11.2,4.2,19.1,4.2z"/>
					<path id="Path_379" class="st7" d="M195.7,10.7h-36.4v8.7c0,4.9-3.9,8.9-8.8,8.9H75.6c-4.9,0-8.8-4-8.8-8.9v-8.7H33.4
						c-12.7,0.1-22.9,10.5-22.8,23.1v378.4c-0.1,12.7,10.1,23,22.8,23.1h162.3c12.7-0.1,22.9-10.4,22.8-23.1V33.8
						C218.6,21.2,208.4,10.8,195.7,10.7z"/>
					<g id="Group_274" transform="translate(35.067 186.576)">
						<g id="Group_254">
							<g id="Group_252">
								<rect id="Rectangle_386" x="0" y="0" class="st8" width="66.7" height="69.9"/>
								<rect id="Rectangle_387" x="0" y="74.8" class="st9" width="66.7" height="4"/>
								<rect id="Rectangle_388" x="0" y="83" class="st10" width="66.7" height="2.2"/>
								<rect id="Rectangle_389" x="92.3" y="74.8" class="st9" width="66.7" height="4"/>
								<rect id="Rectangle_390" x="92.3" y="83" class="st10" width="66.7" height="2.2"/>
								<rect id="Rectangle_391" x="92.3" y="180.7" class="st9" width="66.7" height="4"/>
								<rect id="Rectangle_392" x="92.3" y="188.9" class="st10" width="66.7" height="2.2"/>
								<rect id="Rectangle_393" x="0" y="180.7" class="st9" width="66.7" height="4"/>
								<rect id="Rectangle_394" x="0" y="188.9" class="st10" width="66.7" height="2.2"/>
							</g>
							<g id="Group_253" transform="translate(92.27)">
								<rect id="Rectangle_395" x="0" y="0" class="st8" width="66.7" height="69.9"/>
							</g>
						</g>
						<g id="Group_273" transform="translate(0 105.644)">
							<g id="Group_257" class="st11">
								<g id="Group_256">
									<g id="Group_255">
										<rect id="Rectangle_396" x="0" y="0" class="st3" width="66.7" height="69.9"/>
									</g>
								</g>
							</g>
							<g id="Group_267" transform="translate(92.27)" class="st11">
								<g id="Group_266">
									<g id="Group_265">
										<rect id="Rectangle_397" x="0" y="0" class="st3" width="66.7" height="69.9"/>
									</g>
								</g>
							</g>
						</g>
					</g>
					<path id="Path_386" class="st12" d="M218.5,33.8v7.7H10.6v-7.7c-0.1-12.7,10.1-23,22.8-23.1h33.5v8.7c0,4.9,3.9,8.9,8.8,8.9
						h74.9c4.9,0,8.8-4,8.8-8.9c0,0,0,0,0,0v-8.7h36.4C208.4,10.8,218.6,21.2,218.5,33.8z"/>
				</g>
				<g id="Group_276" transform="translate(85.059 12.401)">
					<path id="Path_387" d="M6.2,3.1c0,1.7-1.4,3.1-3.1,3.1C1.4,6.2,0,4.8,0,3.1C0,1.4,1.4,0,3.1,0c0,0,0,0,0,0
						C4.8,0,6.2,1.4,6.2,3.1z"/>
					<path id="Rectangle_398" d="M12.1,0h44.1c1,0,1.8,0.8,1.8,1.8c0,0,0,0,0,0v2.7c0,1-0.8,1.8-1.8,1.8H12.1c-1,0-1.8-0.8-1.8-1.8
						V1.8C10.3,0.8,11.1,0,12.1,0z"/>
				</g>
				<path id="Rectangle_399" d="M86.1,426.6h57.6c0.5,0,0.9,0.4,0.9,0.9c0,0,0,0,0,0v1.4c0,0.5-0.4,0.9-0.9,0.9l0,0H86.1
					c-0.5,0-0.9-0.4-0.9-0.9c0,0,0,0,0,0v-1.4C85.1,427,85.5,426.6,86.1,426.6C86.1,426.6,86.1,426.6,86.1,426.6z"/>
			</g>
			<g id="Group_279" transform="translate(101.028 41.576)">
				<g id="Group_278" transform="translate(0.001)">
					<path id="Path_388" class="st13" d="M40.6,73.3H0L38,0h29.7L40.6,73.3z"/>
					<path id="Path_389" class="st7" d="M81.1,73.3H40.6L67.7,0h29.7L81.1,73.3z"/>
					<path id="Path_390" class="st13" d="M121.7,73.3H81.1L97.4,0h29.7L121.7,73.3z"/>
					<path id="Path_391" class="st7" d="M162.3,73.3h-40.6L127.1,0h29.7L162.3,73.3z"/>
					<path id="Path_392" class="st13" d="M202.8,73.3h-40.6L156.8,0h29.7L202.8,73.3z"/>
					<path id="Path_393" class="st7" d="M243.4,73.3h-40.6L186.6,0h29.7L243.4,73.3z"/>
					<path id="Path_394" class="st13" d="M284,73.3h-40.6L216.3,0H246L284,73.3z"/>
				</g>
				<path id="Path_395" class="st14" d="M20.3,101.7L20.3,101.7C9.1,101.7,0,92.7,0,81.5c0,0,0,0,0,0v-8.2h40.6v8.2
					C40.6,92.7,31.5,101.7,20.3,101.7z"/>
				<path id="Path_396" class="st15" d="M60.9,101.7L60.9,101.7c-11.2,0-20.3-9.1-20.3-20.3v-8.2h40.6v8.2
					C81.1,92.7,72.1,101.7,60.9,101.7z"/>
				<path id="Path_397" class="st14" d="M101.4,101.7L101.4,101.7c-11.2,0-20.3-9.1-20.3-20.3v-8.2h40.6v8.2
					C121.7,92.7,112.6,101.7,101.4,101.7z"/>
				<path id="Path_398" class="st15" d="M142,101.7L142,101.7c-11.2,0-20.3-9.1-20.3-20.3v-8.2h40.6v8.2
					C162.3,92.7,153.2,101.7,142,101.7z"/>
				<path id="Path_399" class="st14" d="M182.6,101.7L182.6,101.7c-11.2,0-20.3-9.1-20.3-20.3c0,0,0,0,0,0v-8.2h40.6v8.2
					C202.8,92.7,193.8,101.7,182.6,101.7z"/>
				<path id="Path_400" class="st15" d="M223.1,101.7L223.1,101.7c-11.2,0-20.3-9.1-20.3-20.3v-8.2h40.6v8.2
					C243.4,92.7,234.3,101.7,223.1,101.7C223.1,101.7,223.1,101.7,223.1,101.7z"/>
				<path id="Path_401" class="st14" d="M263.7,101.7L263.7,101.7c-11.2,0-20.3-9.1-20.3-20.3v-8.2H284v8.2
					C284,92.7,274.9,101.7,263.7,101.7z"/>
			</g>
			<g id="Group_281" transform="translate(305.403 311.999)">
				<path id="Path_402" class="st14" d="M90.9,134.5H21.2c-5.8,0-10.6-4.7-10.6-10.6c0-0.3,0-0.6,0-0.9l7.6-89.9
					c0.5-5.5,5-9.7,10.5-9.7h54.6c5.5,0,10.1,4.2,10.5,9.7l7.6,89.9c0.5,5.8-3.8,10.9-9.6,11.4C91.5,134.4,91.2,134.5,90.9,134.5z"
					/>
				<path id="Path_403" class="st13" d="M84.6,134.5H6.9c-3.8,0-6.9-3.1-6.9-6.9c0-0.2,0-0.4,0-0.6l8.2-97.1
					c0.3-3.6,3.3-6.4,6.9-6.4h61.2c3.6,0,6.6,2.8,6.9,6.4l8.2,97.1c0.3,3.8-2.5,7.2-6.3,7.5C85,134.4,84.8,134.5,84.6,134.5z"/>
				<g id="Group_280" transform="translate(23.342)">
					<path id="Path_404" class="st16" d="M42.6,27.3h-1.7v-5.9c0-10.8-8.8-19.6-19.6-19.6S1.7,10.5,1.7,21.3v5.9H0v-5.9
						C0,9.5,9.5,0,21.3,0c11.8,0,21.3,9.5,21.3,21.3V27.3z"/>
				</g>
			</g>
			<g id="Group_283" transform="translate(260.209 345.997)">
				<path id="Path_405" class="st17" d="M70,100.5H12.4c-3,0-5.4-2.4-5.4-5.4c0-0.2,0-0.3,0-0.4l6.1-72.2c0.2-2.8,2.6-4.9,5.4-4.9
					h45.4c2.8,0,5.1,2.1,5.4,4.9l6.1,72.2c0.2,3-2,5.6-4.9,5.8C70.3,100.4,70.1,100.5,70,100.5z"/>
				<path id="Path_406" class="st18" d="M61.3,100.5H6.8c-3.7,0-6.8-3-6.8-6.8c0-0.2,0-0.4,0-0.6l5.9-69.4c0.3-3.5,3.2-6.2,6.7-6.2
					h42.9c3.5,0,6.4,2.7,6.7,6.2l5.9,69.4c0.3,3.7-2.4,7-6.2,7.3C61.7,100.4,61.5,100.5,61.3,100.5z"/>
				<g id="Group_282" transform="translate(17.303)">
					<path id="Path_407" class="st16" d="M31.9,20.4h-1.3v-4.4C30.5,7.8,23.9,1.4,15.8,1.4C7.8,1.5,1.4,7.9,1.3,15.9v4.4H0v-4.4
						C0,7.1,7.1,0,15.9,0s15.9,7.1,15.9,15.9L31.9,20.4z"/>
				</g>
			</g>
		</g>
		<g id="Group_454" transform="translate(506.18 233.438)">
			<path id="Path_893" class="st19" d="M71.5,204.1c1.6,5.3,4.7,8.2,9.5,10.9c3.8,1.9,8,3.7,9.6,7.9c1.8,4.1,1.2,8.7-3,10.9
				c-14.6,7.3-29.2-26.9-20.1-29.8L71.5,204.1z"/>
			<path id="Path_894" class="st20" d="M67.3,201c0.8-0.4,1.9-0.4,2.7,0.1c0.8,0.5,0.8,1.8,1.4,2.5c0.8,1.3,1.9,2.3,3.3,3
				c-1.7,0.7-3,0.8-4.3-0.4c1.4,3.1-1.2,3.3-1.7,0.4c-0.3,0.9-0.9,1.7-1.6,2.3c-0.5-0.9-0.5-1.9-0.1-2.8c-0.6,1.6-3.2,2.4-4.7,1.8
				c2.4-1.3,1.9-6.5,4.4-6.9L67.3,201z"/>
			<path id="Path_895" class="st20" d="M68.3,202.3c-0.3-1.6,0-3.4-0.8-5c-0.7,0-1.3,0.1-1.9,0.4c0.3,1.7,0.8,3.4,1.4,5"/>
		</g>
		<g id="Group_287" transform="translate(766.749 115.496)">
			<path id="Path_408" class="st13" d="M87.9,0H9.8C4.4,0,0,4.4,0,9.8v39.7c0,5.4,4.4,9.8,9.8,9.8h9c-1.5,5-3.9,10.4-8,12.5
				c9.3-0.7,18-8,22.5-12.5h54.6c5.4,0,9.8-4.4,9.8-9.8V9.8C97.7,4.4,93.3,0,87.9,0z"/>
			<g id="Group_286" transform="translate(38.819 10.312)">
				<g id="Group_285">
					<path id="Path_409" class="st7" d="M14.2,26.6c0-1-0.3-1.9-0.9-2.7c-0.9-0.8-2-1.5-3.1-1.8c-1.3-0.5-2.6-1-3.8-1.7
						c-1-0.5-1.9-1.1-2.8-1.9C2.8,17.8,2.2,17,1.8,16c-0.5-1.1-0.7-2.3-0.6-3.4C1,10.5,1.8,8.4,3.3,6.9C4.9,5.4,7,4.5,9.2,4.4V0h3.3
						v4.4c2.2,0.2,4.2,1.3,5.6,3c1.4,1.8,2.1,4.1,2,6.5h-5.9c0.1-1.3-0.3-2.6-1-3.7C12.5,9.4,11.5,9,10.5,9C9.5,9,8.6,9.3,7.9,10
						c-0.6,0.7-1,1.7-0.9,2.6c0,0.9,0.3,1.8,0.9,2.5c1,0.8,2.1,1.5,3.3,1.9c1.4,0.5,2.7,1.1,4,1.8c1,0.5,1.9,1.2,2.6,2
						c0.7,0.7,1.3,1.6,1.7,2.5c0.4,1,0.6,2.1,0.6,3.2c0.1,2.1-0.7,4.1-2.2,5.6c-1.6,1.5-3.7,2.4-5.9,2.6v4.1H8.8v-4
						c-2.5-0.1-4.8-1.2-6.5-3c-1.6-1.9-2.4-4.2-2.3-6.7h5.9c-0.1,1.3,0.3,2.7,1.2,3.7c0.9,0.9,2.1,1.4,3.3,1.3c1,0.1,2-0.3,2.8-0.9
						C13.9,28.5,14.3,27.5,14.2,26.6z"/>
				</g>
			</g>
		</g>
		<g id="Group_290" transform="translate(390.725 253.132)">
			<path id="Rectangle_400" class="st18" d="M75,49.4H6.4C2.9,49.4,0,46.6,0,43V6.4C0,2.9,2.9,0,6.4,0H75c3.5,0,6.4,2.9,6.4,6.4V43
				C81.3,46.6,78.5,49.4,75,49.4C75,49.4,75,49.4,75,49.4z"/>
			<g id="Group_289" transform="translate(16.345 20.296)">
				<g id="Group_288">
					<path id="Path_410" class="st7" d="M40,4.4c0,2.4,2,4.4,4.4,4.4c2.4,0,4.4-2,4.4-4.4c0-2.4-2-4.4-4.4-4.4c0,0,0,0,0,0
						C42,0,40,2,40,4.4z"/>
					<path id="Path_411" class="st7" d="M20,4.4c0,2.4,2,4.4,4.4,4.4s4.4-2,4.4-4.4c0-2.4-2-4.4-4.4-4.4c0,0,0,0,0,0
						C22,0,20,2,20,4.4z"/>
					<path id="Path_412" class="st7" d="M0,4.4c0,2.4,2,4.4,4.4,4.4c2.4,0,4.4-2,4.4-4.4C8.8,2,6.8,0,4.4,0l0,0C2,0,0,2,0,4.4z"/>
				</g>
			</g>
			<path id="Path_413" class="st18" d="M64.1,41.1c0,0,1.3,15,8.3,18.7c-11.2-0.8-21.4-13.4-21.4-13.4"/>
		</g>
		<g id="Group_325" transform="translate(318.915 311.47)">
			<g id="Group_323">
				<g id="Group_292">
					<path id="Path_414" class="st2" d="M70.4,88.4c3.3-0.4,3.6-3.6,5.1-6.1c1.7-3.1,3.6-6,5.7-8.8c2.1-2.6,4.5-5.1,5.6-8.2
						c0.6-2.3,0.9-4.7,0.7-7c-0.1-4.1-0.5-8.3-2.1-12c-1-2.2-2.3-4.3-3.1-6.6c-1.8-5.5,0-11.8,0.8-17.4c0.8-5.7,0.6-11.6-2.2-16.8
						c-0.5-1-1.2-1.8-2.1-2.4c-1.2-0.8-2.5-1.4-3.9-1.8C69-0.6,62.3-0.9,57.9,3.7c-1.1,1.2-2.3,2.4-3.3,3.7C54,8.1,53.5,8.9,53,9.6
						c-2.4,3.9-3.2,8.6-4.7,13c-1.8,5.6-4.2,10.4-8.8,14.1c-7.7,6.2-12.2,14.9-11.9,24.9c0.2,6.8,2.5,13.4,6.7,18.8
						c1,1.5,2.5,2.7,4.1,3.4c4.2,1.5,9.1-0.3,13.3,0.7c1.7,0.5,3.3,1.2,4.9,2C61,88.3,65.8,89,70.4,88.4z"/>
					<g id="Group_291" transform="translate(71.594 42.545)">
						<path id="Path_415" class="st15" d="M16.8,47.7c0,0.1-1.5,0.8-1.4,0.9c2.8,4.6,7.6,8.4,11.1,12.6c2.6,3.1,11.6,10.8,13.1,12
							c1.9,1.5,2.9,4.5,4.1,6.7c1.2,2.3,3.3,4.1,5.8,4.9c1.4,0.4,2.9,0.5,4.3,0.4c0.8,0,1.5,0,2.3,0c0.7,0.1,1.5-0.1,2.2-0.4
							c0.7-0.3,1.1-1.1,0.9-1.8c-0.3-0.5-0.7-0.9-1.2-1.2c-1.8-0.9-3.2-2.4-4.1-4.1c-0.7-1.7,0.8-3.4-1-5c-1.2-0.8-2.5-1.4-3.9-1.7
							c-4.4-1.5-6.2-7.5-8.4-11.1c-2.7-4.4-9.8-16-15.8-21.9C16.6,29.9,16.8,47.7,16.8,47.7z"/>
						<path id="Path_416" class="st13" d="M40.5,59.8c-2.7-4.4-9.8-16-15.8-21.9c-8.2-8-7.9,9.8-7.9,9.8c0,0.1-1.5,0.8-1.4,0.9
							c2.8,4.6,7.6,8.4,11.1,12.6c2.2,2.6,9,8.6,12,11c2-2.1,4-3.7,5.5-6.1C42.9,64.3,41.4,61.3,40.5,59.8z"/>
						<path id="Path_417" class="st13" d="M0,1.3c0,0,0.3,19.7,13.8,44.7c4.6,9.7,12.9,7.6,11.6-7.7C23.6,18,20.3,8,13.8,2.8
							S0,1.3,0,1.3z"/>
					</g>
					<path id="Path_418" class="st17" d="M51.1,118c0,0,0,23.1,13.3,33.8c10.5,8.5,24.8,32.6,24.8,32.6s3,6.3,10.1,2.5
						s8.4-6.6-0.1-30.2C90.9,133.2,82.5,115,68,101.6S51.1,118,51.1,118z"/>
					<path id="Path_419" class="st15" d="M111.8,256.9c1.3-0.1,2.8-0.3,3.5-1.4c0.1-0.3,0.3-0.5,0.5-0.7c0.3-0.2,0.7-0.4,1-0.4
						c2.7-0.4,5.3,0.9,8,1.4c2.3,0.5,4.6,0.5,6.9,0c0.3,0,0.5-0.1,0.8-0.2c1-0.5,1.3-1.8,0.8-2.7c0-0.1-0.1-0.1-0.1-0.2
						c-0.5-0.6-1.2-0.9-1.9-1.1c-3.7-1.4-7.2-3.2-10.4-5.5c-0.6-0.5-1.3-0.9-2-1.3c-0.6-0.2-1.1-0.4-1.6-0.7c-0.9-2.8-1.6-5.7-2-8.6
						c-1.9-11.7-3.4-23.2-5.9-34.8c-1.2-5.6-2.6-11.2-4.3-16.6c-0.9-2.9-1.9-7-4.2-9.2c-7.1-6.8-13.3,6.5-13.3,6.5
						s2.1,14.9,12.8,37.6c5.7,12.3,4.2,20.5,5.7,26.6c0.5,2.2,0.8,4.4,0.9,6.7c0,1.2,0.2,2.3,0.7,3.4c0.4,0.6,0.7,0.5,1.4,0.7
						C109.8,256.8,110.8,257,111.8,256.9z"/>
					<path id="Path_420" class="st16" d="M142.8,253c-0.1-0.1-0.3-0.2-0.4-0.3c-1.1-0.7-2.4-1.1-3.7-1.3c-2-0.4-4.2-0.2-6-1
						c-2-0.9-4.1-1.2-6-2.1c-1.1-0.5-2.2-1-3.2-1.6c-1-0.7-2-1.3-3-1.8c-0.4-0.2-2.1-1.2-2.5-0.9c-3.3,2.7-7.6,3.9-11.9,3.3
						c0.4,3.6,0,7.2,0.7,10.9c3.8,0,7.6,0,11.4,0c0-0.6,0.1-1.2,0.1-1.8c0.6,0.5,1.3,0.9,2.1,1c4.6,0.9,9.2,1.2,13.9,1.1
						c1.7,0,3.3,0,5-0.2c1.3-0.1,2.5-0.4,3.7-0.7c0.5-0.1,0.9-0.3,1.2-0.7c0.2-0.3,0.2-0.6,0.2-0.9
						C144.3,254.8,143.7,253.7,142.8,253z"/>
					<path id="Path_421" class="st17" d="M103.6,173.7c-7.7-6.1-16.3,6.1-16.3,6.1s-0.3,10.3,9.1,39.8c3.6,11.5,6.5,19.2,8,25.2
						c4.2-0.2,7.6-1.5,11.9-2.6C115.9,240.2,108,177.2,103.6,173.7z"/>
					<path id="Path_422" class="st18" d="M52.7,112.2c0,0-10.7,10.1-11.3,23.6s2.3,16.8-2.5,40.6c-0.5,2.5-2.3,6.6,5.4,8.9
						s12.8,2.3,21.6-20.9c6.3-16.6,17.2-41.9,16.4-61.7S52.7,112.2,52.7,112.2z"/>
					<path id="Path_423" class="st15" d="M41.6,175c0,0-12.6,8.3-21.1,32c-2.1,5.8-4.5,11.5-7.4,17c-1.6,3.2-2.9,6.5-4.7,9.6
						c-1.7,2.8-5,5.2-5.2,8.7c-0.2,4.4,15.9,18,21.9,18.2s8.2,1.2,7.5-2.4c-0.7-3.6-7.6-3.4-9.8-7.7s-7.6-12.9-7.6-12.9
						s40.6-47.8,40.4-57.6S41.6,175,41.6,175z"/>
					<path id="Path_424" class="st16" d="M24.9,250.2c-1.7-3.1-3.7-6.1-5.8-8.9c-5-0.3-10.1-1.4-11.1-7.1c-1.8,1.2-3.5,2.7-5,4.4
						c-1.4,1.8-1.1,4.1-2.5,5.7c-0.2,0.2-0.4,0.5-0.5,0.8c-0.2,0.7,0.5,1.2,1,1.6c2.2,1.5,4,3.4,5.5,5.6c0.3,0.4,0.7,0.9,1.2,0.6
						c1.5-0.8,1-1,2.5-0.2c1.8,1,3.5,2.6,5.3,3.6c2.7,1.7,6.2,3.9,9.5,4.1c6,0.3,9.2,1.2,8.5-2.4C32.9,254.5,27.1,254.5,24.9,250.2z
						"/>
					<path id="Path_425" class="st18" d="M56.7,178.3c-0.2-9.8-14.3-5.6-14.3-5.6s-13.9,10.6-22.5,34.2c-2.1,5.8-7.8,17.7-11.5,25.9
						c0,0,0,0.8,0,0.8c3.5,2.1,5.4,1.6,9.1,3.3C22.3,230.3,56.9,187.4,56.7,178.3z"/>
					<path id="Path_426" class="st14" d="M65.1,39.7c0,0-18.7,0.2-20.8,13.8c-1.5,8.1-0.7,16.4,2.3,24c2.7,6.9,5.2,19.1,2.9,26.4
						c-2.3,7-5.8,13.8-7.5,20.9c-1.2,4.5-1.6,9.3-1.2,13.9c5.9,1,12,0.7,17.8-0.8c4.6-1.2,8.9-3.2,13.5-4.4c3.9-0.9,8-1.3,12-1.3
						c1.8-0.2,3.7-0.2,5.5,0.1c1.3,0.3,2.1,1.5,2.6-0.7c0.2-1-0.4-2.9-0.4-4c-0.3-4-1-8-2.2-11.8c-1.6-5.9-4.1-11.9-4.3-17.9
						s-0.3-12.4,2.2-18c2.1-4.6,5.4-9.1,4.9-14.4c-0.3-3.6-2.5-6.7-4.4-9.7c-1.8-3-3.3-6.2-4.3-9.5c-0.6-1.7-1.1-2.1-2.7-2.9
						c-2.4-1.2-4.9-2.1-7.5-2.7C70.7,40.1,67.9,39.8,65.1,39.7z"/>
					<path id="Path_427" class="st13" d="M48.9,45c-3.1,1.4-5,4.5-4.8,7.9c0.3,6.6,2.3,21.3,13.4,41c5.3,10.5,12.5,5.5,10.4-11.2
						c-2.6-21.5-4-30.7-11.3-36.3C53.6,44,50.9,44.1,48.9,45z"/>
					<path id="Path_428" class="st15" d="M123.6,122.5c1.2-0.4,2.5-0.6,3.8-0.6c1.3,0,2.5,0.6,3.2,1.7c0.7,1.2,0.4,2.7-0.6,3.6
						c-0.9,0.5-1.9,0.7-2.9,0.6c-2.5-0.1-6.2-0.1-8.1-1.7C116,123.6,122,122.9,123.6,122.5z"/>
					<path id="Path_429" class="st15" d="M63.7,39.8c0,0,4.5,4.6,8.8,6.7c3.9,1.9,7.9,1.6,6.9-2.4c-0.3-1.4-2.4-3.4-4.7-4.1
						c0,0-1.1-7.4-0.3-11.3c-6.3-2.2-8.9-0.8-8.9-0.8S65.5,38.8,63.7,39.8z"/>
					<path id="Path_430" class="st15" d="M74.3,28.6c-6.3-2.2-8.9-0.8-8.9-0.8s0,2.7-0.2,5.6c2.6,2.1,5.8,3.5,9.1,4
						C74,34.5,74,31.5,74.3,28.6z"/>
					<path id="Path_431" class="st15" d="M80,17.1c0.8,1.5,1.2,3.1,1.4,4.7c0.4,3,0.1,6-0.6,8.8c-1.1,3.8-5.1,5.4-8.8,5.1
						c-2.4-0.2-4.7-1.1-6.6-2.4c-1.9-1.2-5.3-3.6-4.9-6.2c0.2-1.3,1.3-2.1,2.3-3c1.9-1.7,3.4-3.9,4.2-6.3c0.7-2,1.1-4.6,3.2-5.7
						c0.9-0.4,1.8-0.5,2.7-0.5c1-0.1,2,0,3,0.3c1.5,0.7,2.6,2,3.3,3.5C79.4,16,79.7,16.5,80,17.1z"/>
				</g>
				<g id="Group_322" transform="translate(107.559 119.024)">
					<g id="Group_293" transform="translate(52.539 116.324)">
						<path id="Path_432" class="st21" d="M23.2,11.6c0,6.4-5.2,11.6-11.6,11.6S0,18,0,11.6C0,5.2,5.2,0,11.6,0
							C18,0,23.2,5.2,23.2,11.6C23.2,11.6,23.2,11.6,23.2,11.6z"/>
						<path id="Path_433" class="st7" d="M21.6,11.6c0,5.5-4.5,10-10,10s-10-4.5-10-10c0-5.5,4.5-10,10-10
							C17.1,1.6,21.6,6.1,21.6,11.6z"/>
						<path id="Path_434" class="st22" d="M17.1,11.6c0,3-2.5,5.5-5.5,5.5c-3,0-5.5-2.5-5.5-5.5c0-3,2.5-5.5,5.5-5.5
							C14.6,6.1,17.1,8.6,17.1,11.6C17.1,11.6,17.1,11.6,17.1,11.6z"/>
					</g>
					<g id="Group_321">
						<g id="Group_295" transform="translate(97.751 0.18)">
							<path id="Path_435" class="st14" d="M70.4,104.1h-54c-4.5,0-8.2-3.7-8.2-8.2c0-0.2,0-0.5,0-0.7l5.9-69.6
								c0.4-4.2,3.9-7.5,8.2-7.5h42.2c4.3,0,7.8,3.3,8.2,7.5l5.9,69.6c0.4,4.5-3,8.5-7.5,8.8C70.8,104.1,70.6,104.1,70.4,104.1z"/>
							<path id="Path_436" class="st13" d="M65.5,104.1H5.4c-3,0-5.4-2.4-5.4-5.4c0-0.2,0-0.3,0-0.5l6.3-75.2
								c0.2-2.8,2.6-4.9,5.4-4.9h47.4c2.8,0,5.1,2.1,5.4,4.9l6.3,75.2c0.2,3-1.9,5.6-4.9,5.8C65.8,104.1,65.6,104.1,65.5,104.1z"/>
							<g id="Group_294" transform="translate(18.07)">
								<path id="Path_437" class="st16" d="M33,21.1h-1.3v-4.6c0-8.4-6.8-15.2-15.2-15.1C8.1,1.4,1.4,8.1,1.4,16.5v4.6H0v-4.6
									C0,7.4,7.4,0,16.5,0C25.6,0,33,7.4,33,16.5L33,21.1z"/>
							</g>
						</g>
						<g id="Group_297" transform="translate(65.616 22.563)">
							<path id="Path_438" class="st17" d="M56.9,81.7H10.1c-2.4,0-4.4-2-4.4-4.4c0-0.1,0-0.2,0-0.4l5-58.7c0.2-2.3,2.1-4,4.4-4H52
								c2.3,0,4.2,1.7,4.4,4l5,58.7c0.2,2.4-1.6,4.5-4,4.7C57.2,81.7,57,81.7,56.9,81.7z"/>
							<path id="Path_439" class="st18" d="M49.9,81.7H5.5c-3,0-5.5-2.5-5.5-5.5c0-0.2,0-0.3,0-0.5l4.8-56.5c0.2-2.8,2.6-5,5.5-5
								h34.9c2.9,0,5.2,2.2,5.5,5l4.8,56.5c0.3,3-2,5.7-5,5.9C50.2,81.7,50,81.7,49.9,81.7z"/>
							<g id="Group_296" transform="translate(14.071)">
								<path id="Path_440" class="st16" d="M25.9,16.6h-1.1V13c0.2-6.6-5-12-11.6-12.2s-12,5-12.2,11.6c0,0.2,0,0.4,0,0.6v3.6H0V13
									C0,5.8,5.8,0,13,0c7.2,0,13,5.8,13,13L25.9,16.6z"/>
							</g>
						</g>
						<g id="Group_320">
							<g id="Group_318">
								<g id="Group_316" transform="translate(41.397 25.806)">
									<g id="Group_298" transform="translate(2.575 3.536)">
										<path id="Path_441" class="st21" d="M119.9,77.7H29.3c-8.6,0-16-6.1-17.6-14.6L0,0h164.3l-27.9,66.8
											C133.6,73.4,127.1,77.8,119.9,77.7z M3.5,2.9l11.1,59.7c1.3,7.1,7.5,12.2,14.7,12.2h90.6c6,0,11.5-3.6,13.8-9.2l26.2-62.7
											H3.5z"/>
									</g>
									<g id="Group_315" transform="translate(6.749 2.751)">
										<g id="Group_307" transform="translate(4.574)">
											<g id="Group_306">
												<g id="Group_299" transform="translate(0 0.24)">
													
														<rect id="Rectangle_401" x="6.3" y="-0.3" transform="matrix(0.9862 -0.1657 0.1657 0.9862 -6.1658 1.8103)" class="st21" width="2.9" height="76.3"/>
												</g>
												<g id="Group_300" transform="translate(22.682 0.364)">
													
														<rect id="Rectangle_402" x="3.1" y="0" transform="matrix(0.9967 -8.139927e-02 8.139927e-02 0.9967 -3.0565 0.4943)" class="st21" width="2.9" height="75.5"/>
												</g>
												<g id="Group_301" transform="translate(45.023 0.476)">
													
														<rect id="Rectangle_403" x="-36" y="36.2" transform="matrix(4.625096e-03 -1 1 4.625096e-03 -35.9884 39.0891)" class="st21" width="75.2" height="2.9"/>
												</g>
												<g id="Group_302" transform="translate(61.222 0.35)">
													
														<rect id="Rectangle_404" x="-32.9" y="36.3" transform="matrix(9.098649e-02 -0.9959 0.9959 9.098649e-02 -33.1348 39.1869)" class="st21" width="75.6" height="2.9"/>
												</g>
												<g id="Group_303" transform="translate(77.45 0.225)">
													
														<rect id="Rectangle_405" x="-30.1" y="36.4" transform="matrix(0.1744 -0.9847 0.9847 0.1744 -30.5982 39.2509)" class="st21" width="76.4" height="2.9"/>
												</g>
												<g id="Group_304" transform="translate(93.662 0.11)">
													
														<rect id="Rectangle_406" x="-27.6" y="36.5" transform="matrix(0.2552 -0.9669 0.9669 0.2552 -28.2797 39.2625)" class="st21" width="77.8" height="2.9"/>
												</g>
												<g id="Group_305" transform="translate(109.892)">
													
														<rect id="Rectangle_407" x="-25.3" y="36.6" transform="matrix(0.3307 -0.9437 0.9437 0.3307 -26.208 39.2431)" class="st21" width="79.7" height="2.9"/>
												</g>
											</g>
										</g>
										<g id="Group_314" transform="translate(0 13.724)">
											<g id="Group_308">
												<rect id="Rectangle_408" x="0" y="0" class="st21" width="151.9" height="2.9"/>
											</g>
											<g id="Group_309" transform="translate(1.808 9.378)">
												<rect id="Rectangle_409" x="0" y="0" class="st21" width="146.2" height="2.9"/>
											</g>
											<g id="Group_310" transform="translate(3.614 18.757)">
												<rect id="Rectangle_410" x="0" y="0" class="st21" width="140.6" height="2.9"/>
											</g>
											<g id="Group_311" transform="translate(5.418 28.136)">
												<rect id="Rectangle_411" x="0" y="0" class="st21" width="135" height="2.9"/>
											</g>
											<g id="Group_312" transform="translate(7.223 37.516)">
												<rect id="Rectangle_412" x="0" y="0" class="st21" width="129.3" height="2.9"/>
											</g>
											<g id="Group_313" transform="translate(9.029 46.894)">
												<rect id="Rectangle_413" x="0" y="0" class="st21" width="123.7" height="2.9"/>
											</g>
										</g>
									</g>
									<path id="Path_442" class="st16" d="M166.4,6.5H3.2C1.4,6.5,0,5,0,3.2c0,0,0,0,0,0l0,0C0,1.4,1.4,0,3.2,0c0,0,0,0,0,0
										h163.2c1.8,0,3.2,1.4,3.2,3.2c0,0,0,0,0,0l0,0C169.7,5,168.2,6.5,166.4,6.5C166.4,6.5,166.4,6.5,166.4,6.5z"/>
								</g>
								<g id="Group_317">
									<path id="Path_443" class="st16" d="M172.6,115.3H66.9c-9.1,0-17-6.4-19-15.3L27.5,5.9H2.9C1.3,5.9,0,4.6,0,2.9
										S1.3,0,2.9,0l0,0h29.2l21.5,98.8c1.4,6.2,6.9,10.7,13.3,10.7h105.6c1.6,0,2.9,1.3,2.9,2.9S174.2,115.3,172.6,115.3
										L172.6,115.3z"/>
								</g>
							</g>
							<g id="Group_319" transform="translate(136.196 116.324)">
								<path id="Path_444" class="st21" d="M23.2,11.6c0,6.4-5.2,11.6-11.6,11.6S0,18,0,11.6C0,5.2,5.2,0,11.6,0
									C18,0,23.2,5.2,23.2,11.6C23.2,11.6,23.2,11.6,23.2,11.6z"/>
								<path id="Path_445" class="st7" d="M21.6,11.6c0,5.5-4.5,10-10,10s-10-4.5-10-10c0-5.5,4.5-10,10-10S21.6,6.1,21.6,11.6
									L21.6,11.6z"/>
								<path id="Path_446" class="st22" d="M17.1,11.6c0,3-2.5,5.5-5.5,5.5c-3,0-5.5-2.5-5.5-5.5c0-3,2.5-5.5,5.5-5.5
									C14.6,6.1,17.1,8.6,17.1,11.6C17.1,11.6,17.1,11.6,17.1,11.6z"/>
							</g>
						</g>
					</g>
				</g>
			</g>
			<g id="Group_324" transform="translate(60.016 83.122)">
				<path id="Path_447" class="st15" d="M0.2,14.6C8.6,20.1,21,29.3,42.5,34.5c2,0.5,2.5,3.3,4.3,4.3c1.2,0.7,2.4,0.4,2.9,2.1
					c0.2,0.7,0.1,1.4-0.2,2c-0.1,0.1-0.1,0.2-0.1,0.3c0,0.1,0.2,0.2,0.3,0.2c3.2,0.4,6.4-0.5,7.6-3.6c0.4-1.3,0.7-2.7,0.8-4
					c0.2-1.9-0.8-3.8-2.5-4.5c-1.4-0.6-2.9-1-4.4-1.2c-2.1-0.3-4-1-5.8-2.2c-1.9-1.5-3.8-2.9-5.8-4.3C33.5,19.1,15.5,2.9,8.2,1
					C-1.4-1.6,0.2,14.6,0.2,14.6z"/>
				<path id="Path_448" class="st13" d="M45.4,27.8c-1.9-1.5-3.8-2.9-5.8-4.3c-6.2-4.4-24.7-21.3-32-23.2
					c-9.6-2.6-7.5,14.3-7.5,14.3C8.6,20.1,21,29.3,42.5,34.5c0,0,0.1,0,0.1,0.1c1.5-1.9,2.6-4,3.5-6.3C45.9,28.1,45.7,28,45.4,27.8z
					"/>
			</g>
		</g>
		<rect id="Rectangle_414" x="642.9" y="311.1" class="st7" width="65" height="63"/>
		<g id="Group_447" transform="translate(203.107 -98.99)">
			<path id="Path_854" class="st23" d="M468.5,445.9c-2.2,1.7-5.3-0.1-3.9-2.9c-2.9-0.3-5.1-3.9-2-5.8c-4.2-1.5-0.6-8.9,4.1-5.6
				c0.5-3.5,5.8-5.5,6.9-1.3c1.5-3.3,6.6,0.5,5.7,3.6c4.2-0.3,7.9,5.7,3.4,8c3.5,1.9,0,8.5-3.9,6.4c-1.4,2.1-2.8,3.1-5.4,2.4
				c-2.3-0.6-2.4-2-3.5-3.3L468.5,445.9z"/>
			<g id="Group_446" transform="translate(464.045 439.802)">
				<path id="Path_855" class="st24" d="M0.1,12.1c0.2-0.5,0.5-1.1,0.6-1.6C2,7.2,2.4,3.5,1.8,0l2.8,0.4c0.6,1.6,0.5,3.8,1,5.7
					c0.7-1.4,1.2-2.8,1.7-4.3l2.3,1.1c-0.9,1.4-1.5,3-1.7,4.6c1.2-1,2.2-2.6,3.4-3.7c0.5,0.6,1.2,1,1.9,1.3c-2,1.7-3.8,3.6-5.4,5.6
					c-0.8,1.1-1.2,2.3-1.8,3.1C4.8,12.3,1.3,10.8,0.1,12.1z"/>
				<path id="Path_856" class="st25" d="M3.1,14.9c-0.8-0.1-2.8-1-3.1-1.7c-0.1-0.4-0.1-0.7,0-1.1c1.2-1.3,4.7,0.2,6,1.8
					C5.4,14.9,4.2,15.3,3.1,14.9z"/>
			</g>
		</g>
		<g id="Group_450" transform="translate(506.365 -95.61)">
			<g id="Group_448" transform="translate(59.524 426.726)">
				<path id="Path_857" class="st26" d="M8.9,16.1C6.3,13.3,5.7,9.7,5.4,6C5.2,3.9,5.3,1.9,6.5,0.4c1.7-0.8,3.6-0.6,5.3,2.1
					C14,5.9,15,10,14.8,14c-0.1,1.3-0.7,2.5-1.5,3.4c0,0,0,0,0,0C11.6,18,9.9,17.4,8.9,16.1z"/>
				<path id="Path_858" class="st27" d="M1.4,6.2c1.1-2.1,3-4.7,5.1-5.8C5.3,1.9,5.2,3.9,5.4,6c0.3,3.7,1,7.3,3.5,10.1
					c1,1.3,2.8,1.9,4.4,1.4c-0.5,0.6-1.2,1.1-2,1.4c-2,0.7-4.7,0.2-6.6-0.4C-0.6,16.7-1,10.4,1.4,6.2z"/>
			</g>
			<path id="Path_859" class="st28" d="M68.5,436c0.7,2.5,2.4,4.2,3.8,3.8s3.3-3.2,2.6-5.7s-3.8-3.8-5.2-3.4S67.8,433.4,68.5,436z"
				/>
			<g id="Group_449" transform="translate(75.249 434.692)">
				<path id="Path_860" class="st26" d="M3.7,9.4c3.7,0.8,7.1-0.5,10.5-2.1c2-0.9,3.6-2.1,4.3-3.8C18.3,1.6,17.1,0.1,14,0
					C9.9-0.1,5.9,1,2.5,3.3c-1,0.8-1.8,1.8-2.2,3c0,0,0,0,0,0.1C0.7,8,2,9.2,3.7,9.4z"/>
				<path id="Path_861" class="st27" d="M16,10.8c1.3-2.1,2.6-5,2.4-7.3c-0.6,1.7-2.3,2.9-4.3,3.8c-3.3,1.6-6.8,2.8-10.5,2.1
					C2,9.2,0.7,8,0.3,6.4C0,7.2-0.1,8,0.1,8.8c0.4,2.1,2.2,4.2,3.7,5.5C8,17.8,13.6,15,16,10.8z"/>
			</g>
			<path id="Path_862" class="st29" d="M84.8,440.5c-2.5,0.7-4.6,0.6-4.9-0.8s1.3-2.3,3.8-3s4.7-1,5.1,0.4S87.3,439.9,84.8,440.5z"
				/>
			<path id="Path_863" class="st30" d="M72.8,432.2c0,0.2,0,0.4-0.1,0.5c-0.2,0.3-0.8,0.3-0.7-0.2c-0.2,1.3-2.3,2.4-2.7,0.6
				c-0.4-1.7,1.7-2.9,2.4-1c-0.1-0.4,0.6-0.6,0.8-0.5C72.6,431.8,72.8,432,72.8,432.2z"/>
			<path id="Path_864" class="st30" d="M73,433.9c-0.3,1.3-1.2-1-0.1-0.2L73,433.9z"/>
		</g>
		<g id="Group_453" transform="translate(175.369 208.21)">
			<path id="Path_865" class="st31" d="M493.9,239.4c-2.3,4-1.5,9.2,2.2,11.8c3,1.9,12.4,3.2,15.1-0.2c2.2-2.8,0.4-10.3-1.1-12.9
				c-2.1-3.6-8.4-6.6-12.3-3c-0.5,0.6-1,1.2-1.4,1.8L493.9,239.4z"/>
			<g id="Group_451" transform="translate(493.64 242.603)" class="st32">
				<path id="Path_866" class="st31" d="M8.9,8.1C8.6,7.9,8.4,7.6,8.5,7.4s0.4-0.1,0.7,0.1S9.7,8,9.6,8.1C9.5,8.3,9.2,8.2,8.9,8.1z"
					/>
				<path id="Path_867" class="st31" d="M4.5,4.6C4.2,4.4,4,4.1,4.1,4s0.4-0.1,0.7,0.1s0.5,0.5,0.4,0.6S4.8,4.8,4.5,4.6z"/>
				<path id="Path_868" class="st31" d="M0.4,1.4C0.1,1.2-0.1,0.9,0,0.8s0.4-0.1,0.7,0.1s0.5,0.5,0.4,0.6S0.7,1.6,0.4,1.4z"/>
				<path id="Path_869" class="st31" d="M6.6,2.6C6.3,2.4,6.1,2.1,6.2,2S6.6,1.8,6.9,2s0.5,0.5,0.4,0.6S6.9,2.8,6.6,2.6z"/>
				<path id="Path_870" class="st31" d="M14.5,7.6C14.2,7.5,14,7.2,14.1,7s0.4-0.1,0.7,0.1s0.5,0.5,0.4,0.6S14.8,7.8,14.5,7.6z"/>
				<path id="Path_871" class="st31" d="M6.7,8.8C6.4,8.6,6.2,8.3,6.3,8.2S6.7,8.1,7,8.3s0.5,0.5,0.4,0.6S7,9,6.7,8.8z"/>
				<path id="Path_872" class="st31" d="M7.1,6.9C6.8,6.7,6.6,6.5,6.7,6.3s0.4-0.1,0.7,0.1S7.9,6.8,7.8,7S7.4,7.1,7.1,6.9z"/>
				<path id="Path_873" class="st31" d="M2.6,6C2.3,5.8,2.1,5.6,2.2,5.4s0.4-0.1,0.7,0.1S3.4,6,3.3,6.1S2.9,6.2,2.6,6z"/>
				<path id="Path_874" class="st31" d="M3.9,7.9C3.6,7.7,3.4,7.4,3.5,7.3s0.4-0.1,0.7,0.1s0.5,0.5,0.4,0.6C4.5,8.1,4.2,8.1,3.9,7.9
					z"/>
				<path id="Path_875" class="st31" d="M2.8,1.9C2.5,1.7,2.3,1.4,2.4,1.3s0.4-0.1,0.7,0.1S3.6,1.8,3.5,2S3.1,2.1,2.8,1.9z"/>
				<path id="Path_876" class="st31" d="M11.1,7.8c-0.3-0.2-0.5-0.5-0.4-0.6s0.4-0.1,0.7,0.1s0.5,0.5,0.4,0.6
					C11.8,8,11.4,8,11.1,7.8z"/>
				<path id="Path_877" class="st31" d="M9.3,6C9,5.8,8.8,5.5,8.9,5.4s0.4-0.1,0.7,0.1s0.5,0.5,0.4,0.6S9.6,6.2,9.3,6z"/>
				<path id="Path_878" class="st31" d="M10.7,4c-0.3-0.2-0.5-0.5-0.4-0.6s0.4-0.1,0.7,0.1s0.5,0.5,0.4,0.6S11,4.1,10.7,4z"/>
				<path id="Path_879" class="st31" d="M5.1,6.5C4.8,6.3,4.6,6,4.7,5.9S5.1,5.8,5.4,6s0.5,0.5,0.4,0.6S5.4,6.7,5.1,6.5z"/>
				<path id="Path_880" class="st31" d="M6.7,0.7C6.4,0.5,6.2,0.2,6.3,0.1S6.7,0,7,0.2s0.5,0.5,0.4,0.6S7,0.9,6.7,0.7z"/>
				<path id="Path_881" class="st31" d="M6.8,5.1C6.5,4.9,6.3,4.6,6.4,4.5s0.4-0.1,0.7,0.1S7.6,5,7.5,5.2S7.1,5.3,6.8,5.1z"/>
				<path id="Path_882" class="st31" d="M1.9,4.4C1.6,4.2,1.4,3.9,1.5,3.8s0.4-0.1,0.7,0.1s0.5,0.5,0.4,0.6S2.2,4.6,1.9,4.4z"/>
			</g>
			<g id="Group_452" transform="translate(501.187 235.527)">
				<path id="Path_883" class="st7" d="M2.9,1.2c0.3,0.1,0.6,0.4,0.5,0.5S3,2,2.7,1.8S2.1,1.5,2.2,1.3S2.6,1.1,2.9,1.2z"/>
				<path id="Path_884" class="st7" d="M7.9,3.7c0.3,0.1,0.6,0.4,0.5,0.5S8,4.4,7.7,4.3C7.4,4.2,7.1,4,7.2,3.8S7.6,3.6,7.9,3.7z"/>
				<path id="Path_885" class="st7" d="M4.9,0.1c0.3,0.1,0.6,0.4,0.5,0.5S5,0.8,4.7,0.7S4.1,0.3,4.2,0.1S4.5-0.1,4.9,0.1z"/>
				<path id="Path_886" class="st7" d="M4.9,2c0.3,0.1,0.6,0.4,0.5,0.5S5,2.7,4.7,2.6S4.1,2.2,4.2,2.1S4.5,1.9,4.9,2z"/>
				<path id="Path_887" class="st7" d="M0.7,2c0.3,0.1,0.6,0.4,0.5,0.5S0.8,2.7,0.5,2.6S-0.1,2.2,0,2.1S0.4,1.9,0.7,2z"/>
				<path id="Path_888" class="st7" d="M2.9,3.3c0.3,0.1,0.6,0.4,0.5,0.5S3,4.1,2.7,3.9S2.1,3.6,2.2,3.4S2.6,3.2,2.9,3.3z"/>
				<path id="Path_889" class="st7" d="M2,5.6C2.3,5.8,2.5,6,2.5,6.2S2.1,6.4,1.7,6.2S1.2,5.9,1.2,5.7S1.6,5.5,2,5.6z"/>
				<path id="Path_890" class="st7" d="M6.9,2c0.3,0.1,0.6,0.4,0.5,0.5S7,2.7,6.7,2.6S6.1,2.2,6.2,2.1S6.6,1.9,6.9,2z"/>
				<path id="Path_891" class="st7" d="M5.5,3.7C5.8,3.8,6.1,4.1,6,4.2S5.6,4.4,5.3,4.3S4.7,4,4.8,3.8S5.2,3.6,5.5,3.7z"/>
			</g>
			<path id="Path_892" class="st33" d="M496.5,229.6c0.3,1.5,0.4,3,0.2,4.5c1.2-2,6-4.3,8.2-2.7c-1.2,0.7-2.4,1.3-3.5,2
				c1.6,0.2,3.2,0.5,4.1,2c-1.8,0.9-4.7,0.3-6.3,1.7c0.7,1.3,1.4,2.6,1.8,4.1c-1.3-0.3-2.6-0.8-3.9-1.4c-0.1,1.5-0.4,3.2-0.6,4.7
				c-1.1-1.1-1.9-2.4-2.4-3.8c-1.4,1.3-1.7,2.8-2.2,4.4c-1.5-2.5-1.2-5.7,0.9-7.8c-1.6,0.2-3,1-4.4,1.3c0.3-2,4.3-5,6.1-3.1"/>
		</g>
	</g>
</g>
</svg>
